<?xml version="1.0" encoding="utf-8"?>
<!-- Generator: Adobe Illustrator 24.1.0, SVG Export Plug-In . SVG Version: 6.00 Build 0)  -->
<svg version="1.1" xmlns="http://www.w3.org/2000/svg" xmlns:xlink="http://www.w3.org/1999/xlink" x="0px" y="0px"
	 viewBox="0 0 1000 600" style="enable-background:new 0 0 1000 600;" xml:space="preserve">
<style type="text/css">
	.st0{display:none;}
	.st1{display:inline;}
	.st2{fill:#021B9F;}
	.st3{fill:#36ACAA;}
	.st4{fill:#FF9900;}
	.st5{fill:none;stroke:#FF9900;stroke-width:5;stroke-miterlimit:10;}
	.st6{fill:#C8C8C8;}
	.st7{fill:none;stroke:#969696;stroke-width:2.1082;stroke-miterlimit:10;}
	.st8{fill:none;stroke:#969696;stroke-width:2.1082;stroke-miterlimit:10;stroke-dasharray:5.2943,5.2943;}
	.st9{fill:none;stroke:#969696;stroke-width:2.1082;stroke-miterlimit:10;stroke-dasharray:5.3197,5.3197;}
	.st10{fill:#C8C8C8;stroke:#323232;stroke-width:8.6603;stroke-miterlimit:10;}
	.st11{fill:#FFFFFF;}
	.st12{fill:none;stroke:#969696;stroke-width:1.633;stroke-miterlimit:10;}
	.st13{fill:none;stroke:#969696;stroke-width:1.633;stroke-miterlimit:10;stroke-dasharray:4.0985,4.0985;}
	.st14{fill:none;stroke:#969696;stroke-width:1.633;stroke-miterlimit:10;stroke-dasharray:4.1703,4.1703;}
	.st15{fill:#323232;}
</style>
<g id="Layer_2_1_" class="st0">
	<g class="st1">
		<path class="st2" d="M388.7,99.7c1.3-2.2,2.9-3.8,4.8-4.9s3.6-1.7,5.1-1.7c2.2,0,4.2,0.9,5.9,2.8s2.6,4.8,2.6,8.6
			c0,3-0.6,5.7-1.7,8.1s-2.7,4.3-4.7,5.6s-4.3,2.1-7.2,2.1c-0.8,0-2.1-0.1-3.8-0.3c-0.2,0-0.6-0.1-1.1-0.1v10.2h-4.4V93.8h4.4v5.9
			H388.7z M388.7,104.8V116c1.6,0.4,3,0.6,4.4,0.6c2.6,0,4.9-1,6.7-3.1c1.8-2.1,2.7-4.9,2.7-8.5c0-2.6-0.5-4.6-1.5-5.9s-2.1-2-3.4-2
			c-1.4,0-2.9,0.7-4.5,2.1S390,102.5,388.7,104.8z"/>
		<path d="M451.5,105c1.4,0.8,2.5,1.5,3.2,2.2s1.2,1.5,1.5,2.3s0.5,1.7,0.5,2.7c0,0.9-0.2,2.1-0.5,3.5l-0.6,2.7
			c-0.3,1.5-0.5,2.5-0.5,3.2c0,1,0.4,1.8,1.1,2.4s2.3,1,4.6,1h3.6v3.6h-3.7c-4.3,0-7-0.7-8.3-2.1c-1.2-1.4-1.8-2.9-1.8-4.7
			c0-0.9,0.1-1.9,0.4-3l0.4-1.9l0.4-2l0.3-1.2c0.1-0.6,0.2-1.1,0.2-1.7c0-1.5-0.5-2.7-1.5-3.7s-2.7-1.5-5.2-1.5h-2.1v-3.6h2.1
			c2.4,0,4.1-0.5,5.1-1.5s1.5-2.3,1.5-3.8c0-0.6-0.1-1.1-0.2-1.6l-0.3-1.2l-0.4-2l-0.4-1.9c-0.2-1.1-0.4-2.1-0.4-3
			c0-1.7,0.6-3.3,1.8-4.7c1.2-1.4,4-2.1,8.3-2.1h3.7V85h-3.6c-2.3,0-3.8,0.3-4.6,1c-0.8,0.7-1.1,1.5-1.1,2.5c0,0.7,0.2,1.8,0.5,3.2
			l0.6,2.7c0.3,1.4,0.5,2.6,0.5,3.5c0,1-0.2,1.9-0.5,2.7s-0.8,1.5-1.5,2.3S452.9,104.3,451.5,105z"/>
		<path class="st3" d="M464.3,176.8c-2.9,1-5.7,1.5-8.3,1.5c-2.6,0-5-0.6-7-1.8s-3.6-2.9-4.8-4.9s-1.7-4.4-1.7-7.1
			c0-4,1.3-7.3,3.9-9.9s5.7-3.9,9.4-3.9c2.7,0,5.6,0.5,8.6,1.5v4.2c-3-1.4-5.8-2.1-8.2-2.1c-1.6,0-3.1,0.4-4.5,1.2s-2.5,2-3.3,3.7
			s-1.1,3.4-1.1,5.2c0,2.4,0.7,4.6,2.2,6.8s3.8,3.2,6.9,3.2c1,0,1.9-0.1,2.8-0.2s2.6-0.6,5.1-1.5V176.8z"/>
		<path class="st3" d="M481.9,178.3c-3.7,0-6.7-1.3-9-3.9c-2.2-2.6-3.4-5.9-3.4-9.9s1.1-7.3,3.4-9.9c2.2-2.6,5.2-3.9,9-3.9
			c3.7,0,6.7,1.3,9,3.9s3.4,5.9,3.4,9.9s-1.1,7.3-3.4,9.9S485.6,178.3,481.9,178.3z M481.9,174.6c2.3,0,4.2-0.9,5.5-2.7
			s2.1-4.3,2.1-7.5s-0.7-5.6-2.1-7.5s-3.2-2.7-5.5-2.7s-4.2,0.9-5.6,2.7s-2.1,4.3-2.1,7.5s0.7,5.7,2.1,7.5
			C477.7,173.7,479.5,174.6,481.9,174.6z"/>
		<path class="st3" d="M506.9,177.6v-34.2h-7.8v-3.6h12.2V174h8.2v3.6H506.9z"/>
		<path class="st3" d="M539.5,178.3c-3.7,0-6.7-1.3-9-3.9s-3.4-5.9-3.4-9.9s1.1-7.3,3.4-9.9s5.2-3.9,9-3.9c3.7,0,6.7,1.3,9,3.9
			s3.4,5.9,3.4,9.9s-1.1,7.3-3.4,9.9S543.2,178.3,539.5,178.3z M539.5,174.6c2.3,0,4.2-0.9,5.5-2.7s2.1-4.3,2.1-7.5
			s-0.7-5.6-2.1-7.5s-3.2-2.7-5.5-2.7s-4.2,0.9-5.6,2.7s-2.1,4.3-2.1,7.5s0.7,5.7,2.1,7.5S537.1,174.6,539.5,174.6z"/>
		<path class="st3" d="M559.7,177.6v-26.2h4.4v5.7c1.4-2.2,2.9-3.8,4.7-4.8s3.7-1.6,5.9-1.6c1.6,0,3.2,0.2,4.7,0.7v9.4h-4.2v-6
			c-0.7-0.1-1.3-0.2-1.7-0.2c-1.6,0-3.2,0.6-4.8,1.9s-3.1,3.2-4.6,5.8v15.2h-4.4V177.6z"/>
		<path d="M597.1,158.3c-1,0-1.9-0.4-2.7-1.1s-1.1-1.6-1.1-2.7c0-1.1,0.4-2,1.1-2.7s1.7-1.1,2.7-1.1s1.9,0.4,2.7,1.1
			s1.1,1.6,1.1,2.7c0,1-0.4,1.9-1.1,2.7S598.1,158.3,597.1,158.3z M597.1,178.7c-1,0-1.9-0.4-2.7-1.1s-1.1-1.6-1.1-2.7
			c0-1.1,0.4-2,1.1-2.7s1.7-1.1,2.7-1.1s1.9,0.4,2.7,1.1s1.1,1.6,1.1,2.7c0,1-0.4,1.9-1.1,2.7S598.1,178.7,597.1,178.7z"/>
		<path d="M646.2,177.6v-26.2h4.4v5.7c1.4-2.2,2.9-3.8,4.7-4.8s3.7-1.6,5.9-1.6c1.6,0,3.2,0.2,4.7,0.7v9.4h-4.2v-6
			c-0.7-0.1-1.3-0.2-1.7-0.2c-1.6,0-3.2,0.6-4.8,1.9s-3.1,3.2-4.6,5.8v15.2h-4.4V177.6z"/>
		<path d="M694.5,175.8c-3.5,1.6-6.8,2.5-9.9,2.5c-2.4,0-4.5-0.6-6.3-1.8c-1.9-1.2-3.3-2.8-4.5-5s-1.7-4.5-1.7-7
			c0-2.4,0.5-4.7,1.6-6.9s2.5-3.9,4.5-5.1c1.9-1.2,4-1.8,6.4-1.8c3.1,0,5.6,1.1,7.5,3.3s2.8,5.6,2.8,10.2v0.9h-18
			c0,1.8,0.4,3.5,1.1,5c0.8,1.5,1.8,2.6,3,3.4c1.2,0.8,2.6,1.1,4.2,1.1c2.8,0,5.9-0.9,9.3-2.8L694.5,175.8L694.5,175.8z
			 M677.1,161.9h13.1v-0.6c0-2.1-0.5-3.8-1.6-5.1s-2.4-1.9-4.2-1.9s-3.3,0.6-4.6,1.9S677.6,159.4,677.1,161.9z"/>
		<path d="M719,171.7c-1.3,2.2-2.9,3.8-4.8,4.9c-1.9,1.1-3.6,1.7-5.2,1.7c-2.2,0-4.2-0.9-5.9-2.8c-1.7-1.9-2.6-4.8-2.6-8.6
			c0-3,0.6-5.7,1.7-8.1c1.2-2.4,2.7-4.3,4.6-5.6c1.9-1.4,4.3-2.1,7.2-2.1c0.8,0,2.1,0.1,3.8,0.3c0.2,0,0.6,0.1,1.1,0.1v-11.6h4.4
			v37.8H719V171.7z M719,166.5v-11.2c-1.5-0.4-3-0.6-4.3-0.6c-2.7,0-4.9,1-6.7,3.1s-2.7,4.9-2.7,8.5c0,2.6,0.5,4.6,1.5,5.9
			c1,1.3,2.1,2,3.3,2c1.4,0,2.9-0.7,4.5-2.1C716.3,170.7,717.7,168.8,719,166.5z"/>
		<path d="M736.6,187.7v-2.9c1.1-0.3,2-0.7,2.6-1.3s1.1-1.3,1.4-2.1s0.5-1.9,0.5-3.1c-1.5,0-2.5-0.4-3.2-1.2s-1-1.7-1-2.6
			c0-1.1,0.4-2,1.1-2.7s1.7-1.1,2.7-1.1c1.3,0,2.4,0.6,3.4,1.7s1.4,2.7,1.4,4.7c0,1.7-0.4,3.3-1.1,4.9s-1.8,2.8-3.1,3.9
			S738.5,187.5,736.6,187.7z M740.7,158.3c-1,0-1.9-0.4-2.7-1.1s-1.1-1.6-1.1-2.7c0-1.1,0.4-2,1.1-2.7s1.7-1.1,2.7-1.1
			s1.9,0.4,2.7,1.1s1.1,1.6,1.1,2.7c0,1-0.4,1.9-1.1,2.7S741.8,158.3,740.7,158.3z"/>
		<path class="st3" d="M448.4,235.2v-20.4h-5.8v-3.6h5.8V210c0-3.4,0.4-6,1.2-7.7s2-3,3.6-4.1s3.8-1.6,6.5-1.6c2,0,4.1,0.2,6.2,0.6
			v4.1c-2.3-0.8-4.3-1.1-6-1.1c-1.4,0-2.6,0.3-3.7,0.8s-1.9,1.4-2.5,2.5s-0.9,3.1-0.9,5.9v1.7h10.4v3.6h-10.4v20.4h-4.4V235.2z"/>
		<path class="st3" d="M481.9,235.9c-3.7,0-6.7-1.3-9-3.9c-2.2-2.6-3.4-5.9-3.4-9.9s1.1-7.3,3.4-9.9c2.2-2.6,5.2-3.9,9-3.9
			c3.7,0,6.7,1.3,9,3.9s3.4,5.9,3.4,9.9s-1.1,7.3-3.4,9.9S485.6,235.9,481.9,235.9z M481.9,232.2c2.3,0,4.2-0.9,5.5-2.7
			s2.1-4.3,2.1-7.5s-0.7-5.6-2.1-7.5s-3.2-2.7-5.5-2.7s-4.2,0.9-5.6,2.7s-2.1,4.3-2.1,7.5s0.7,5.7,2.1,7.5
			C477.7,231.3,479.5,232.2,481.9,232.2z"/>
		<path class="st3" d="M499.9,235.2V209h4.4v5.7c1.2-2,2.8-3.6,4.5-4.7s3.5-1.7,5.3-1.7c1.5,0,3,0.4,4.2,1.2s2.2,1.9,2.7,3.2
			s0.8,3.9,0.8,7.8v14.6h-4.4V220c0-2.5-0.1-4.2-0.4-5s-0.7-1.5-1.3-2s-1.4-0.8-2.1-0.8c-1.5,0-3.2,0.7-4.9,2.2s-3.2,3.3-4.3,5.5
			v15.3H499.9z"/>
		<path class="st3" d="M550.6,234.1c-2,0.9-3.5,1.4-4.5,1.5s-1.8,0.2-2.7,0.2c-1.8,0-3.5-0.4-5-1.1s-2.7-1.7-3.4-3.1
			s-1.2-3.5-1.2-6.4v-10.5h-6.5v-3.6h6.5v-10.5h4.4v10.5h11.6v3.6h-11.6v10.5c0,2.1,0.2,3.6,0.8,4.5s1.2,1.5,2,1.9s1.8,0.6,3,0.6
			c2.1,0,4.3-0.7,6.7-2L550.6,234.1L550.6,234.1z"/>
		<path class="st3" d="M559.2,222.2v-3.6h18.2v3.6H559.2z"/>
		<path class="st3" d="M592.4,235.2v-20.4h-5.8v-3.6h5.8V210c0-3.4,0.4-6,1.2-7.7s2-3,3.6-4.1s3.8-1.6,6.5-1.6c2,0,4.1,0.2,6.2,0.6
			v4.1c-2.3-0.8-4.3-1.1-6-1.1c-1.4,0-2.6,0.3-3.7,0.8s-1.9,1.4-2.5,2.5s-0.9,3.1-0.9,5.9v1.7h10.4v3.6h-10.4v20.4h-4.4V235.2z"/>
		<path class="st3" d="M632.3,229.3c-1.3,2.2-2.9,3.8-4.8,4.9c-1.9,1.1-3.6,1.7-5.1,1.7c-2.2,0-4.2-0.9-5.9-2.8s-2.6-4.8-2.6-8.6
			c0-3,0.6-5.7,1.7-8.1s2.7-4.3,4.6-5.6c1.9-1.4,4.3-2.1,7.2-2.1c0.8,0,2.1,0.1,3.7,0.3c0.2,0,0.6,0.1,1.1,0.1h4.4v18.5
			c0,3.2,0.3,5.7,1,7.7h-4.5C632.8,233.7,632.5,231.8,632.3,229.3z M632.3,224.1v-11.2c-1.5-0.4-3-0.6-4.3-0.6c-2.7,0-4.9,1-6.7,3.1
			s-2.7,4.9-2.7,8.5c0,2.6,0.5,4.6,1.5,5.9c1,1.3,2.1,2,3.3,2c1.4,0,2.9-0.7,4.5-2.1C629.6,228.3,631.1,226.4,632.3,224.1z"/>
		<path class="st3" d="M642,235.2V209h3.8v6c1.2-2.5,2.3-4.3,3.4-5.3s2.1-1.5,3.2-1.5c1.3,0,2.3,0.5,3.1,1.5s1.2,2.4,1.2,4.2v1.4
			c0.5-1.6,1.1-2.9,1.9-3.9s1.5-1.8,2.3-2.4s1.7-0.9,2.7-0.9c1.1,0,2.1,0.5,2.9,1.4s1.2,2.9,1.2,5.7V235h-3.8v-17.9
			c0-1.5,0-2.5-0.1-3s-0.3-0.9-0.6-1.2s-0.6-0.4-0.9-0.4c-0.8,0-1.7,0.6-2.6,1.9s-1.9,3.3-2.8,6.2v14.5h-3.6v-17.9
			c0-2.3-0.2-3.7-0.7-4.1c-0.5-0.4-0.9-0.6-1.2-0.6c-0.8,0-1.7,0.7-2.6,2.1s-1.8,3.2-2.6,5.3V235H642V235.2z"/>
		<path class="st3" d="M680.1,235.2v-22.5h-7.3V209h11.6v22.5h7.3v3.6L680.1,235.2L680.1,235.2z M679.4,199.5c0-1,0.3-1.7,1-2.2
			s1.3-0.7,1.9-0.7c0.6,0,1.2,0.2,1.9,0.7s1,1.2,1,2.2s-0.3,1.7-1,2.2s-1.3,0.7-1.9,0.7c-0.6,0-1.2-0.2-1.9-0.7
			S679.4,200.5,679.4,199.5z"/>
		<path class="st3" d="M708.6,235.2V201h-7.8v-3.6H713v34.2h8.2v3.6H708.6z"/>
		<path class="st3" d="M740,234.1L727.9,209h4.8l9.6,19.7l8-19.7h4.4l-10.1,24.3c-2.1,5.1-4.2,8.5-6.1,10.2s-4.4,2.5-7.5,2.5
			c-1.3,0-2.5-0.1-3.6-0.4v-3.8c1.2,0.4,2.3,0.6,3.4,0.6c1.4,0,2.7-0.3,3.7-0.8c1.1-0.5,2.1-1.5,3-2.9s1.5-2.6,1.9-3.6L740,234.1z"
			/>
		<path d="M769.9,215.9c-1,0-1.9-0.4-2.7-1.1s-1.1-1.6-1.1-2.7c0-1.1,0.4-2,1.1-2.7s1.7-1.1,2.7-1.1s1.9,0.4,2.7,1.1
			s1.1,1.6,1.1,2.7c0,1-0.4,1.9-1.1,2.7S771,215.9,769.9,215.9z M769.9,236.3c-1,0-1.9-0.4-2.7-1.1s-1.1-1.6-1.1-2.7
			c0-1.1,0.4-2,1.1-2.7s1.7-1.1,2.7-1.1s1.9,0.4,2.7,1.1s1.1,1.6,1.1,2.7c0,1-0.4,1.9-1.1,2.7S771,236.3,769.9,236.3z"/>
		<path d="M818.4,235.2h-4.5l11.2-36.4h4.8l11.3,36.4h-5l-2.5-8h-12.8L818.4,235.2z M822,223.5h10.6l-4.4-13.8l-1-3.7l-0.9,3.7
			L822,223.5z"/>
		<path d="M847.8,235.2V209h4.4v5.7c1.4-2.2,2.9-3.8,4.7-4.8s3.7-1.6,5.9-1.6c1.6,0,3.2,0.2,4.7,0.7v9.4h-4.2v-6
			c-0.7-0.1-1.3-0.2-1.7-0.2c-1.6,0-3.2,0.6-4.8,1.9s-3.1,3.2-4.6,5.8v15.2h-4.4V235.2z"/>
		<path d="M881.7,235.2v-22.5h-7.3V209H886v22.5h7.3v3.6L881.7,235.2L881.7,235.2z M881,199.5c0-1,0.3-1.7,1-2.2s1.3-0.7,1.9-0.7
			c0.6,0,1.2,0.2,1.9,0.7s1,1.2,1,2.2s-0.3,1.7-1,2.2s-1.3,0.7-1.9,0.7c-0.6,0-1.2-0.2-1.9-0.7S881,200.5,881,199.5z"/>
		<path d="M920.4,229.3c-1.3,2.2-2.9,3.8-4.8,4.9c-1.9,1.1-3.6,1.7-5.1,1.7c-2.2,0-4.2-0.9-5.9-2.8c-1.7-1.9-2.6-4.8-2.6-8.6
			c0-3,0.6-5.7,1.7-8.1c1.2-2.4,2.7-4.3,4.6-5.6c1.9-1.4,4.3-2.1,7.2-2.1c0.8,0,2.1,0.1,3.7,0.3c0.2,0,0.6,0.1,1.1,0.1h4.4v18.5
			c0,3.2,0.3,5.7,1,7.7h-4.5C920.9,233.7,920.6,231.8,920.4,229.3z M920.4,224.1v-11.2c-1.5-0.4-3-0.6-4.3-0.6c-2.7,0-4.9,1-6.7,3.1
			s-2.7,4.9-2.7,8.5c0,2.6,0.5,4.6,1.5,5.9c1,1.3,2.1,2,3.3,2c1.4,0,2.9-0.7,4.5-2.1C917.6,228.3,919.1,226.4,920.4,224.1z"/>
		<path d="M939,235.2V201h-7.8v-3.6h12.2v34.2h8.2v3.6H939z"/>
		<path d="M967.1,245.3v-2.9c1.1-0.3,2-0.7,2.6-1.3s1.1-1.3,1.4-2.1s0.5-1.9,0.5-3.1c-1.5,0-2.5-0.4-3.2-1.2s-1-1.7-1-2.6
			c0-1.1,0.4-2,1.1-2.7s1.7-1.1,2.7-1.1c1.3,0,2.4,0.6,3.4,1.7s1.4,2.7,1.4,4.7c0,1.7-0.4,3.3-1.1,4.9s-1.8,2.8-3.1,3.9
			S968.9,245.1,967.1,245.3z M971.2,215.9c-1,0-1.9-0.4-2.7-1.1s-1.1-1.6-1.1-2.7c0-1.1,0.4-2,1.1-2.7s1.7-1.1,2.7-1.1
			s1.9,0.4,2.7,1.1s1.1,1.6,1.1,2.7c0,1-0.4,1.9-1.1,2.7S972.2,215.9,971.2,215.9z"/>
		<path d="M397,277.8c-1.5-0.8-2.5-1.5-3.2-2.2s-1.2-1.5-1.5-2.3s-0.5-1.7-0.5-2.7c0-0.9,0.1-2.1,0.4-3.5l0.6-2.7
			c0.3-1.5,0.5-2.5,0.5-3.2c0-1-0.4-1.8-1.1-2.4c-0.7-0.7-2.3-1-4.6-1H384v-3.6h3.7c4.3,0,7,0.7,8.3,2.1c1.2,1.4,1.9,2.9,1.9,4.7
			c0,0.9-0.1,1.9-0.4,3l-0.4,1.9l-0.4,2l-0.3,1.2c-0.1,0.6-0.2,1.2-0.2,1.7c0,1.4,0.5,2.7,1.5,3.7s2.7,1.5,5.2,1.5h2.1v3.6h-2.1
			c-2.4,0-4.2,0.5-5.1,1.5s-1.5,2.3-1.5,3.8c0,0.5,0.1,1.1,0.2,1.6l0.3,1.2l0.4,2l0.4,1.9c0.2,1.1,0.4,2.1,0.4,3
			c0,1.7-0.6,3.3-1.9,4.7s-4,2.1-8.3,2.1H384v-3.6h3.6c2.3,0,3.8-0.3,4.6-1s1.1-1.5,1.1-2.4c0-0.7-0.2-1.8-0.5-3.2l-0.6-2.7
			c-0.3-1.4-0.4-2.6-0.4-3.5c0-1,0.2-1.9,0.5-2.7s0.8-1.5,1.5-2.3S395.6,278.6,397,277.8z"/>
	</g>
	<g class="st1">
		<path class="st4" d="M42,24.9c-0.3-1.6-1.6-3.9-5-3.9c-2.6,0-4.4,1.7-4.4,3.7c0,1.6,1,2.8,3,3.3l3.7,0.8c4.5,0.9,6.9,3.7,6.9,7.3
			c0,4-3.2,7.7-9,7.7c-6.5,0-9.5-4.2-9.9-7.8l4-1.2c0.3,2.7,2.2,5.1,5.8,5.1c3.1,0,4.6-1.5,4.6-3.5c0-1.7-1.2-3-3.4-3.5l-3.6-0.8
			c-3.9-0.8-6.5-3.3-6.5-7.2c0-4.3,3.9-7.8,8.7-7.8c6,0,8.4,3.7,8.9,6.5L42,24.9z"/>
		<path class="st4" d="M65.6,38.2c-0.9,3.1-3.7,5.5-7.9,5.5c-4.8,0-9-3.5-9-9.4c0-5.5,4.1-9.2,8.5-9.2c5.4,0,8.6,3.6,8.6,9.1
			c0,0.7-0.1,1.3-0.1,1.3H52.9c0.1,2.7,2.2,4.6,4.8,4.6c2.5,0,3.8-1.3,4.4-3.1L65.6,38.2z M61.6,32.5c-0.1-2.1-1.4-3.9-4.3-3.9
			c-2.6,0-4.1,2-4.3,3.9H61.6z M58.8,23.5h-3.4l3.2-5.3h4.9L58.8,23.5z"/>
		<path class="st4" d="M69.8,43.2v-26H74v26.1h-4.2V43.2z"/>
		<path class="st4" d="M94.9,38.2c-0.9,3.1-3.7,5.5-7.9,5.5c-4.8,0-9-3.5-9-9.4c0-5.5,4.1-9.2,8.5-9.2c5.4,0,8.6,3.6,8.6,9.1
			c0,0.7-0.1,1.3-0.1,1.3H82.2c0.1,2.7,2.2,4.6,4.8,4.6c2.5,0,3.8-1.3,4.4-3.1L94.9,38.2z M90.9,32.5c-0.1-2.1-1.4-3.9-4.3-3.9
			c-2.6,0-4.1,2-4.3,3.9H90.9z"/>
		<path class="st4" d="M101.9,34.5c0,3.5,2.3,5.5,4.9,5.5c2.7,0,4-1.9,4.4-3.2l3.7,1.3c-0.8,2.7-3.5,5.7-8.1,5.7
			c-5.1,0-9.1-4-9.1-9.3c0-5.4,3.9-9.3,9-9.3c4.7,0,7.3,3,8,5.8l-3.7,1.4c-0.4-1.5-1.6-3.3-4.2-3.3C104.2,29,101.9,30.9,101.9,34.5z
			"/>
		<path class="st4" d="M123.9,25.7h3.6v3.7h-3.6v8.1c0,1.5,0.7,2.2,2.2,2.2c0.6,0,1.3-0.1,1.4-0.1v3.5c-0.3,0.1-1,0.4-2.6,0.4
			c-3.2,0-5.3-1.9-5.3-5.2v-8.8h-3.2v-3.7h0.9c1.9,0,2.7-1.2,2.7-2.7v-2.6h3.8L123.9,25.7L123.9,25.7z"/>
		<path class="st4" d="M147.2,38.2c-0.9,3.1-3.7,5.5-7.9,5.5c-4.8,0-9-3.5-9-9.4c0-5.5,4.1-9.2,8.5-9.2c5.4,0,8.6,3.6,8.6,9.1
			c0,0.7-0.1,1.3-0.1,1.3h-12.8c0.1,2.7,2.2,4.6,4.8,4.6c2.5,0,3.8-1.3,4.4-3.1L147.2,38.2z M143.2,32.5c-0.1-2.1-1.4-3.9-4.3-3.9
			c-2.6,0-4.1,2-4.3,3.9H143.2z"/>
		<path class="st4" d="M157.5,43.7c-4.2,0-6.6-3.1-6.6-7v-11h4.2V36c0,2.2,1,4,3.5,4c2.4,0,3.7-1.6,3.7-3.9V25.7h4.2V40
			c0,1.4,0.1,2.6,0.2,3.2h-4c-0.1-0.4-0.1-1.2-0.1-1.9C161.6,42.9,159.5,43.7,157.5,43.7z"/>
		<path class="st4" d="M182,29.8c-0.5-0.1-0.9-0.1-1.4-0.1c-3.2,0-4.7,1.9-4.7,5.1v8.4h-4.2V25.7h4.1v2.8c0.8-1.9,2.8-3,5.1-3
			c0.5,0,0.9,0.1,1.1,0.1L182,29.8L182,29.8z"/>
	</g>
	<g class="st1">
		<path class="st4" d="M29.2,102.1V76.6h9c6.9,0,12.4,4.6,12.4,12.8s-5.5,12.7-12.5,12.7H29.2z M38,98.1c4.4,0,8.1-2.8,8.1-8.7
			c0-6-3.6-8.9-8.1-8.9h-4.6v17.6H38z"/>
		<path class="st4" d="M70.4,97.1c-0.9,3.1-3.7,5.5-7.9,5.5c-4.8,0-9-3.5-9-9.4c0-5.5,4.1-9.2,8.5-9.2c5.4,0,8.6,3.6,8.6,9.1
			c0,0.7-0.1,1.3-0.1,1.3H57.7c0.1,2.7,2.2,4.6,4.8,4.6c2.5,0,3.8-1.3,4.4-3.1L70.4,97.1z M66.4,91.4c-0.1-2.1-1.4-3.9-4.3-3.9
			c-2.6,0-4.1,2-4.3,3.9H66.4z M63.6,82.3h-3.4l3.2-5.3h4.9L63.6,82.3z"/>
		<path class="st4" d="M77.4,93.3c0,3.5,2.3,5.5,4.9,5.5c2.7,0,4-1.9,4.4-3.2l3.7,1.3c-0.8,2.7-3.5,5.7-8.1,5.7
			c-5.1,0-9.1-4-9.1-9.3c0-5.4,3.9-9.3,9-9.3c4.7,0,7.3,3,8,5.8l-3.7,1.4c-0.4-1.5-1.6-3.3-4.2-3.3C79.7,87.9,77.4,89.8,77.4,93.3z"
			/>
		<path class="st4" d="M94.1,102.1V76h4.2v26.1H94.1z"/>
		<path class="st4" d="M107.8,92l4.5-0.7c1-0.1,1.3-0.6,1.3-1.3c0-1.5-1-2.7-3.3-2.7c-2.2,0-3.4,1.4-3.6,3.2l-3.8-0.9
			c0.3-3,3.1-5.7,7.4-5.7c5.4,0,7.5,3.1,7.5,6.6v8.7c0,1.6,0.2,2.6,0.2,2.8h-4c0-0.1-0.2-0.8-0.2-2.2c-0.8,1.3-2.6,2.8-5.4,2.8
			c-3.7,0-5.9-2.5-5.9-5.3C102.5,94.2,104.8,92.5,107.8,92z M113.6,94.8V94l-4.6,0.7c-1.3,0.2-2.3,0.9-2.3,2.4
			c0,1.2,0.9,2.3,2.6,2.3C111.6,99.3,113.6,98.2,113.6,94.8z"/>
		<path class="st4" d="M133,88.7c-0.5-0.1-0.9-0.1-1.4-0.1c-3.2,0-4.7,1.9-4.7,5.1v8.4h-4.2V84.5h4.1v2.8c0.8-1.9,2.8-3,5.1-3
			c0.5,0,0.9,0.1,1.1,0.1L133,88.7L133,88.7z"/>
		<path class="st4" d="M140.7,92l4.5-0.7c1-0.1,1.3-0.6,1.3-1.3c0-1.5-1-2.7-3.3-2.7c-2.2,0-3.4,1.4-3.6,3.2l-3.8-0.9
			c0.3-3,3.1-5.7,7.4-5.7c5.4,0,7.5,3.1,7.5,6.6v8.7c0,1.6,0.2,2.6,0.2,2.8H147c0-0.1-0.2-0.8-0.2-2.2c-0.8,1.3-2.6,2.8-5.4,2.8
			c-3.7,0-5.9-2.5-5.9-5.3C135.4,94.2,137.7,92.5,140.7,92z M146.5,94.8V94l-4.6,0.7c-1.3,0.2-2.3,0.9-2.3,2.4
			c0,1.2,0.9,2.3,2.6,2.3C144.5,99.3,146.5,98.2,146.5,94.8z"/>
		<path class="st4" d="M160.9,84.5h3.6v3.7h-3.6v8.1c0,1.5,0.7,2.2,2.2,2.2c0.6,0,1.3-0.1,1.4-0.1v3.5c-0.3,0.1-1,0.4-2.6,0.4
			c-3.2,0-5.3-1.9-5.3-5.2v-8.8h-3.2v-3.7h0.9c1.9,0,2.7-1.2,2.7-2.7v-2.6h3.8v5.2H160.9z"/>
		<path class="st4" d="M170.8,75.7c1.5,0,2.7,1.2,2.7,2.7s-1.2,2.7-2.7,2.7s-2.7-1.2-2.7-2.7S169.4,75.7,170.8,75.7z M168.8,102.1
			V84.5h4.1V102L168.8,102.1L168.8,102.1z"/>
		<path class="st4" d="M195.1,93.3c0,5.4-3.9,9.3-9.1,9.3c-5.2,0-9.1-3.9-9.1-9.3s3.9-9.3,9.1-9.3C191.3,84,195.1,87.9,195.1,93.3z
			 M190.9,93.3c0-3.6-2.3-5.5-4.9-5.5c-2.6,0-4.9,1.9-4.9,5.5s2.3,5.6,4.9,5.6C188.6,98.9,190.9,97,190.9,93.3z"/>
		<path class="st4" d="M203.4,102.1h-4.2V84.5h4.1v2.3c1.2-2,3.2-2.8,5.2-2.8c4.3,0,6.3,3.1,6.3,6.9V102h-4.2V91.7
			c0-2.2-1-3.9-3.6-3.9c-2.4,0-3.6,1.8-3.6,4.1V102.1z"/>
		<path class="st4" d="M221.9,96.3c0.1,1.6,1.3,3,3.6,3c1.7,0,2.6-0.9,2.6-2c0-0.9-0.6-1.7-2.1-1.9l-2.6-0.6
			c-3.1-0.7-4.7-2.7-4.7-5.1c0-3.1,2.8-5.7,6.4-5.7c4.9,0,6.5,3.2,6.8,4.9l-3.5,1c-0.1-1-0.9-2.6-3.2-2.6c-1.5,0-2.5,0.9-2.5,2
			c0,0.9,0.7,1.6,1.8,1.8l2.7,0.5c3.3,0.7,5,2.7,5,5.3c0,2.7-2.2,5.6-6.6,5.6c-5.1,0-7-3.3-7.2-5.3L221.9,96.3z"/>
	</g>
	<g class="st1">
		<path class="st4" d="M589.5,89.3c0-8.3,6.2-13.3,12.9-13.3c6.5,0,10.3,3.8,11.5,8.3l-4.1,1.4c-0.8-3.1-3.1-5.6-7.4-5.6
			c-4.2,0-8.4,3.1-8.4,9.3c0,6,4.1,9.1,8.5,9.1c4.3,0,6.7-2.7,7.6-5.6l4,1.3c-1.2,4.3-5,8.5-11.6,8.5
			C595.5,102.6,589.5,97.6,589.5,89.3z"/>
		<path class="st4" d="M617.6,102.1V76h4.2v26.1H617.6z"/>
		<path class="st4" d="M642.7,97.1c-0.9,3.1-3.7,5.5-7.9,5.5c-4.8,0-9-3.5-9-9.4c0-5.5,4.1-9.2,8.5-9.2c5.4,0,8.6,3.6,8.6,9.1
			c0,0.7-0.1,1.3-0.1,1.3H630c0.1,2.7,2.2,4.6,4.8,4.6c2.5,0,3.8-1.3,4.4-3.1L642.7,97.1z M638.7,91.4c-0.1-2.1-1.4-3.9-4.3-3.9
			c-2.6,0-4.1,2-4.3,3.9H638.7z M635.9,82.3h-3.4l3.2-5.3h4.9L635.9,82.3z"/>
		<path class="st4" d="M649,96.3c0.1,1.6,1.3,3,3.6,3c1.7,0,2.6-0.9,2.6-2c0-0.9-0.6-1.7-2.1-1.9l-2.6-0.6c-3.1-0.7-4.7-2.7-4.7-5.1
			c0-3.1,2.8-5.7,6.4-5.7c4.9,0,6.5,3.2,6.8,4.9l-3.5,1c-0.1-1-0.9-2.6-3.2-2.6c-1.5,0-2.5,0.9-2.5,2c0,0.9,0.7,1.6,1.8,1.8l2.7,0.5
			c3.3,0.7,5,2.7,5,5.3c0,2.7-2.2,5.6-6.6,5.6c-5.1,0-7-3.3-7.2-5.3L649,96.3z"/>
	</g>
	<g class="st1">
		<path class="st4" d="M880.3,76.6h4.6l-9.6,25.5h-4.4l-9.5-25.5h4.7l7.1,19.9L880.3,76.6z"/>
		<path class="st4" d="M890,92l4.5-0.7c1-0.1,1.3-0.6,1.3-1.3c0-1.5-1-2.7-3.3-2.7c-2.2,0-3.4,1.4-3.6,3.2l-3.8-0.9
			c0.3-3,3.1-5.7,7.4-5.7c5.4,0,7.5,3.1,7.5,6.6v8.7c0,1.6,0.2,2.6,0.2,2.8h-3.9c0-0.1-0.2-0.8-0.2-2.2c-0.8,1.3-2.6,2.8-5.4,2.8
			c-3.7,0-5.9-2.5-5.9-5.3C884.7,94.2,887,92.5,890,92z M895.8,94.8V94l-4.6,0.7c-1.3,0.2-2.3,0.9-2.3,2.4c0,1.2,0.9,2.3,2.6,2.3
			C893.8,99.3,895.8,98.2,895.8,94.8z"/>
		<path class="st4" d="M905,102.1V76h4.2v26.1H905z"/>
		<path class="st4" d="M930.1,97.1c-0.9,3.1-3.7,5.5-7.9,5.5c-4.8,0-9-3.5-9-9.4c0-5.5,4.1-9.2,8.5-9.2c5.4,0,8.6,3.6,8.6,9.1
			c0,0.7-0.1,1.3-0.1,1.3h-12.8c0.1,2.7,2.2,4.6,4.8,4.6c2.5,0,3.8-1.3,4.4-3.1L930.1,97.1z M926.1,91.4c-0.1-2.1-1.4-3.9-4.3-3.9
			c-2.6,0-4.1,2-4.3,3.9H926.1z"/>
		<path class="st4" d="M940.4,102.6c-4.2,0-6.6-3.1-6.6-7V84.5h4.2v10.3c0,2.2,1,4,3.5,4c2.4,0,3.7-1.6,3.7-3.9V84.5h4.2v14.3
			c0,1.4,0.1,2.6,0.2,3.2h-4c-0.1-0.4-0.1-1.2-0.1-1.9C944.5,101.7,942.4,102.6,940.4,102.6z"/>
		<path class="st4" d="M964.9,88.7c-0.5-0.1-0.9-0.1-1.4-0.1c-3.2,0-4.7,1.9-4.7,5.1v8.4h-4.2V84.5h4.1v2.8c0.8-1.9,2.8-3,5.1-3
			c0.5,0,0.9,0.1,1.1,0.1L964.9,88.7L964.9,88.7z"/>
		<path class="st4" d="M970.6,96.3c0.1,1.6,1.3,3,3.6,3c1.7,0,2.6-0.9,2.6-2c0-0.9-0.6-1.7-2.1-1.9l-2.6-0.6
			c-3.1-0.7-4.7-2.7-4.7-5.1c0-3.1,2.8-5.7,6.4-5.7c4.9,0,6.5,3.2,6.8,4.9l-3.5,1c-0.1-1-0.9-2.6-3.2-2.6c-1.5,0-2.5,0.9-2.5,2
			c0,0.9,0.7,1.6,1.8,1.8l2.7,0.5c3.3,0.7,5,2.7,5,5.3c0,2.7-2.2,5.6-6.6,5.6c-5.1,0-7-3.3-7.2-5.3L970.6,96.3z"/>
	</g>
	<g class="st1">
		<g>
			<line class="st5" x1="200.1" y1="33.3" x2="349.5" y2="80.3"/>
			<g>
				<polygon class="st4" points="342.3,91.1 366.6,85.7 349.8,67.3 				"/>
			</g>
		</g>
	</g>
	<g class="st1">
		<g>
			<line class="st5" x1="254.2" y1="95.7" x2="401.2" y2="155.4"/>
			<g>
				<polygon class="st4" points="393.1,165.6 417.8,162.2 402.5,142.5 				"/>
			</g>
		</g>
	</g>
	<g class="st1">
		<g>
			<line class="st5" x1="254.2" y1="96.3" x2="402.7" y2="204.6"/>
			<g>
				<polygon class="st4" points="392.4,212.5 417.2,215.1 407.1,192.3 				"/>
			</g>
		</g>
	</g>
	<g class="st1">
		<g>
			<line class="st5" x1="613.7" y1="113.8" x2="562.1" y2="129.3"/>
			<g>
				<polygon class="st4" points="562,116.4 544.9,134.5 569.2,140.2 				"/>
			</g>
		</g>
	</g>
	<g class="st1">
		<g>
			<line class="st5" x1="613.7" y1="114.4" x2="613.7" y2="167.2"/>
			<g>
				<polygon class="st4" points="601.3,163.5 613.7,185.1 626.2,163.5 				"/>
			</g>
		</g>
	</g>
	<g class="st1">
		<g>
			<line class="st5" x1="917.9" y1="113.2" x2="789.8" y2="151.7"/>
			<g>
				<polygon class="st4" points="789.7,138.7 772.6,156.9 796.9,162.6 				"/>
			</g>
		</g>
	</g>
	<g class="st1">
		<g>
			<line class="st5" x1="917.9" y1="113.8" x2="917.9" y2="160.1"/>
			<g>
				<polygon class="st4" points="905.5,156.5 917.9,178.1 930.4,156.5 				"/>
			</g>
		</g>
	</g>
	
		<text transform="matrix(1 0 0 1 162.1148 -146.0672)" style="display:inline;fill:#FF9900; font-family:'CircularStd-Medium'; font-size:36px;">a</text>
</g>
<g id="Layer_3">
	<g>
		<rect x="50" y="50" class="st6" width="900" height="500"/>
		<g>
			<polyline class="st7" points="950,547.4 950,550 947.4,550 			"/>
			<line class="st8" x1="942.1" y1="550" x2="55.3" y2="550"/>
			<polyline class="st7" points="52.6,550 50,550 50,547.4 			"/>
			<line class="st9" x1="50" y1="542" x2="50" y2="55.3"/>
			<polyline class="st7" points="50,52.6 50,50 52.6,50 			"/>
			<line class="st8" x1="57.9" y1="50" x2="944.7" y2="50"/>
			<polyline class="st7" points="947.4,50 950,50 950,52.6 			"/>
			<line class="st9" x1="950" y1="58" x2="950" y2="544.7"/>
		</g>
	</g>
	<rect x="150" y="150" class="st10" width="700" height="300"/>
	<g>
		<rect x="250" y="250" class="st11" width="500" height="100"/>
		<g>
			<polyline class="st12" points="750,348 750,350 748,350 			"/>
			<line class="st13" x1="743.9" y1="350" x2="254.1" y2="350"/>
			<polyline class="st12" points="252,350 250,350 250,348 			"/>
			<line class="st14" x1="250" y1="343.8" x2="250" y2="254.1"/>
			<polyline class="st12" points="250,252 250,250 252,250 			"/>
			<line class="st13" x1="256.1" y1="250" x2="745.9" y2="250"/>
			<polyline class="st12" points="748,250 750,250 750,252 			"/>
			<line class="st14" x1="750" y1="256.2" x2="750" y2="345.9"/>
		</g>
	</g>
	<g>
		<path class="st4" d="M379.3,91V76.4h3.3v1.9c0.8-1.5,2.7-2.3,4.3-2.3c1.9,0,3.6,0.9,4.4,2.6c1.1-1.9,2.8-2.6,4.7-2.6
			c2.6,0,5.2,1.7,5.2,5.5V91h-3.4v-8.9c0-1.7-0.9-3-2.8-3c-1.8,0-3,1.4-3,3.2V91h-3.4v-8.9c0-1.7-0.8-3-2.8-3c-1.9,0-3,1.4-3,3.2V91
			H379.3z"/>
		<path class="st4" d="M409,82.6l3.8-0.6c0.8-0.1,1.1-0.5,1.1-1.1c0-1.2-0.8-2.2-2.8-2.2c-1.8,0-2.8,1.2-3,2.6l-3.2-0.7
			c0.3-2.5,2.5-4.8,6.2-4.8c4.5,0,6.2,2.6,6.2,5.5v7.3c0,1.3,0.2,2.2,0.2,2.3h-3.2c0-0.1-0.2-0.7-0.2-1.9c-0.7,1.1-2.1,2.3-4.5,2.3
			c-3.1,0-5-2.1-5-4.4C404.6,84.4,406.5,83,409,82.6z M413.8,84.9v-0.7l-3.8,0.6c-1.1,0.2-2,0.8-2,2c0,1,0.8,1.9,2.1,1.9
			C412.1,88.7,413.8,87.8,413.8,84.9z"/>
		<path class="st4" d="M430,79.8c-0.4-0.1-0.8-0.1-1.1-0.1c-2.7,0-3.9,1.6-3.9,4.3v7h-3.5V76.4h3.4v2.3c0.7-1.6,2.3-2.5,4.2-2.5
			c0.4,0,0.8,0.1,0.9,0.1V79.8z"/>
		<path class="st4" d="M434.9,91c0.2,1.8,1.6,3.1,3.7,3.1c2.8,0,4.1-1.4,4.1-4.4v-1.5c-0.6,1.1-2.1,2.1-4.2,2.1
			c-3.9,0-6.7-3-6.7-7.1c0-3.9,2.7-7.1,6.7-7.1c2.3,0,3.7,0.9,4.3,2.1v-1.9h3.4v13.2c0,3.9-2,7.5-7.5,7.5c-3.9,0-6.6-2.4-7-5.3
			L434.9,91z M442.8,83.2c0-2.5-1.6-4.1-3.8-4.1c-2.2,0-3.8,1.6-3.8,4.1c0,2.5,1.5,4.1,3.8,4.1C441.3,87.4,442.8,85.7,442.8,83.2z"
			/>
		<path class="st4" d="M463.4,86.8c-0.8,2.5-3.1,4.6-6.6,4.6c-4,0-7.5-2.9-7.5-7.8c0-4.6,3.4-7.7,7.1-7.7c4.5,0,7.1,3,7.1,7.6
			c0,0.6-0.1,1-0.1,1.1h-10.7c0.1,2.2,1.8,3.8,4,3.8c2.1,0,3.2-1.1,3.7-2.5L463.4,86.8z M460,82.1c-0.1-1.7-1.2-3.2-3.6-3.2
			c-2.2,0-3.5,1.7-3.6,3.2H460z"/>
		<path class="st4" d="M468.6,86.2c0.1,1.3,1.1,2.5,3,2.5c1.4,0,2.2-0.8,2.2-1.7c0-0.8-0.5-1.4-1.7-1.6l-2.2-0.5
			c-2.6-0.6-3.9-2.2-3.9-4.3c0-2.5,2.3-4.7,5.4-4.7c4.1,0,5.4,2.6,5.6,4.1l-2.9,0.8c-0.1-0.8-0.8-2.2-2.7-2.2
			c-1.2,0-2.1,0.8-2.1,1.7c0,0.8,0.6,1.3,1.5,1.5l2.2,0.5c2.8,0.6,4.2,2.3,4.2,4.4c0,2.2-1.8,4.7-5.5,4.7c-4.2,0-5.8-2.8-6-4.4
			L468.6,86.2z"/>
		<path class="st4" d="M500.9,86.8c-0.8,2.5-3.1,4.6-6.6,4.6c-4,0-7.5-2.9-7.5-7.8c0-4.6,3.4-7.7,7.1-7.7c4.5,0,7.1,3,7.1,7.6
			c0,0.6-0.1,1-0.1,1.1h-10.7c0.1,2.2,1.8,3.8,4,3.8c2.1,0,3.2-1.1,3.7-2.5L500.9,86.8z M497.6,82.1c-0.1-1.7-1.2-3.2-3.6-3.2
			c-2.2,0-3.4,1.7-3.6,3.2H497.6z"/>
		<path class="st4" d="M507.6,83.6l-5.2-7.2h4.1c0.3,0.4,2.9,4.3,3.2,4.7l3.2-4.7h4l-5.1,7.2l5.3,7.4H513l-3.4-4.9
			c-0.3,0.4-3,4.4-3.3,4.9h-4L507.6,83.6z"/>
		<path class="st4" d="M524.3,76.4h3v3.1h-3v6.8c0,1.3,0.6,1.8,1.9,1.8c0.5,0,1.1-0.1,1.2-0.1v2.9c-0.2,0.1-0.9,0.3-2.1,0.3
			c-2.7,0-4.4-1.6-4.4-4.4v-7.3h-2.7v-3.1h0.8c1.6,0,2.2-1,2.2-2.3v-2.2h3.2V76.4z"/>
		<path class="st4" d="M543.6,86.8c-0.8,2.5-3.1,4.6-6.6,4.6c-4,0-7.5-2.9-7.5-7.8c0-4.6,3.4-7.7,7.1-7.7c4.5,0,7.1,3,7.1,7.6
			c0,0.6-0.1,1-0.1,1.1H533c0.1,2.2,1.8,3.8,4,3.8c2.1,0,3.2-1.1,3.7-2.5L543.6,86.8z M540.3,82.1c-0.1-1.7-1.2-3.2-3.6-3.2
			c-2.2,0-3.4,1.7-3.6,3.2H540.3z M538,74.5h-2.9l2.7-4.4h4.1L538,74.5z"/>
		<path class="st4" d="M555.7,79.8c-0.4-0.1-0.8-0.1-1.1-0.1c-2.7,0-3.9,1.6-3.9,4.3v7h-3.5V76.4h3.4v2.3c0.7-1.6,2.3-2.5,4.2-2.5
			c0.4,0,0.8,0.1,0.9,0.1V79.8z"/>
		<path class="st4" d="M560.3,69c1.3,0,2.3,1,2.3,2.3c0,1.3-1,2.2-2.3,2.2c-1.2,0-2.2-1-2.2-2.2C558.1,70,559.1,69,560.3,69z
			 M558.6,91V76.4h3.5V91H558.6z"/>
		<path class="st4" d="M579.5,86.8c-0.8,2.5-3.1,4.6-6.6,4.6c-4,0-7.5-2.9-7.5-7.8c0-4.6,3.4-7.7,7.1-7.7c4.5,0,7.1,3,7.1,7.6
			c0,0.6-0.1,1-0.1,1.1h-10.7c0.1,2.2,1.8,3.8,4,3.8c2.1,0,3.2-1.1,3.7-2.5L579.5,86.8z M576.2,82.1c-0.1-1.7-1.2-3.2-3.6-3.2
			c-2.2,0-3.5,1.7-3.6,3.2H576.2z"/>
		<path class="st4" d="M588.1,91.4c-3.5,0-5.5-2.6-5.5-5.8v-9.2h3.5V85c0,1.8,0.8,3.3,2.9,3.3c2,0,3.1-1.4,3.1-3.3v-8.6h3.5v11.9
			c0,1.2,0.1,2.1,0.1,2.7h-3.3c-0.1-0.3-0.1-1-0.1-1.6C591.5,90.7,589.8,91.4,588.1,91.4z"/>
		<path class="st4" d="M608.6,79.8c-0.4-0.1-0.8-0.1-1.1-0.1c-2.7,0-3.9,1.6-3.9,4.3v7H600V76.4h3.4v2.3c0.7-1.6,2.3-2.5,4.2-2.5
			c0.4,0,0.8,0.1,0.9,0.1V79.8z"/>
		<path class="st4" d="M613.2,86.2c0.1,1.3,1.1,2.5,3,2.5c1.4,0,2.2-0.8,2.2-1.7c0-0.8-0.5-1.4-1.7-1.6l-2.2-0.5
			c-2.6-0.6-3.9-2.2-3.9-4.3c0-2.5,2.3-4.7,5.4-4.7c4.1,0,5.4,2.6,5.6,4.1l-2.9,0.8c-0.1-0.8-0.8-2.2-2.7-2.2
			c-1.2,0-2.1,0.8-2.1,1.7c0,0.8,0.6,1.3,1.5,1.5l2.2,0.5c2.8,0.6,4.2,2.3,4.2,4.4c0,2.2-1.8,4.7-5.5,4.7c-4.2,0-5.8-2.8-6-4.4
			L613.2,86.2z"/>
		<path class="st4" d="M457.6,121v-13.1h1.9v3c0.6-1.3,1.2-2.2,1.7-2.6s1-0.7,1.6-0.7c0.6,0,1.1,0.2,1.5,0.7s0.6,1.2,0.6,2.1v0.7
			c0.3-0.8,0.6-1.4,0.9-1.9s0.7-0.9,1.1-1.2s0.8-0.4,1.3-0.4c0.6,0,1,0.2,1.4,0.7s0.6,1.4,0.6,2.8v9.9h-1.9V112c0-0.7,0-1.2-0.1-1.5
			s-0.1-0.5-0.3-0.6s-0.3-0.2-0.5-0.2c-0.4,0-0.8,0.3-1.3,0.9s-0.9,1.7-1.4,3.1v7.3h-1.8v-8.9c0-1.2-0.1-1.8-0.3-2s-0.4-0.3-0.6-0.3
			c-0.4,0-0.8,0.3-1.3,1c-0.5,0.7-0.9,1.6-1.3,2.7v7.6H457.6z"/>
		<path class="st4" d="M481.6,118.1c-0.7,1.1-1.5,1.9-2.4,2.5c-0.9,0.6-1.8,0.8-2.6,0.8c-1.1,0-2.1-0.5-2.9-1.4
			c-0.9-0.9-1.3-2.4-1.3-4.3c0-1.5,0.3-2.9,0.9-4.1s1.4-2.1,2.3-2.8s2.2-1,3.6-1c0.4,0,1,0,1.9,0.1c0.1,0,0.3,0,0.6,0.1h2.2v9.2
			c0,1.6,0.2,2.9,0.5,3.8H482C481.9,120.3,481.7,119.3,481.6,118.1z M481.6,115.4v-5.6c-0.8-0.2-1.5-0.3-2.2-0.3
			c-1.3,0-2.5,0.5-3.4,1.6c-0.9,1-1.3,2.5-1.3,4.2c0,1.3,0.2,2.3,0.7,2.9c0.5,0.7,1,1,1.7,1c0.7,0,1.4-0.3,2.3-1
			C480.2,117.5,481,116.6,481.6,115.4z"/>
		<path class="st4" d="M488.5,121v-13.1h2.2v2.9c0.7-1.1,1.5-1.9,2.3-2.4s1.9-0.8,2.9-0.8c0.8,0,1.6,0.1,2.4,0.4v4.7h-2.1v-3
			c-0.4-0.1-0.7-0.1-0.9-0.1c-0.8,0-1.6,0.3-2.4,1s-1.5,1.6-2.3,2.9v7.6H488.5z"/>
		<path class="st4" d="M510.6,118c-0.7,1.1-1.5,1.9-2.4,2.5c-0.9,0.6-1.8,0.8-2.6,0.8c-1.1,0-2.1-0.5-3-1.4s-1.3-2.4-1.3-4.3
			c0-1.5,0.3-2.9,0.9-4.1s1.4-2.1,2.3-2.8s2.2-1,3.6-1c0.4,0,1,0,1.9,0.1c0.1,0,0.3,0,0.6,0.1h2.2v9.3c0,2.2,0,3.5-0.1,4
			s-0.2,1-0.3,1.5c-0.3,1.2-1,2.1-2.1,2.8s-2.5,1-4,1c-1.6,0-3.2-0.4-4.8-1.2V123c0.6,0.4,1.4,0.8,2.3,1.1s1.8,0.5,2.6,0.5
			c0.7,0,1.3-0.1,1.9-0.3s1.1-0.5,1.4-0.9c0.4-0.4,0.6-0.9,0.8-1.4c0.1-0.5,0.2-1.2,0.2-2.1V118z M510.6,115.4v-5.6
			c-0.8-0.2-1.5-0.3-2.2-0.3c-1.3,0-2.5,0.5-3.4,1.6c-0.9,1-1.3,2.5-1.3,4.2c0,1.3,0.2,2.3,0.7,2.9c0.5,0.7,1,1,1.7,1
			c0.7,0,1.4-0.3,2.3-1C509.2,117.5,509.9,116.6,510.6,115.4z"/>
		<path class="st4" d="M519.9,121v-11.3h-3.6v-1.8h5.8v11.3h3.6v1.8H519.9z M519.5,103.2c0-0.5,0.2-0.9,0.5-1.1s0.6-0.4,0.9-0.4
			c0.3,0,0.6,0.1,1,0.4c0.3,0.2,0.5,0.6,0.5,1.1c0,0.5-0.2,0.8-0.5,1.1c-0.3,0.2-0.7,0.4-1,0.4c-0.3,0-0.6-0.1-0.9-0.4
			S519.5,103.6,519.5,103.2z"/>
		<path class="st4" d="M530.6,121v-13.1h2.2v2.9c0.6-1,1.4-1.8,2.3-2.4s1.8-0.9,2.6-0.9c0.8,0,1.5,0.2,2.1,0.6s1.1,0.9,1.3,1.6
			s0.4,2,0.4,3.9v7.3h-2.2v-7.6c0-1.3-0.1-2.1-0.2-2.5s-0.3-0.7-0.7-1s-0.7-0.4-1.1-0.4c-0.8,0-1.6,0.4-2.5,1.1s-1.6,1.6-2.2,2.7
			v7.6H530.6z"/>
	</g>
	<polygon style="fill:none;" points="759.7,-60.2 770.8,-60.2 770.8,-60.2 759.7,-60.2 	"/>
	<g>
		<path class="st4" d="M382.6,195.3v-14.6h3.3v1.9c0.8-1.5,2.7-2.3,4.3-2.3c1.9,0,3.6,0.9,4.4,2.6c1.1-1.9,2.9-2.6,4.7-2.6
			c2.6,0,5.2,1.7,5.2,5.5v9.5h-3.4v-8.9c0-1.7-0.9-3-2.8-3c-1.8,0-3,1.4-3,3.2v8.7h-3.4v-8.9c0-1.7-0.8-3-2.8-3c-1.9,0-3,1.4-3,3.2
			v8.7H382.6z"/>
		<path class="st4" d="M412.3,186.9l3.8-0.6c0.8-0.1,1.1-0.5,1.1-1c0-1.2-0.8-2.2-2.8-2.2c-1.8,0-2.8,1.2-3,2.6l-3.2-0.7
			c0.3-2.5,2.5-4.8,6.1-4.8c4.5,0,6.2,2.6,6.2,5.5v7.3c0,1.3,0.1,2.2,0.2,2.3h-3.2c0-0.1-0.1-0.7-0.1-1.9c-0.7,1.1-2.1,2.3-4.5,2.3
			c-3.1,0-4.9-2.1-4.9-4.4C407.9,188.7,409.8,187.3,412.3,186.9z M417.2,189.2v-0.7l-3.8,0.6c-1.1,0.2-2,0.8-2,2
			c0,1,0.8,1.9,2.1,1.9C415.5,193,417.2,192.1,417.2,189.2z"/>
		<path class="st4" d="M433.3,184.1c-0.4-0.1-0.8-0.1-1.1-0.1c-2.7,0-3.9,1.6-3.9,4.3v7h-3.5v-14.6h3.4v2.3c0.7-1.6,2.3-2.5,4.2-2.5
			c0.4,0,0.8,0.1,0.9,0.1V184.1z"/>
		<path class="st4" d="M438.2,195.3c0.2,1.8,1.6,3.1,3.7,3.1c2.8,0,4.1-1.4,4.1-4.4v-1.5c-0.6,1.1-2.1,2.1-4.2,2.1
			c-3.9,0-6.7-3-6.7-7.1c0-3.9,2.7-7.1,6.7-7.1c2.3,0,3.7,0.9,4.3,2.1v-1.9h3.4v13.2c0,3.9-2,7.5-7.5,7.5c-3.9,0-6.6-2.4-7-5.3
			L438.2,195.3z M446.1,187.5c0-2.5-1.6-4.1-3.7-4.1c-2.2,0-3.8,1.6-3.8,4.1c0,2.5,1.5,4.1,3.8,4.1
			C444.6,191.7,446.1,190.1,446.1,187.5z"/>
		<path class="st4" d="M466.7,191.1c-0.8,2.5-3.1,4.6-6.6,4.6c-4,0-7.5-2.9-7.5-7.8c0-4.6,3.4-7.7,7.1-7.7c4.5,0,7.1,3,7.1,7.6
			c0,0.6-0.1,1-0.1,1.1h-10.7c0.1,2.2,1.8,3.8,4,3.8c2.1,0,3.2-1.1,3.7-2.5L466.7,191.1z M463.4,186.4c-0.1-1.7-1.2-3.2-3.6-3.2
			c-2.2,0-3.4,1.7-3.6,3.2H463.4z"/>
		<path class="st4" d="M471.9,190.5c0.1,1.3,1.1,2.5,3,2.5c1.4,0,2.2-0.8,2.2-1.7c0-0.8-0.5-1.4-1.7-1.6l-2.2-0.5
			c-2.6-0.6-3.9-2.2-3.9-4.3c0-2.5,2.3-4.7,5.4-4.7c4.1,0,5.4,2.6,5.6,4.1l-2.9,0.8c-0.1-0.8-0.8-2.2-2.7-2.2
			c-1.2,0-2.1,0.8-2.1,1.7c0,0.8,0.6,1.3,1.5,1.5l2.2,0.5c2.8,0.6,4.2,2.3,4.2,4.4c0,2.2-1.8,4.7-5.5,4.7c-4.2,0-5.8-2.8-6-4.4
			L471.9,190.5z"/>
		<path class="st4" d="M493.1,173.3c1.3,0,2.3,1,2.3,2.3c0,1.3-1,2.2-2.3,2.2c-1.2,0-2.2-1-2.2-2.2
			C490.8,174.3,491.8,173.3,493.1,173.3z M491.3,195.3v-14.6h3.4v14.6H491.3z"/>
		<path class="st4" d="M502.8,195.3h-3.5v-14.6h3.4v2c1-1.7,2.7-2.4,4.3-2.4c3.6,0,5.3,2.6,5.3,5.8v9.2h-3.5v-8.6
			c0-1.8-0.8-3.2-3-3.2c-2,0-3,1.5-3,3.4V195.3z"/>
		<path class="st4" d="M520.9,180.7h3v3.1h-3v6.8c0,1.3,0.6,1.8,1.9,1.8c0.5,0,1.1-0.1,1.2-0.1v2.9c-0.2,0.1-0.9,0.3-2.1,0.3
			c-2.7,0-4.4-1.6-4.4-4.4v-7.3h-2.7v-3.1h0.8c1.6,0,2.2-1,2.2-2.3v-2.2h3.2V180.7z"/>
		<path class="st4" d="M540.3,191.1c-0.8,2.5-3.1,4.6-6.6,4.6c-4,0-7.5-2.9-7.5-7.8c0-4.6,3.4-7.7,7.1-7.7c4.5,0,7.1,3,7.1,7.6
			c0,0.6-0.1,1-0.1,1.1h-10.7c0.1,2.2,1.8,3.8,4,3.8c2.1,0,3.2-1.1,3.7-2.5L540.3,191.1z M537,186.4c-0.1-1.7-1.2-3.2-3.6-3.2
			c-2.2,0-3.4,1.7-3.6,3.2H537z M534.6,178.9h-2.9l2.7-4.4h4.1L534.6,178.9z"/>
		<path class="st4" d="M552.4,184.1c-0.4-0.1-0.8-0.1-1.1-0.1c-2.7,0-3.9,1.6-3.9,4.3v7h-3.5v-14.6h3.4v2.3c0.7-1.6,2.3-2.5,4.2-2.5
			c0.4,0,0.8,0.1,0.9,0.1V184.1z"/>
		<path class="st4" d="M557,173.3c1.3,0,2.3,1,2.3,2.3c0,1.3-1,2.2-2.3,2.2c-1.2,0-2.2-1-2.2-2.2C554.7,174.3,555.8,173.3,557,173.3
			z M555.3,195.3v-14.6h3.5v14.6H555.3z"/>
		<path class="st4" d="M576.2,191.1c-0.8,2.5-3.1,4.6-6.6,4.6c-4,0-7.5-2.9-7.5-7.8c0-4.6,3.4-7.7,7.1-7.7c4.5,0,7.1,3,7.1,7.6
			c0,0.6-0.1,1-0.1,1.1h-10.7c0.1,2.2,1.8,3.8,4,3.8c2.1,0,3.2-1.1,3.7-2.5L576.2,191.1z M572.8,186.4c-0.1-1.7-1.2-3.2-3.6-3.2
			c-2.2,0-3.5,1.7-3.6,3.2H572.8z"/>
		<path class="st4" d="M584.7,195.7c-3.5,0-5.5-2.6-5.5-5.8v-9.2h3.5v8.6c0,1.8,0.8,3.3,2.9,3.3c2,0,3.1-1.4,3.1-3.3v-8.6h3.5v11.9
			c0,1.2,0.1,2.1,0.1,2.7H589c-0.1-0.3-0.1-1-0.1-1.6C588.2,195,586.4,195.7,584.7,195.7z"/>
		<path class="st4" d="M605.2,184.1c-0.4-0.1-0.8-0.1-1.1-0.1c-2.7,0-3.9,1.6-3.9,4.3v7h-3.5v-14.6h3.4v2.3c0.7-1.6,2.3-2.5,4.2-2.5
			c0.4,0,0.8,0.1,0.9,0.1V184.1z"/>
		<path class="st4" d="M609.9,190.5c0.1,1.3,1.1,2.5,3,2.5c1.4,0,2.2-0.8,2.2-1.7c0-0.8-0.5-1.4-1.7-1.6l-2.2-0.5
			c-2.6-0.6-3.9-2.2-3.9-4.3c0-2.5,2.3-4.7,5.4-4.7c4.1,0,5.4,2.6,5.6,4.1l-2.9,0.8c-0.1-0.8-0.8-2.2-2.7-2.2
			c-1.2,0-2.1,0.8-2.1,1.7c0,0.8,0.6,1.3,1.5,1.5l2.2,0.5c2.8,0.6,4.2,2.3,4.2,4.4c0,2.2-1.8,4.7-5.5,4.7c-4.2,0-5.8-2.8-6-4.4
			L609.9,190.5z"/>
		<path class="st4" d="M453.4,215.2c0.7-1.1,1.5-1.9,2.4-2.5c0.9-0.6,1.8-0.8,2.6-0.8c1.1,0,2.1,0.5,3,1.4s1.3,2.4,1.3,4.3
			c0,1.5-0.3,2.9-0.9,4.1s-1.4,2.1-2.3,2.8s-2.2,1-3.6,1c-0.4,0-1,0-1.9-0.1c-0.1,0-0.3,0-0.6-0.1v5.1h-2.2v-18.2h2.2V215.2z
			 M453.4,217.8v5.6c0.8,0.2,1.5,0.3,2.2,0.3c1.3,0,2.4-0.5,3.3-1.6c0.9-1,1.4-2.5,1.4-4.3c0-1.3-0.2-2.3-0.7-2.9
			c-0.5-0.7-1.1-1-1.7-1c-0.7,0-1.4,0.3-2.2,1S454.1,216.6,453.4,217.8z"/>
		<path class="st4" d="M474.4,222.4c-0.7,1.1-1.5,1.9-2.4,2.5c-0.9,0.6-1.8,0.8-2.6,0.8c-1.1,0-2.1-0.5-2.9-1.4
			c-0.9-0.9-1.3-2.4-1.3-4.3c0-1.5,0.3-2.9,0.9-4.1c0.6-1.2,1.4-2.1,2.3-2.8c1-0.7,2.2-1,3.6-1c0.4,0,1,0,1.9,0.1
			c0.1,0,0.3,0,0.6,0.1h2.2v9.2c0,1.6,0.2,2.9,0.5,3.8h-2.3C474.7,224.6,474.5,223.6,474.4,222.4z M474.4,219.8v-5.6
			c-0.8-0.2-1.5-0.3-2.2-0.3c-1.3,0-2.5,0.5-3.4,1.6c-0.9,1-1.3,2.5-1.3,4.2c0,1.3,0.2,2.3,0.7,2.9c0.5,0.7,1,1,1.7,1
			c0.7,0,1.4-0.3,2.3-1S473.8,220.9,474.4,219.8z"/>
		<path class="st4" d="M489,222.4c-0.7,1.1-1.5,1.9-2.4,2.5c-0.9,0.6-1.8,0.8-2.6,0.8c-1.1,0-2.1-0.5-3-1.4
			c-0.9-0.9-1.3-2.4-1.3-4.3c0-1.5,0.3-2.9,0.9-4.1s1.4-2.1,2.3-2.8c1-0.7,2.2-1,3.6-1c0.4,0,1,0,1.9,0.1c0.1,0,0.3,0,0.6,0.1v-5.8
			h2.2v18.9H489V222.4z M489,219.8v-5.6c-0.8-0.2-1.5-0.3-2.2-0.3c-1.3,0-2.5,0.5-3.4,1.6c-0.9,1-1.3,2.5-1.3,4.2
			c0,1.3,0.2,2.3,0.7,2.9c0.5,0.7,1,1,1.7,1c0.7,0,1.4-0.3,2.3-1S488.3,220.9,489,219.8z"/>
		<path class="st4" d="M503.4,222.4c-0.7,1.1-1.5,1.9-2.4,2.5c-0.9,0.6-1.8,0.8-2.6,0.8c-1.1,0-2.1-0.5-3-1.4
			c-0.9-0.9-1.3-2.4-1.3-4.3c0-1.5,0.3-2.9,0.9-4.1s1.4-2.1,2.3-2.8c1-0.7,2.2-1,3.6-1c0.4,0,1,0,1.9,0.1c0.1,0,0.3,0,0.6,0.1v-5.8
			h2.2v18.9h-2.2V222.4z M503.4,219.8v-5.6c-0.8-0.2-1.5-0.3-2.2-0.3c-1.3,0-2.5,0.5-3.4,1.6c-0.9,1-1.3,2.5-1.3,4.2
			c0,1.3,0.2,2.3,0.7,2.9c0.5,0.7,1,1,1.7,1c0.7,0,1.4-0.3,2.3-1S502.7,220.9,503.4,219.8z"/>
		<path class="st4" d="M512.7,225.3V214h-3.6v-1.8h5.8v11.3h3.6v1.8H512.7z M512.3,207.5c0-0.5,0.2-0.9,0.5-1.1s0.6-0.4,0.9-0.4
			c0.3,0,0.6,0.1,1,0.4c0.3,0.2,0.5,0.6,0.5,1.1c0,0.5-0.2,0.8-0.5,1.1c-0.3,0.2-0.7,0.4-1,0.4c-0.3,0-0.6-0.1-0.9-0.4
			S512.3,208,512.3,207.5z"/>
		<path class="st4" d="M523.4,225.3v-13.1h2.2v2.9c0.6-1,1.4-1.8,2.3-2.4s1.8-0.9,2.6-0.9c0.8,0,1.5,0.2,2.1,0.6s1.1,0.9,1.3,1.6
			s0.4,2,0.4,3.9v7.3h-2.2v-7.6c0-1.3-0.1-2.1-0.2-2.5s-0.3-0.7-0.7-1s-0.7-0.4-1.1-0.4c-0.8,0-1.6,0.4-2.5,1.1s-1.6,1.6-2.2,2.7
			v7.6H523.4z"/>
		<path class="st4" d="M546.6,222.4c-0.7,1.1-1.5,1.9-2.4,2.5s-1.8,0.8-2.6,0.8c-1.1,0-2.1-0.5-3-1.4s-1.3-2.4-1.3-4.3
			c0-1.5,0.3-2.9,0.9-4.1s1.4-2.1,2.3-2.8s2.2-1,3.6-1c0.4,0,1,0,1.9,0.1c0.1,0,0.3,0,0.6,0.1h2.2v9.3c0,2.2,0,3.5-0.1,4
			s-0.2,1-0.3,1.5c-0.3,1.2-1,2.1-2.1,2.8c-1.1,0.7-2.5,1-4,1c-1.6,0-3.2-0.4-4.8-1.2v-2.2c0.6,0.4,1.4,0.8,2.3,1.1s1.8,0.5,2.6,0.5
			c0.7,0,1.3-0.1,1.9-0.3s1.1-0.5,1.4-0.9c0.4-0.4,0.6-0.9,0.8-1.4c0.1-0.5,0.2-1.2,0.2-2.1V222.4z M546.6,219.8v-5.6
			c-0.8-0.2-1.5-0.3-2.2-0.3c-1.3,0-2.5,0.5-3.4,1.6c-0.9,1-1.3,2.5-1.3,4.2c0,1.3,0.2,2.3,0.7,2.9c0.5,0.7,1,1,1.7,1
			c0.7,0,1.4-0.3,2.3-1C545.2,221.9,545.9,220.9,546.6,219.8z"/>
	</g>
	<g>
		<path class="st4" d="M448.4,285.4c0,2.9,1.9,4.6,4.1,4.6c2.3,0,3.3-1.6,3.7-2.7l3.1,1.1c-0.7,2.3-2.9,4.8-6.7,4.8
			c-4.3,0-7.6-3.3-7.6-7.8c0-4.5,3.3-7.7,7.5-7.7c3.9,0,6.1,2.5,6.7,4.8l-3.1,1.1c-0.3-1.3-1.3-2.7-3.5-2.7
			C450.3,280.9,448.4,282.5,448.4,285.4z"/>
		<path class="st4" d="M476.2,285.4c0,4.5-3.2,7.8-7.6,7.8c-4.3,0-7.6-3.3-7.6-7.8c0-4.5,3.2-7.7,7.6-7.7
			C473,277.7,476.2,281,476.2,285.4z M472.7,285.4c0-3-1.9-4.6-4.1-4.6c-2.1,0-4.1,1.6-4.1,4.6c0,3,1.9,4.6,4.1,4.6
			C470.8,290.1,472.7,288.5,472.7,285.4z"/>
		<path class="st4" d="M483,292.8h-3.5v-14.6h3.4v2c1-1.7,2.7-2.4,4.3-2.4c3.6,0,5.3,2.6,5.3,5.8v9.2h-3.5v-8.6c0-1.8-0.8-3.2-3-3.2
			c-2,0-3,1.5-3,3.4V292.8z"/>
		<path class="st4" d="M501.2,278.2h3v3.1h-3v6.8c0,1.3,0.6,1.8,1.9,1.8c0.5,0,1.1-0.1,1.2-0.1v2.9c-0.2,0.1-0.9,0.3-2.1,0.3
			c-2.7,0-4.4-1.6-4.4-4.4v-7.3H495v-3.1h0.8c1.6,0,2.2-1,2.2-2.3v-2.2h3.1V278.2z"/>
		<path class="st4" d="M520.6,288.6c-0.8,2.5-3.1,4.6-6.6,4.6c-4,0-7.5-2.9-7.5-7.8c0-4.6,3.4-7.7,7.1-7.7c4.5,0,7.1,3,7.1,7.6
			c0,0.6-0.1,1-0.1,1.1H510c0.1,2.2,1.8,3.8,4,3.8c2.1,0,3.2-1.1,3.7-2.5L520.6,288.6z M517.2,283.9c-0.1-1.7-1.2-3.2-3.6-3.2
			c-2.2,0-3.4,1.7-3.6,3.2H517.2z"/>
		<path class="st4" d="M527.6,292.8h-3.5v-14.6h3.4v2c1-1.7,2.7-2.4,4.3-2.4c3.6,0,5.3,2.6,5.3,5.8v9.2h-3.5v-8.6
			c0-1.8-0.8-3.2-3-3.2c-2,0-3,1.5-3,3.4V292.8z"/>
		<path class="st4" d="M546.5,293.2c-3.5,0-5.5-2.6-5.5-5.8v-9.2h3.5v8.6c0,1.8,0.8,3.3,2.9,3.3c2,0,3.1-1.4,3.1-3.3v-8.6h3.5v11.9
			c0,1.2,0.1,2.1,0.2,2.7h-3.3c-0.1-0.3-0.1-1-0.1-1.6C549.9,292.5,548.2,293.2,546.5,293.2z"/>
		<path class="st4" d="M401.6,322.8l-2.1-13.1h2l1.2,8l0.3,1.9l0.3-1.9l2.1-8h2l2.4,8l0.4,1.9l0.3-1.9l1.3-8h1.7l-2.1,13.1h-2
			l-2.5-8.4l-0.4-1.9h-0.1l-0.4,1.8l-2.2,8.4H401.6z"/>
		<path class="st4" d="M419.1,322.8v-11.3h-3.6v-1.8h5.8V321h3.6v1.8H419.1z M418.7,304.9c0-0.5,0.2-0.9,0.5-1.1
			c0.3-0.2,0.6-0.4,0.9-0.4c0.3,0,0.6,0.1,1,0.4s0.5,0.6,0.5,1.1c0,0.5-0.2,0.8-0.5,1.1s-0.7,0.4-1,0.4c-0.3,0-0.6-0.1-0.9-0.4
			C418.9,305.8,418.7,305.4,418.7,304.9z"/>
		<path class="st4" d="M438.6,319.8c-0.7,1.1-1.5,1.9-2.4,2.5c-0.9,0.6-1.8,0.8-2.6,0.8c-1.1,0-2.1-0.5-3-1.4
			c-0.9-0.9-1.3-2.4-1.3-4.3c0-1.5,0.3-2.9,0.9-4.1s1.4-2.1,2.3-2.8c1-0.7,2.2-1,3.6-1c0.4,0,1,0,1.9,0.1c0.1,0,0.3,0,0.6,0.1v-5.8
			h2.2v18.9h-2.2V319.8z M438.6,317.2v-5.6c-0.8-0.2-1.5-0.3-2.2-0.3c-1.3,0-2.5,0.5-3.4,1.6c-0.9,1-1.3,2.5-1.3,4.2
			c0,1.3,0.2,2.3,0.7,2.9c0.5,0.7,1,1,1.7,1c0.7,0,1.4-0.3,2.3-1S437.9,318.4,438.6,317.2z"/>
		<path class="st4" d="M455.2,322.2c-1,0.4-1.8,0.7-2.2,0.8s-0.9,0.1-1.3,0.1c-0.9,0-1.8-0.2-2.5-0.5s-1.3-0.9-1.7-1.6
			s-0.6-1.8-0.6-3.2v-5.3h-3.3v-1.8h3.3v-5.3h2.2v5.3h5.8v1.8H449v5.2c0,1.1,0.1,1.8,0.4,2.2s0.6,0.8,1,1s0.9,0.3,1.5,0.3
			c1.1,0,2.2-0.3,3.3-1V322.2z"/>
		<path class="st4" d="M458.6,322.8v-18.9h2.2v8.7c0.6-1,1.4-1.8,2.3-2.4s1.8-0.9,2.6-0.9c0.7,0,1.4,0.2,2,0.6s1,0.8,1.3,1.4
			c0.2,0.4,0.3,0.9,0.4,1.3s0.1,1.4,0.1,2.9v7.3h-2.2v-7.6c0-1.3-0.1-2.1-0.2-2.5s-0.3-0.7-0.7-1s-0.7-0.4-1.1-0.4
			c-0.8,0-1.6,0.4-2.5,1.1s-1.6,1.6-2.2,2.7v7.6H458.6z"/>
		<path class="st4" d="M497.8,322.8l-5-5.1l-5,5.1l-1.3-1.3l5.1-5.1l-5.1-5.1l1.3-1.2l5,5l5-5l1.3,1.2l-5.1,5.1l5.1,5.1L497.8,322.8
			z"/>
		<path class="st4" d="M516.2,322.8v-18.9h2.2v8.7c0.6-1,1.4-1.8,2.3-2.4s1.8-0.9,2.6-0.9c0.7,0,1.4,0.2,2,0.6s1,0.8,1.3,1.4
			c0.2,0.4,0.3,0.9,0.4,1.3s0.1,1.4,0.1,2.9v7.3h-2.2v-7.6c0-1.3-0.1-2.1-0.2-2.5s-0.3-0.7-0.7-1s-0.7-0.4-1.1-0.4
			c-0.8,0-1.6,0.4-2.5,1.1s-1.6,1.6-2.2,2.7v7.6H516.2z"/>
		<path class="st4" d="M541.5,321.9c-1.7,0.8-3.4,1.2-4.9,1.2c-1.2,0-2.2-0.3-3.2-0.9s-1.7-1.4-2.2-2.5s-0.8-2.3-0.8-3.5
			c0-1.2,0.3-2.3,0.8-3.4s1.3-2,2.2-2.6c1-0.6,2-0.9,3.2-0.9c1.6,0,2.8,0.6,3.7,1.7c0.9,1.1,1.4,2.8,1.4,5.1v0.5h-9
			c0,0.9,0.2,1.7,0.6,2.5c0.4,0.8,0.9,1.3,1.5,1.7s1.3,0.6,2.1,0.6c1.4,0,3-0.5,4.7-1.4V321.9z M532.8,314.9h6.5v-0.3
			c0-1.1-0.3-1.9-0.8-2.5s-1.2-0.9-2.1-0.9c-0.9,0-1.6,0.3-2.3,1S533.1,313.7,532.8,314.9z"/>
		<path class="st4" d="M548.7,322.8v-11.3h-3.6v-1.8h5.8V321h3.6v1.8H548.7z M548.3,304.9c0-0.5,0.2-0.9,0.5-1.1
			c0.3-0.2,0.6-0.4,0.9-0.4c0.3,0,0.6,0.1,1,0.4s0.5,0.6,0.5,1.1c0,0.5-0.2,0.8-0.5,1.1s-0.7,0.4-1,0.4c-0.3,0-0.6-0.1-0.9-0.4
			C548.5,305.8,548.3,305.4,548.3,304.9z"/>
		<path class="st4" d="M568.2,319.8c-0.7,1.1-1.5,1.9-2.4,2.5s-1.8,0.8-2.6,0.8c-1.1,0-2.1-0.5-3-1.4c-0.9-0.9-1.3-2.4-1.3-4.3
			c0-1.5,0.3-2.9,0.9-4.1s1.4-2.1,2.3-2.8s2.2-1,3.6-1c0.4,0,1,0,1.9,0.1c0.1,0,0.3,0,0.6,0.1h2.2v9.3c0,2.2,0,3.5-0.1,4
			s-0.2,1-0.3,1.5c-0.3,1.2-1,2.1-2.1,2.8c-1.1,0.7-2.5,1-4,1c-1.6,0-3.2-0.4-4.8-1.2v-2.2c0.6,0.4,1.4,0.8,2.3,1.1s1.8,0.5,2.6,0.5
			c0.7,0,1.3-0.1,1.9-0.3s1.1-0.5,1.4-0.9c0.4-0.4,0.6-0.9,0.8-1.4c0.1-0.5,0.2-1.2,0.2-2.1V319.8z M568.2,317.2v-5.6
			c-0.8-0.2-1.5-0.3-2.2-0.3c-1.3,0-2.5,0.5-3.4,1.6c-0.9,1-1.3,2.5-1.3,4.2c0,1.3,0.2,2.3,0.7,2.9s1,1,1.7,1c0.7,0,1.4-0.3,2.3-1
			C566.8,319.3,567.5,318.4,568.2,317.2z"/>
		<path class="st4" d="M573.8,322.8v-18.9h2.2v8.7c0.6-1,1.4-1.8,2.3-2.4s1.8-0.9,2.6-0.9c0.7,0,1.4,0.2,2,0.6s1,0.8,1.3,1.4
			c0.2,0.4,0.3,0.9,0.4,1.3s0.1,1.4,0.1,2.9v7.3h-2.2v-7.6c0-1.3-0.1-2.1-0.2-2.5s-0.3-0.7-0.7-1s-0.7-0.4-1.1-0.4
			c-0.8,0-1.6,0.4-2.5,1.1s-1.6,1.6-2.2,2.7v7.6H573.8z"/>
		<path class="st4" d="M599.2,322.2c-1,0.4-1.8,0.7-2.2,0.8s-0.9,0.1-1.3,0.1c-0.9,0-1.8-0.2-2.5-0.5s-1.3-0.9-1.7-1.6
			s-0.6-1.8-0.6-3.2v-5.3h-3.3v-1.8h3.3v-5.3h2.2v5.3h5.8v1.8H593v5.2c0,1.1,0.1,1.8,0.4,2.2s0.6,0.8,1,1s0.9,0.3,1.5,0.3
			c1.1,0,2.2-0.3,3.3-1V322.2z"/>
	</g>
	<rect x="147" y="146.5" class="st15" width="163.3" height="75"/>
	<g>
		<path class="st4" d="M171.6,177v-21.7h3.4v8.9c0.7-1.1,2.3-2.2,4.6-2.2c4.4,0,6.7,3.3,6.7,7.6c0,4.4-2.6,7.7-6.9,7.7
			c-2.1,0-3.7-0.9-4.5-2.3v1.9H171.6z M179,165.1c-2.2,0-3.9,1.6-3.9,4.6c0,2.9,1.7,4.6,3.9,4.6c2.3,0,3.9-1.7,3.9-4.6
			C182.9,166.7,181.3,165.1,179,165.1z"/>
		<path class="st4" d="M203.8,169.7c0,4.5-3.2,7.8-7.6,7.8c-4.3,0-7.6-3.3-7.6-7.8c0-4.5,3.2-7.7,7.6-7.7
			C200.6,161.9,203.8,165.2,203.8,169.7z M200.3,169.7c0-3-1.9-4.6-4.1-4.6c-2.1,0-4.1,1.6-4.1,4.6c0,3,1.9,4.6,4.1,4.6
			C198.3,174.3,200.3,172.7,200.3,169.7z"/>
		<path class="st4" d="M215.7,165.8c-0.4-0.1-0.8-0.1-1.1-0.1c-2.7,0-3.9,1.6-3.9,4.3v7h-3.5v-14.6h3.4v2.3c0.7-1.6,2.3-2.5,4.2-2.5
			c0.4,0,0.8,0.1,0.9,0.1V165.8z"/>
		<path class="st4" d="M231.9,174.3c0,1.3,0.1,2.4,0.1,2.7h-3.3c-0.1-0.3-0.1-1.3-0.1-1.9c-0.7,1.2-2.2,2.2-4.3,2.2
			c-4.2,0-7-3.3-7-7.7c0-4.2,2.9-7.6,7-7.6c2.5,0,3.8,1.2,4.3,2.1v-8.8h3.4V174.3z M224.7,174.3c2.3,0,3.9-1.9,3.9-4.7
			c0-2.8-1.6-4.5-3.8-4.5c-2.3,0-4,1.8-4,4.6S222.3,174.3,224.7,174.3z"/>
		<path class="st4" d="M241.8,177.4c-3.5,0-5.5-2.6-5.5-5.8v-9.2h3.5v8.6c0,1.8,0.8,3.3,2.9,3.3c2,0,3.1-1.4,3.1-3.3v-8.6h3.5v11.9
			c0,1.2,0.1,2.1,0.1,2.7H246c-0.1-0.3-0.1-1-0.1-1.6C245.2,176.7,243.5,177.4,241.8,177.4z"/>
		<path class="st4" d="M262.3,165.8c-0.4-0.1-0.8-0.1-1.1-0.1c-2.7,0-3.9,1.6-3.9,4.3v7h-3.5v-14.6h3.4v2.3c0.7-1.6,2.3-2.5,4.2-2.5
			c0.4,0,0.8,0.1,0.9,0.1V165.8z"/>
		<path class="st4" d="M278,172.8c-0.8,2.5-3.1,4.6-6.6,4.6c-4,0-7.5-2.9-7.5-7.8c0-4.6,3.4-7.7,7.1-7.7c4.5,0,7.1,3,7.1,7.6
			c0,0.6-0.1,1-0.1,1.1h-10.7c0.1,2.2,1.8,3.8,4,3.8c2.1,0,3.2-1.1,3.7-2.5L278,172.8z M274.6,168.1c-0.1-1.7-1.2-3.2-3.6-3.2
			c-2.2,0-3.4,1.7-3.6,3.2H274.6z"/>
		<path class="st4" d="M283.2,172.2c0.1,1.3,1.1,2.5,3,2.5c1.4,0,2.2-0.8,2.2-1.7c0-0.8-0.5-1.4-1.7-1.6l-2.2-0.5
			c-2.6-0.6-3.9-2.2-3.9-4.3c0-2.5,2.3-4.7,5.4-4.7c4.1,0,5.4,2.6,5.6,4.1l-2.9,0.8c-0.1-0.8-0.8-2.2-2.7-2.2
			c-1.2,0-2.1,0.8-2.1,1.7c0,0.8,0.6,1.3,1.5,1.5l2.2,0.5c2.8,0.6,4.2,2.3,4.2,4.4c0,2.2-1.8,4.7-5.5,4.7c-4.2,0-5.8-2.8-6-4.4
			L283.2,172.2z"/>
		<path class="st4" d="M191.8,196.9c0.7-1.1,1.5-1.9,2.4-2.5c0.9-0.6,1.8-0.8,2.6-0.8c1.1,0,2.1,0.5,3,1.4s1.3,2.4,1.3,4.3
			c0,1.5-0.3,2.9-0.9,4.1s-1.4,2.1-2.3,2.8s-2.2,1-3.6,1c-0.4,0-1,0-1.9-0.1c-0.1,0-0.3,0-0.6-0.1h-2.2v-18.9h2.2V196.9z
			 M191.8,199.5v5.6c0.8,0.2,1.5,0.3,2.2,0.3c1.3,0,2.4-0.5,3.3-1.6c0.9-1,1.4-2.5,1.4-4.3c0-1.3-0.2-2.3-0.7-2.9
			c-0.5-0.7-1.1-1-1.7-1c-0.7,0-1.4,0.3-2.2,1S192.4,198.3,191.8,199.5z"/>
		<path class="st4" d="M209.6,207.4c-1.9,0-3.4-0.7-4.5-2c-1.1-1.3-1.7-3-1.7-5s0.6-3.6,1.7-4.9c1.1-1.3,2.6-2,4.5-2
			c1.9,0,3.4,0.7,4.5,2s1.7,3,1.7,4.9s-0.6,3.6-1.7,5S211.4,207.4,209.6,207.4z M209.6,205.6c1.2,0,2.1-0.5,2.8-1.4s1-2.2,1-3.7
			c0-1.6-0.3-2.8-1-3.7s-1.6-1.4-2.8-1.4c-1.2,0-2.1,0.5-2.8,1.4c-0.7,0.9-1,2.1-1,3.7c0,1.6,0.3,2.8,1,3.7
			C207.5,205.1,208.4,205.6,209.6,205.6z"/>
		<path class="st4" d="M219.7,207v-13.1h2.2v2.9c0.7-1.1,1.5-1.9,2.3-2.4s1.9-0.8,2.9-0.8c0.8,0,1.6,0.1,2.4,0.4v4.7h-2.1v-3
			c-0.4-0.1-0.7-0.1-0.9-0.1c-0.8,0-1.6,0.3-2.4,1s-1.5,1.6-2.3,2.9v7.6H219.7z"/>
		<path class="st4" d="M241.7,204.1c-0.7,1.1-1.5,1.9-2.4,2.5c-0.9,0.6-1.8,0.8-2.6,0.8c-1.1,0-2.1-0.5-3-1.4
			c-0.9-0.9-1.3-2.4-1.3-4.3c0-1.5,0.3-2.9,0.9-4.1s1.4-2.1,2.3-2.8c1-0.7,2.2-1,3.6-1c0.4,0,1,0,1.9,0.1c0.1,0,0.3,0,0.6,0.1v-5.8
			h2.2V207h-2.2V204.1z M241.7,201.5v-5.6c-0.8-0.2-1.5-0.3-2.2-0.3c-1.3,0-2.5,0.5-3.4,1.6c-0.9,1-1.3,2.5-1.3,4.2
			c0,1.3,0.2,2.3,0.7,2.9c0.5,0.7,1,1,1.7,1c0.7,0,1.4-0.3,2.3-1S241.1,202.6,241.7,201.5z"/>
		<path class="st4" d="M258.3,206.1c-1.7,0.8-3.4,1.2-4.9,1.2c-1.2,0-2.2-0.3-3.2-0.9s-1.7-1.4-2.2-2.5s-0.8-2.3-0.8-3.5
			c0-1.2,0.3-2.3,0.8-3.4s1.3-2,2.2-2.6c1-0.6,2-0.9,3.2-0.9c1.6,0,2.8,0.6,3.7,1.7c0.9,1.1,1.4,2.8,1.4,5.1v0.5h-9
			c0,0.9,0.2,1.7,0.6,2.5c0.4,0.8,0.9,1.3,1.5,1.7s1.3,0.6,2.1,0.6c1.4,0,3-0.5,4.7-1.4V206.1z M249.6,199.2h6.5v-0.3
			c0-1.1-0.3-1.9-0.8-2.5s-1.2-0.9-2.1-0.9c-0.9,0-1.6,0.3-2.3,1S249.8,197.9,249.6,199.2z"/>
		<path class="st4" d="M262.9,207v-13.1h2.2v2.9c0.7-1.1,1.5-1.9,2.3-2.4s1.9-0.8,2.9-0.8c0.8,0,1.6,0.1,2.4,0.4v4.7h-2.1v-3
			c-0.4-0.1-0.7-0.1-0.9-0.1c-0.8,0-1.6,0.3-2.4,1s-1.5,1.6-2.3,2.9v7.6H262.9z"/>
	</g>
</g>
</svg>
