<?xml version="1.0" encoding="utf-8"?>
<!-- Generator: Adobe Illustrator 24.1.0, SVG Export Plug-In . SVG Version: 6.00 Build 0)  -->
<svg version="1.1" xmlns="http://www.w3.org/2000/svg" xmlns:xlink="http://www.w3.org/1999/xlink" x="0px" y="0px"
	 viewBox="0 0 1005.2 898.5" style="enable-background:new 0 0 1005.2 898.5;" xml:space="preserve">
<style type="text/css">
	.st0{fill:#FFFFFF;stroke:#000000;stroke-width:1.0363;stroke-miterlimit:10;}
	.st1{opacity:0.25;fill:#2AC6FF;}
	.st2{fill:#2AC6FF;}
	.st3{fill:#FFFFFF;}
	.st4{fill:none;stroke:#FF9900;stroke-width:5;stroke-miterlimit:10;}
	.st5{fill:#FF9900;}
</style>
<g id="Layer_1">
</g>
<g id="Layer_2">
	<rect x="40.1" y="40.4" class="st0" width="925" height="671.9"/>
	<rect x="105.7" y="40.4" class="st1" width="793.7" height="673.1"/>
	<rect x="105.7" y="40.4" class="st1" width="170.1" height="673.1"/>
	<rect x="729.4" y="40.4" class="st1" width="170.1" height="673.1"/>
	<rect x="313.6" y="40.4" class="st1" width="377.6" height="673.1"/>
	<rect x="314" y="78.8" class="st2" width="376.9" height="271"/>
	<path class="st3" d="M558.4,162.7H446.5c-7.1,0-12.9,5.8-12.9,12.9V253c0,7.1,5.8,12.9,12.9,12.9h111.9c7.1,0,12.9-5.8,12.9-12.9
		v-77.4C571.3,168.4,565.5,162.7,558.4,162.7z M562.7,253c0,2.4-1.9,4.3-4.3,4.3H446.5c-2.4,0-4.3-1.9-4.3-4.3v-77.4
		c0-2.4,1.9-4.3,4.3-4.3h111.9c2.4,0,4.3,1.9,4.3,4.3V253z M463.7,207.8c8.3,0,15.1-6.7,15.1-15.1s-6.7-15.1-15.1-15.1
		s-15.1,6.7-15.1,15.1S455.4,207.8,463.7,207.8z M463.7,186.3c3.6,0,6.5,2.9,6.5,6.5c0,3.6-2.9,6.5-6.5,6.5s-6.5-2.9-6.5-6.5
		C457.3,189.2,460.2,186.3,463.7,186.3z M519.4,192.5l-25.6,25.6l-8.3-8.3c-2.5-2.5-6.6-2.5-9.1,0l-23.7,23.7
		c-1.2,1.2-1.9,2.9-1.9,4.6v7.5c0,1.8,1.4,3.2,3.2,3.2h96.8c1.8,0,3.2-1.4,3.2-3.2v-24.7c0-1.7-0.7-3.4-1.9-4.6l-23.7-23.7
		C526,190,521.9,190,519.4,192.5z M545.5,240.1h-86.1v-1.3l21.5-21.5l12.9,12.9l30.1-30.1l21.5,21.5V240.1z"/>
	<g>
		<g>
			<line class="st4" x1="316.7" y1="761.6" x2="689.5" y2="761.6"/>
			<g>
				<rect x="314.2" y="745.3" class="st5" width="5" height="32.5"/>
			</g>
			<g>
				<rect x="687" y="745.3" class="st5" width="5" height="32.5"/>
			</g>
		</g>
	</g>
	<g>
		<g>
			<line class="st4" x1="110.3" y1="809.9" x2="891.5" y2="809.9"/>
			<g>
				<rect x="107.8" y="793.6" class="st5" width="5" height="32.5"/>
			</g>
			<g>
				<rect x="889" y="793.6" class="st5" width="5" height="32.5"/>
			</g>
		</g>
	</g>
	<g>
		<g>
			<line class="st4" x1="49.7" y1="857.4" x2="955.2" y2="857.4"/>
			<g>
				<rect x="47.2" y="841.2" class="st5" width="5" height="32.5"/>
			</g>
			<g>
				<rect x="952.7" y="841.2" class="st5" width="5" height="32.5"/>
			</g>
		</g>
	</g>
	<g>
		<path class="st5" d="M502.7,846.3v-16H497v-3c3.3-0.1,5.7-1.9,6.2-4.4h3.7v23.3H502.7z"/>
	</g>
	<g>
		<path class="st5" d="M497.5,782.4c0-0.3-0.1-0.9-0.1-1.3c0-4,3-7.7,8.3-7.7c5.1,0,8.2,3.3,8.2,7.3c0,3-1.7,5.5-4.5,7.2l-4.5,2.8
			c-1.1,0.7-2.1,1.5-2.4,2.7h11.6v3.8h-16.9c0.1-4,1.5-7.1,5.5-9.6l3.9-2.4c2.1-1.3,3-2.7,3-4.4c0-1.9-1.3-3.6-3.9-3.6
			c-2.7,0-4.1,1.9-4.1,4.3c0,0.4,0.1,0.8,0.1,1.2L497.5,782.4z"/>
	</g>
	<g>
		<path class="st5" d="M501.9,732.9l6.4-5.8h-10.6v-3.8h16.2v3.6l-6.3,5.5c3.5,0.1,7,2.6,7,7.1c0,4-3.2,7.6-8.7,7.6
			c-5.4,0-8.6-3.5-8.9-7.4l4.2-0.9c0.1,2.7,2.1,4.5,4.6,4.5c2.8,0,4.4-1.8,4.4-4c0-2.7-2.2-3.9-4.1-3.9c-1.1,0-1.8,0.2-2.2,0.4
			L501.9,732.9z"/>
	</g>
</g>
</svg>
