<?xml version="1.0" encoding="utf-8"?>
<!-- Generator: Adobe Illustrator 24.1.0, SVG Export Plug-In . SVG Version: 6.00 Build 0)  -->
<svg version="1.1" id="Layer_1" xmlns="http://www.w3.org/2000/svg" xmlns:xlink="http://www.w3.org/1999/xlink" x="0px" y="0px"
	 viewBox="0 0 1005.2 314.2" style="enable-background:new 0 0 1005.2 314.2;" xml:space="preserve">
<style type="text/css">
	.st0{fill:#FF9900;}
	.st1{fill:#021B9F;}
	.st2{fill:#808080;}
	.st3{fill:none;stroke:#FF9900;stroke-width:5;stroke-miterlimit:10;}
</style>
<g>
	<path class="st0" d="M433.1,212.3c0-8.3,6.2-13.3,12.9-13.3c6.5,0,10.3,3.8,11.5,8.3l-4.1,1.4c-0.8-3.1-3.1-5.6-7.4-5.6
		c-4.2,0-8.4,3.1-8.4,9.3c0,6,4.1,9.1,8.5,9.1c4.3,0,6.7-2.7,7.6-5.6l4,1.3c-1.2,4.3-5,8.5-11.6,8.5
		C439.1,225.5,433.1,220.6,433.1,212.3z"/>
	<path class="st0" d="M477.7,216.2c0,5.4-3.9,9.3-9.1,9.3c-5.2,0-9.1-3.9-9.1-9.3c0-5.4,3.9-9.3,9.1-9.3
		C473.9,206.9,477.7,210.9,477.7,216.2z M473.5,216.2c0-3.6-2.3-5.5-4.9-5.5c-2.6,0-4.9,1.9-4.9,5.5c0,3.6,2.3,5.6,4.9,5.6
		C471.2,221.8,473.5,219.9,473.5,216.2z"/>
	<path class="st0" d="M485.9,225h-4.2v-17.5h4.1v2.3c1.2-2,3.2-2.8,5.2-2.8c4.3,0,6.3,3.1,6.3,6.9V225h-4.2v-10.4
		c0-2.2-1-3.9-3.6-3.9c-2.4,0-3.6,1.8-3.6,4.1V225z"/>
	<path class="st0" d="M507.7,207.5h3.6v3.7h-3.6v8.1c0,1.5,0.7,2.2,2.2,2.2c0.6,0,1.3-0.1,1.4-0.1v3.5c-0.3,0.1-1,0.4-2.6,0.4
		c-3.2,0-5.3-1.9-5.3-5.2v-8.8h-3.2v-3.7h0.9c1.9,0,2.7-1.2,2.7-2.7v-2.6h3.8V207.5z"/>
	<path class="st0" d="M530.9,220c-0.9,3.1-3.7,5.5-7.9,5.5c-4.8,0-9-3.5-9-9.4c0-5.5,4.1-9.2,8.5-9.2c5.4,0,8.6,3.6,8.6,9.1
		c0,0.7-0.1,1.3-0.1,1.3h-12.8c0.1,2.7,2.2,4.6,4.8,4.6c2.5,0,3.8-1.3,4.4-3.1L530.9,220z M527,214.3c-0.1-2.1-1.4-3.9-4.3-3.9
		c-2.6,0-4.1,2-4.3,3.9H527z"/>
	<path class="st0" d="M539.3,225h-4.2v-17.5h4.1v2.3c1.2-2,3.2-2.8,5.2-2.8c4.3,0,6.3,3.1,6.3,6.9V225h-4.2v-10.4
		c0-2.2-1-3.9-3.6-3.9c-2.4,0-3.6,1.8-3.6,4.1V225z"/>
	<path class="st0" d="M562,225.5c-4.2,0-6.6-3.1-6.6-7v-11.1h4.2v10.3c0,2.2,1,4,3.5,4c2.4,0,3.7-1.6,3.7-3.9v-10.4h4.2v14.3
		c0,1.4,0.1,2.6,0.2,3.2h-4c-0.1-0.4-0.1-1.2-0.1-1.9C566.1,224.6,564.1,225.5,562,225.5z"/>
</g>
<g>
	<path d="M72.2,138.4l25.5-12.7v4.1l-17.4,8.7l17.4,8.8v4L72.2,138.4z"/>
	<path class="st1" d="M107,130.8c1.3-2.2,2.9-3.8,4.8-4.9c1.9-1.1,3.6-1.7,5.1-1.7c2.2,0,4.2,0.9,5.9,2.8s2.6,4.8,2.6,8.6
		c0,3-0.6,5.7-1.7,8.1s-2.7,4.3-4.7,5.6s-4.3,2.1-7.2,2.1c-0.8,0-2.1-0.1-3.8-0.3c-0.2,0-0.6-0.1-1.1-0.1v10.2h-4.4v-36.4h4.4V130.8
		z M107,136v11.2c1.6,0.4,3,0.6,4.4,0.6c2.6,0,4.9-1,6.7-3.1c1.8-2.1,2.7-4.9,2.7-8.5c0-2.6-0.5-4.6-1.5-5.9c-1-1.3-2.1-2-3.4-2
		c-1.4,0-2.9,0.7-4.5,2.1S108.3,133.7,107,136z"/>
	<path d="M155.3,138.4l-25.5,12.7v-4l17.4-8.7l-17.4-8.8v-4L155.3,138.4z"/>
	<path class="st2" d="M182.4,150.7c-2.7,1-5.2,1.5-7.3,1.5c-2.8,0-5.5-0.8-7.9-2.3s-4.2-3.8-5.6-6.8s-2-6.4-2-10.2
		c0-3.8,0.7-7.1,2-10.1s3.2-5.3,5.6-6.8s5-2.3,7.9-2.3c2.2,0,4.6,0.5,7.3,1.5v4.3c-2.5-1.5-5-2.2-7.5-2.2c-1.9,0-3.6,0.6-5.1,1.9
		s-2.8,3.2-3.8,5.6s-1.4,5.2-1.4,8.1c0,3,0.5,5.7,1.5,8.2s2.2,4.4,3.8,5.6c1.5,1.2,3.2,1.9,5.1,1.9c2.5,0,5-0.7,7.5-2.2V150.7z"/>
	<path class="st2" d="M211.2,149.3c-3.5,1.6-6.8,2.5-9.9,2.5c-2.4,0-4.5-0.6-6.3-1.8c-1.9-1.2-3.3-2.8-4.5-5s-1.7-4.5-1.7-7
		c0-2.4,0.5-4.7,1.6-6.9s2.5-3.9,4.5-5.1c1.9-1.2,4-1.8,6.4-1.8c3.1,0,5.6,1.1,7.5,3.3c1.9,2.2,2.8,5.6,2.8,10.2v0.9h-18
		c0,1.8,0.4,3.5,1.1,5c0.8,1.5,1.8,2.6,3,3.4c1.2,0.8,2.6,1.1,4.2,1.1c2.8,0,5.9-0.9,9.3-2.8V149.3z M193.7,135.4h13.1v-0.6
		c0-2.1-0.5-3.8-1.6-5.1s-2.4-1.9-4.2-1.9c-1.8,0-3.3,0.6-4.6,1.9S194.3,132.9,193.7,135.4z"/>
	<path class="st2" d="M240.2,150.3c-2.9,1-5.7,1.5-8.3,1.5c-2.6,0-5-0.6-7-1.8s-3.6-2.9-4.8-4.9s-1.7-4.4-1.7-7.1
		c0-4,1.3-7.3,3.9-9.9s5.7-3.9,9.4-3.9c2.7,0,5.6,0.5,8.6,1.5v4.2c-3-1.4-5.8-2.1-8.2-2.1c-1.6,0-3.1,0.4-4.5,1.2s-2.5,2-3.3,3.7
		s-1.1,3.4-1.1,5.2c0,2.4,0.7,4.6,2.2,6.8s3.8,3.2,6.9,3.2c1,0,1.9-0.1,2.8-0.2s2.6-0.6,5.1-1.5V150.3z"/>
	<path class="st2" d="M254.3,151.1v-22.5h-7.3v-3.6h11.6v22.5h7.3v3.6H254.3z M253.6,115.5c0-1,0.3-1.7,1-2.2
		c0.7-0.5,1.3-0.7,1.9-0.7c0.6,0,1.2,0.2,1.9,0.7c0.7,0.5,1,1.2,1,2.2c0,1-0.3,1.7-1,2.2c-0.7,0.5-1.3,0.7-1.9,0.7
		c-0.6,0-1.2-0.2-1.9-0.7C254,117.1,253.6,116.4,253.6,115.5z"/>
	<path class="st2" d="M326.4,149.3c-3.5,1.6-6.8,2.5-9.9,2.5c-2.4,0-4.5-0.6-6.3-1.8c-1.9-1.2-3.3-2.8-4.5-5s-1.7-4.5-1.7-7
		c0-2.4,0.5-4.7,1.6-6.9s2.5-3.9,4.5-5.1c1.9-1.2,4-1.8,6.4-1.8c3.1,0,5.6,1.1,7.5,3.3c1.9,2.2,2.8,5.6,2.8,10.2v0.9h-18
		c0,1.8,0.4,3.5,1.1,5c0.8,1.5,1.8,2.6,3,3.4c1.2,0.8,2.6,1.1,4.2,1.1c2.8,0,5.9-0.9,9.3-2.8V149.3z M309,135.4H322v-0.6
		c0-2.1-0.5-3.8-1.6-5.1s-2.4-1.9-4.2-1.9c-1.8,0-3.3,0.6-4.6,1.9S309.5,132.9,309,135.4z"/>
	<path class="st2" d="M333.7,149.7v-4.6c1.8,1.1,3.6,1.9,5.6,2.4s3.6,0.7,5,0.7c2.2,0,3.8-0.4,4.8-1.1s1.5-1.6,1.5-2.7
		c0-0.7-0.2-1.3-0.7-1.8s-1.6-1.1-3.4-1.9l-1.5-0.6l-3-1.2c-3.2-1.3-5.3-2.4-6.1-3.5c-0.9-1.1-1.3-2.4-1.3-3.9
		c0-2.2,0.8-3.9,2.5-5.3s4.4-2.1,8.1-2.1c2.8,0,5.5,0.4,8,1.2v4c-2.9-1-5.6-1.5-8.1-1.5c-1.8,0-3.3,0.3-4.3,1
		c-1,0.6-1.6,1.5-1.6,2.4c0,0.9,0.5,1.7,1.4,2.2c0.9,0.6,2.3,1.2,4.4,1.9l3,1.1c2.7,1,4.6,2.1,5.7,3.2s1.6,2.6,1.6,4.3
		c0,2.3-0.9,4.1-2.6,5.6s-4.5,2.2-8.4,2.2C340.7,151.8,337.2,151.1,333.7,149.7z"/>
	<path class="st2" d="M384.1,150c-2,0.9-3.5,1.4-4.5,1.5s-1.8,0.2-2.7,0.2c-1.8,0-3.5-0.4-5-1.1s-2.7-1.7-3.4-3.1s-1.2-3.5-1.2-6.4
		v-10.5h-6.5v-3.6h6.5v-10.5h4.4v10.5h11.6v3.6h-11.6v10.5c0,2.1,0.2,3.6,0.8,4.5s1.2,1.5,2,1.9s1.8,0.6,3,0.6c2.1,0,4.3-0.7,6.7-2
		V150z"/>
	<path class="st2" d="M441.4,124.9v26.2H437v-5.7c-1.4,2.2-3,3.8-4.7,4.9s-3.4,1.6-5.2,1.6c-1.5,0-2.9-0.4-4.2-1.2s-2.2-1.9-2.7-3.2
		s-0.8-3.9-0.8-7.8v-14.6h4.4v15.2c0,2.5,0.1,4.2,0.4,5s0.7,1.5,1.3,2s1.3,0.8,2.1,0.8c1.5,0,3.2-0.7,4.9-2.2s3.2-3.3,4.4-5.5v-15.3
		H441.4z"/>
	<path class="st2" d="M448.6,151.1v-26.2h4.4v5.7c1.2-2,2.8-3.6,4.5-4.7s3.5-1.7,5.3-1.7c1.5,0,3,0.4,4.2,1.2s2.2,1.9,2.7,3.2
		s0.8,3.9,0.8,7.8v14.6h-4.4v-15.2c0-2.5-0.1-4.2-0.4-5s-0.7-1.5-1.3-2s-1.4-0.8-2.1-0.8c-1.5,0-3.2,0.7-4.9,2.2s-3.2,3.3-4.3,5.5
		v15.3H448.6z"/>
	<path class="st2" d="M510.3,130.8c1.3-2.2,2.9-3.8,4.8-4.9c1.9-1.1,3.6-1.7,5.1-1.7c2.2,0,4.2,0.9,5.9,2.8s2.6,4.8,2.6,8.6
		c0,3-0.6,5.7-1.7,8.1s-2.7,4.3-4.7,5.6s-4.3,2.1-7.2,2.1c-0.8,0-2.1-0.1-3.8-0.3c-0.2,0-0.6-0.1-1.1-0.1v10.2h-4.4v-36.4h4.4V130.8
		z M510.3,136v11.2c1.6,0.4,3,0.6,4.4,0.6c2.6,0,4.9-1,6.7-3.1c1.8-2.1,2.7-4.9,2.7-8.5c0-2.6-0.5-4.6-1.5-5.9c-1-1.3-2.1-2-3.4-2
		c-1.4,0-2.9,0.7-4.5,2.1S511.6,133.7,510.3,136z"/>
	<path class="st2" d="M552.2,145.2c-1.3,2.2-2.9,3.8-4.8,4.9c-1.9,1.1-3.6,1.7-5.1,1.7c-2.2,0-4.2-0.9-5.9-2.8
		c-1.7-1.9-2.6-4.8-2.6-8.6c0-3,0.6-5.7,1.7-8.1c1.2-2.4,2.7-4.3,4.6-5.6c1.9-1.4,4.3-2.1,7.2-2.1c0.8,0,2.1,0.1,3.7,0.3
		c0.2,0,0.6,0.1,1.1,0.1h4.4v18.5c0,3.2,0.3,5.7,1,7.7h-4.5C552.7,149.7,552.5,147.7,552.2,145.2z M552.3,140v-11.2
		c-1.5-0.4-3-0.6-4.3-0.6c-2.7,0-4.9,1-6.7,3.1c-1.8,2.1-2.7,4.9-2.7,8.5c0,2.6,0.5,4.6,1.5,5.9c1,1.3,2.1,2,3.3,2
		c1.4,0,2.9-0.7,4.5-2.1C549.5,144.2,551,142.3,552.3,140z"/>
	<path class="st2" d="M566.1,151.1v-26.2h4.4v5.7c1.4-2.2,2.9-3.8,4.7-4.8s3.7-1.6,5.9-1.6c1.6,0,3.2,0.2,4.7,0.7v9.4h-4.2v-6
		c-0.7-0.1-1.3-0.2-1.7-0.2c-1.6,0-3.2,0.6-4.8,1.9s-3.1,3.2-4.6,5.8v15.2H566.1z"/>
	<path class="st2" d="M609.9,145.2c-1.3,2.2-2.9,3.8-4.8,4.9c-1.9,1.1-3.6,1.7-5.1,1.7c-2.2,0-4.2-0.9-5.9-2.8
		c-1.7-1.9-2.6-4.8-2.6-8.6c0-3,0.6-5.7,1.7-8.1c1.2-2.4,2.7-4.3,4.6-5.6c1.9-1.4,4.3-2.1,7.2-2.1c0.8,0,2.1,0.1,3.7,0.3
		c0.2,0,0.6,0.1,1.1,0.1h4.4v18.5c0,3.2,0.3,5.7,1,7.7h-4.5C610.3,149.7,610.1,147.7,609.9,145.2z M609.9,140v-11.2
		c-1.5-0.4-3-0.6-4.3-0.6c-2.7,0-4.9,1-6.7,3.1c-1.8,2.1-2.7,4.9-2.7,8.5c0,2.6,0.5,4.6,1.5,5.9c1,1.3,2.1,2,3.3,2
		c1.4,0,2.9-0.7,4.5-2.1C607.1,144.2,608.6,142.3,609.9,140z"/>
	<path class="st2" d="M639,145.2c-1.3,2.2-2.9,3.8-4.8,4.9c-1.9,1.1-3.6,1.7-5.2,1.7c-2.2,0-4.2-0.9-5.9-2.8
		c-1.7-1.9-2.6-4.8-2.6-8.6c0-3,0.6-5.7,1.7-8.1c1.2-2.4,2.7-4.3,4.6-5.6c1.9-1.4,4.3-2.1,7.2-2.1c0.8,0,2.1,0.1,3.7,0.3
		c0.2,0,0.6,0.1,1.1,0.1h4.4v18.5c0,4.4-0.1,7.1-0.2,8.1c-0.1,1-0.3,2-0.6,3c-0.6,2.3-2.1,4.2-4.3,5.5s-4.9,2-8.1,2
		c-3.2,0-6.4-0.8-9.6-2.4v-4.4c1.2,0.8,2.8,1.6,4.6,2.2c1.8,0.6,3.6,1,5.2,1c1.3,0,2.6-0.2,3.8-0.6c1.2-0.4,2.2-1,2.9-1.8
		c0.7-0.8,1.2-1.7,1.5-2.8c0.3-1.1,0.4-2.5,0.4-4.2V145.2z M639,140v-11.2c-1.5-0.4-3-0.6-4.3-0.6c-2.7,0-4.9,1-6.7,3.1
		c-1.8,2.1-2.7,4.9-2.7,8.5c0,2.6,0.5,4.6,1.5,5.9c1,1.3,2.1,2,3.3,2c1.4,0,2.9-0.7,4.5-2.1C636.2,144.2,637.7,142.3,639,140z"/>
	<path class="st2" d="M652.5,151.1v-26.2h4.4v5.7c1.4-2.2,2.9-3.8,4.7-4.8s3.7-1.6,5.9-1.6c1.6,0,3.2,0.2,4.7,0.7v9.4h-4.2v-6
		c-0.7-0.1-1.3-0.2-1.7-0.2c-1.6,0-3.2,0.6-4.8,1.9s-3.1,3.2-4.6,5.8v15.2H652.5z"/>
	<path class="st2" d="M696.3,145.2c-1.3,2.2-2.9,3.8-4.8,4.9c-1.9,1.1-3.6,1.7-5.1,1.7c-2.2,0-4.2-0.9-5.9-2.8
		c-1.7-1.9-2.6-4.8-2.6-8.6c0-3,0.6-5.7,1.7-8.1c1.2-2.4,2.7-4.3,4.6-5.6c1.9-1.4,4.3-2.1,7.2-2.1c0.8,0,2.1,0.1,3.7,0.3
		c0.2,0,0.6,0.1,1.1,0.1h4.4v18.5c0,3.2,0.3,5.7,1,7.7h-4.5C696.8,149.7,696.5,147.7,696.3,145.2z M696.3,140v-11.2
		c-1.5-0.4-3-0.6-4.3-0.6c-2.7,0-4.9,1-6.7,3.1c-1.8,2.1-2.7,4.9-2.7,8.5c0,2.6,0.5,4.6,1.5,5.9c1,1.3,2.1,2,3.3,2
		c1.4,0,2.9-0.7,4.5-2.1C693.5,144.2,695,142.3,696.3,140z"/>
	<path class="st2" d="M711.9,130.8c1.3-2.2,2.9-3.8,4.8-4.9c1.9-1.1,3.6-1.7,5.1-1.7c2.2,0,4.2,0.9,5.9,2.8s2.6,4.8,2.6,8.6
		c0,3-0.6,5.7-1.7,8.1s-2.7,4.3-4.7,5.6s-4.3,2.1-7.2,2.1c-0.8,0-2.1-0.1-3.8-0.3c-0.2,0-0.6-0.1-1.1-0.1v10.2h-4.4v-36.4h4.4V130.8
		z M711.9,136v11.2c1.6,0.4,3,0.6,4.4,0.6c2.6,0,4.9-1,6.7-3.1c1.8-2.1,2.7-4.9,2.7-8.5c0-2.6-0.5-4.6-1.5-5.9c-1-1.3-2.1-2-3.4-2
		c-1.4,0-2.9,0.7-4.5,2.1S713.2,133.7,711.9,136z"/>
	<path class="st2" d="M736.7,151.1v-37.8h4.4v17.4c1.2-2,2.8-3.6,4.5-4.7s3.5-1.7,5.3-1.7c1.5,0,2.8,0.4,4.1,1.1s2.1,1.7,2.6,2.8
		c0.4,0.8,0.7,1.7,0.8,2.6s0.2,2.8,0.2,5.8v14.6h-4.4v-15.2c0-2.5-0.1-4.2-0.4-5s-0.7-1.5-1.3-2s-1.4-0.8-2.1-0.8
		c-1.5,0-3.2,0.7-4.9,2.2s-3.2,3.3-4.3,5.5v15.3H736.7z"/>
	<path class="st2" d="M787.2,149.3c-3.5,1.6-6.8,2.5-9.9,2.5c-2.4,0-4.5-0.6-6.3-1.8c-1.9-1.2-3.3-2.8-4.5-5s-1.7-4.5-1.7-7
		c0-2.4,0.5-4.7,1.6-6.9s2.5-3.9,4.5-5.1c1.9-1.2,4-1.8,6.4-1.8c3.1,0,5.6,1.1,7.5,3.3c1.9,2.2,2.8,5.6,2.8,10.2v0.9h-18
		c0,1.8,0.4,3.5,1.1,5c0.8,1.5,1.8,2.6,3,3.4c1.2,0.8,2.6,1.1,4.2,1.1c2.8,0,5.9-0.9,9.3-2.8V149.3z M769.8,135.4h13.1v-0.6
		c0-2.1-0.5-3.8-1.6-5.1s-2.4-1.9-4.2-1.9c-1.8,0-3.3,0.6-4.6,1.9S770.3,132.9,769.8,135.4z"/>
	<path class="st2" d="M805,152.2c-1,0-1.9-0.4-2.7-1.1s-1.1-1.6-1.1-2.7c0-1.1,0.4-2,1.1-2.7s1.7-1.1,2.7-1.1s1.9,0.4,2.7,1.1
		s1.1,1.6,1.1,2.7c0,1-0.4,1.9-1.1,2.7S806.1,152.2,805,152.2z"/>
	<path d="M821.1,138.4l25.5-12.7v4.1l-17.4,8.7l17.4,8.8v4L821.1,138.4z"/>
	<path d="M853.3,152.2H849l23.1-38.6h4.2L853.3,152.2z"/>
	<path class="st1" d="M884.7,130.8c1.3-2.2,2.9-3.8,4.8-4.9c1.9-1.1,3.6-1.7,5.1-1.7c2.2,0,4.2,0.9,5.9,2.8s2.6,4.8,2.6,8.6
		c0,3-0.6,5.7-1.7,8.1s-2.7,4.3-4.7,5.6s-4.3,2.1-7.2,2.1c-0.8,0-2.1-0.1-3.8-0.3c-0.2,0-0.6-0.1-1.1-0.1v10.2h-4.4v-36.4h4.4V130.8
		z M884.7,136v11.2c1.6,0.4,3,0.6,4.4,0.6c2.6,0,4.9-1,6.7-3.1c1.8-2.1,2.7-4.9,2.7-8.5c0-2.6-0.5-4.6-1.5-5.9c-1-1.3-2.1-2-3.4-2
		c-1.4,0-2.9,0.7-4.5,2.1S886,133.7,884.7,136z"/>
	<path d="M933,138.4l-25.5,12.7v-4l17.4-8.7l-17.4-8.8v-4L933,138.4z"/>
</g>
<g>
	<g>
		<line class="st3" x1="160.8" y1="184.9" x2="827.8" y2="184.9"/>
		<g>
			<rect x="158.3" y="168.6" class="st0" width="5" height="32.5"/>
		</g>
		<g>
			<rect x="825.3" y="168.6" class="st0" width="5" height="32.5"/>
		</g>
	</g>
</g>
<g>
	<g>
		<line class="st3" x1="60.2" y1="257.7" x2="961.9" y2="257.7"/>
		<g>
			<rect x="57.7" y="241.4" class="st0" width="5" height="32.5"/>
		</g>
		<g>
			<rect x="959.4" y="241.4" class="st0" width="5" height="32.5"/>
		</g>
	</g>
</g>
<g>
	<g>
		<line class="st3" x1="817.7" y1="78.2" x2="942.7" y2="78.2"/>
		<g>
			<rect x="815.2" y="62" class="st0" width="5" height="32.5"/>
		</g>
		<g>
			<rect x="940.2" y="62" class="st0" width="5" height="32.5"/>
		</g>
	</g>
</g>
<g>
	<g>
		<line class="st3" x1="53.2" y1="78.2" x2="178.2" y2="78.2"/>
		<g>
			<rect x="50.7" y="62" class="st0" width="5" height="32.5"/>
		</g>
		<g>
			<rect x="175.7" y="62" class="st0" width="5" height="32.5"/>
		</g>
	</g>
</g>
<g>
	<path class="st0" d="M382.2,299.5V274h15.8v4h-11.4v6.8h10.4v3.9h-10.4v6.8h11.4v4H382.2z M391.1,272.2h-3.9l3.7-4.5h5.4
		L391.1,272.2z"/>
	<path class="st0" d="M402.8,299.5v-26.1h4.2v26.1H402.8z"/>
	<path class="st0" d="M427.9,294.5c-0.9,3.1-3.7,5.5-7.9,5.5c-4.8,0-9-3.5-9-9.4c0-5.5,4.1-9.2,8.5-9.2c5.4,0,8.6,3.6,8.6,9.1
		c0,0.7-0.1,1.3-0.1,1.3h-12.8c0.1,2.7,2.2,4.6,4.8,4.6c2.5,0,3.8-1.3,4.4-3.1L427.9,294.5z M423.9,288.8c-0.1-2.1-1.4-3.9-4.3-3.9
		c-2.6,0-4.1,2-4.3,3.9H423.9z M421.1,279.8h-3.4l3.2-5.3h4.9L421.1,279.8z"/>
	<path class="st0" d="M432.1,299.5V282h4v2.2c1-1.8,3.2-2.7,5.2-2.7c2.3,0,4.3,1,5.3,3.1c1.4-2.3,3.4-3.1,5.7-3.1
		c3.2,0,6.2,2,6.2,6.7v11.4h-4v-10.7c0-2.1-1-3.6-3.4-3.6c-2.2,0-3.6,1.7-3.6,3.9v10.4h-4.1v-10.7c0-2-1-3.6-3.4-3.6
		c-2.2,0-3.6,1.7-3.6,3.9v10.4H432.1z"/>
	<path class="st0" d="M479,294.5c-0.9,3.1-3.7,5.5-7.9,5.5c-4.8,0-9-3.5-9-9.4c0-5.5,4.1-9.2,8.5-9.2c5.4,0,8.6,3.6,8.6,9.1
		c0,0.7-0.1,1.3-0.1,1.3h-12.8c0.1,2.7,2.2,4.6,4.8,4.6c2.5,0,3.8-1.3,4.4-3.1L479,294.5z M475,288.8c-0.1-2.1-1.4-3.9-4.3-3.9
		c-2.6,0-4.1,2-4.3,3.9H475z"/>
	<path class="st0" d="M487.4,299.5h-4.2V282h4.1v2.3c1.2-2,3.2-2.8,5.2-2.8c4.3,0,6.3,3.1,6.3,6.9v11.1h-4.2v-10.4
		c0-2.2-1-3.9-3.6-3.9c-2.4,0-3.6,1.8-3.6,4.1V299.5z"/>
	<path class="st0" d="M509.2,282h3.6v3.7h-3.6v8.1c0,1.5,0.7,2.2,2.2,2.2c0.6,0,1.3-0.1,1.4-0.1v3.5c-0.3,0.1-1,0.4-2.6,0.4
		c-3.2,0-5.3-1.9-5.3-5.2v-8.8h-3.2V282h0.9c1.9,0,2.7-1.2,2.7-2.7v-2.6h3.8V282z"/>
	<path class="st0" d="M542.6,299.5v-10.9h-12v10.9h-4.3V274h4.3v10.5h12V274h4.4v25.5H542.6z"/>
	<path class="st0" d="M563.1,278.1v21.5h-4.3v-21.5h-8.3V274h20.9v4.1H563.1z"/>
	<path class="st0" d="M598.8,299.5v-18.8l-8,18.8h-3.7l-7.9-18.7v18.7H575V274h5.8l8.3,19.5l8.2-19.5h5.9v25.5H598.8z"/>
	<path class="st0" d="M609.2,299.5V274h4.3v21.4h11.7v4.1H609.2z"/>
</g>
<g>
	<path class="st0" d="M24.9,14.2c4.9,0,7.8,2.9,7.8,6.9c0,2.7-1.6,4.7-3.8,5.5c2.7,0.7,4.6,3.1,4.6,6.1c0,4.1-3.2,7.1-7.9,7.1h-9.4
		V14.2H24.9z M24.3,25c2.5,0,4-1.4,4-3.6c0-2.2-1.5-3.6-4.1-3.6h-3.8V25H24.3z M24.7,36.1c2.6,0,4.3-1.4,4.3-3.7
		c0-2.2-1.5-3.7-4.1-3.7h-4.5v7.4H24.7z"/>
	<path class="st0" d="M41.6,29.7l4.5-0.7c1-0.1,1.3-0.6,1.3-1.3c0-1.5-1-2.7-3.3-2.7c-2.2,0-3.4,1.4-3.6,3.2l-3.8-0.9
		c0.3-3,3.1-5.7,7.4-5.7c5.4,0,7.5,3.1,7.5,6.6v8.7c0,1.6,0.2,2.6,0.2,2.8h-3.9c0-0.1-0.2-0.8-0.2-2.2c-0.8,1.3-2.6,2.8-5.4,2.8
		c-3.7,0-5.9-2.5-5.9-5.3C36.3,31.9,38.6,30.1,41.6,29.7z M47.4,32.5v-0.8l-4.6,0.7c-1.3,0.2-2.3,0.9-2.3,2.4c0,1.2,0.9,2.3,2.6,2.3
		C45.4,37,47.4,35.9,47.4,32.5z"/>
	<path class="st0" d="M56.5,39.8V13.7h4.2v26.1H56.5z"/>
	<path class="st0" d="M68.2,13.3c1.5,0,2.7,1.2,2.7,2.7c0,1.5-1.2,2.7-2.7,2.7c-1.5,0-2.7-1.2-2.7-2.7
		C65.5,14.6,66.7,13.3,68.2,13.3z M66.1,39.8V22.2h4.1v17.5H66.1z"/>
	<path class="st0" d="M77.7,34c0.1,1.6,1.3,3,3.6,3c1.7,0,2.6-0.9,2.6-2c0-0.9-0.6-1.7-2.1-1.9l-2.6-0.6c-3.1-0.7-4.7-2.7-4.7-5.1
		c0-3.1,2.8-5.7,6.4-5.7c4.9,0,6.5,3.2,6.8,4.9l-3.5,1c-0.1-1-0.9-2.6-3.2-2.6c-1.5,0-2.5,0.9-2.5,2c0,0.9,0.7,1.6,1.8,1.8l2.7,0.5
		c3.3,0.7,5,2.7,5,5.3c0,2.7-2.2,5.6-6.6,5.6c-5.1,0-7-3.3-7.2-5.3L77.7,34z"/>
	<path class="st0" d="M107.5,34.8c-0.9,3.1-3.7,5.5-7.9,5.5c-4.8,0-9-3.5-9-9.4c0-5.5,4.1-9.2,8.5-9.2c5.4,0,8.6,3.6,8.6,9.1
		c0,0.7-0.1,1.3-0.1,1.3H94.8c0.1,2.7,2.2,4.6,4.8,4.6c2.5,0,3.8-1.3,4.4-3.1L107.5,34.8z M103.5,29.1c-0.1-2.1-1.4-3.9-4.3-3.9
		c-2.6,0-4.1,2-4.3,3.9H103.5z"/>
	<path class="st0" d="M137.5,31c0,5.4-3.9,9.3-9.1,9.3c-5.2,0-9.1-3.9-9.1-9.3c0-5.4,3.9-9.3,9.1-9.3
		C133.6,21.7,137.5,25.6,137.5,31z M133.2,31c0-3.6-2.3-5.5-4.9-5.5c-2.6,0-4.9,1.9-4.9,5.5c0,3.6,2.3,5.6,4.9,5.6
		C130.9,36.6,133.2,34.6,133.2,31z"/>
	<path class="st0" d="M147.8,40.3c-4.2,0-6.6-3.1-6.6-7V22.2h4.2v10.3c0,2.2,1,4,3.5,4c2.4,0,3.7-1.6,3.7-3.9V22.2h4.2v14.3
		c0,1.4,0.1,2.6,0.2,3.2h-4c-0.1-0.4-0.1-1.2-0.1-1.9C151.9,39.4,149.9,40.3,147.8,40.3z"/>
	<path class="st0" d="M171.1,39.8h-4.2l-7.1-17.5h4.6l4.6,12.5l4.5-12.5h4.4L171.1,39.8z"/>
	<path class="st0" d="M191.3,26.4c-0.5-0.1-0.9-0.1-1.4-0.1c-3.2,0-4.7,1.9-4.7,5.1v8.4h-4.2V22.2h4.1V25c0.8-1.9,2.8-3,5.1-3
		c0.5,0,0.9,0.1,1.1,0.1V26.4z"/>
	<path class="st0" d="M199.1,29.7l4.5-0.7c1-0.1,1.3-0.6,1.3-1.3c0-1.5-1-2.7-3.3-2.7c-2.2,0-3.4,1.4-3.6,3.2l-3.8-0.9
		c0.3-3,3.1-5.7,7.4-5.7c5.4,0,7.5,3.1,7.5,6.6v8.7c0,1.6,0.2,2.6,0.2,2.8h-3.9c0-0.1-0.2-0.8-0.2-2.2c-0.8,1.3-2.6,2.8-5.4,2.8
		c-3.7,0-5.9-2.5-5.9-5.3C193.8,31.9,196.1,30.1,199.1,29.7z M204.8,32.5v-0.8l-4.6,0.7c-1.3,0.2-2.3,0.9-2.3,2.4
		c0,1.2,0.9,2.3,2.6,2.3C202.8,37,204.8,35.9,204.8,32.5z"/>
	<path class="st0" d="M218.2,39.8H214V22.2h4.1v2.3c1.2-2,3.2-2.8,5.2-2.8c4.3,0,6.3,3.1,6.3,6.9v11.1h-4.2V29.4
		c0-2.2-1-3.9-3.6-3.9c-2.4,0-3.6,1.8-3.6,4.1V39.8z"/>
	<path class="st0" d="M239.9,22.2h3.6v3.7h-3.6v8.1c0,1.5,0.7,2.2,2.2,2.2c0.6,0,1.3-0.1,1.4-0.1v3.5c-0.3,0.1-1,0.4-2.6,0.4
		c-3.2,0-5.3-1.9-5.3-5.2v-8.8h-3.2v-3.7h0.9c1.9,0,2.7-1.2,2.7-2.7v-2.6h3.8V22.2z"/>
	<path class="st0" d="M263.2,34.8c-0.9,3.1-3.7,5.5-7.9,5.5c-4.8,0-9-3.5-9-9.4c0-5.5,4.1-9.2,8.5-9.2c5.4,0,8.6,3.6,8.6,9.1
		c0,0.7-0.1,1.3-0.1,1.3h-12.8c0.1,2.7,2.2,4.6,4.8,4.6c2.5,0,3.8-1.3,4.4-3.1L263.2,34.8z M259.2,29.1c-0.1-2.1-1.4-3.9-4.3-3.9
		c-2.6,0-4.1,2-4.3,3.9H259.2z"/>
</g>
<g>
	<path class="st0" d="M748.1,14.2c4.9,0,7.8,2.9,7.8,6.9c0,2.7-1.6,4.7-3.8,5.5c2.7,0.7,4.6,3.1,4.6,6.1c0,4.1-3.2,7.1-7.9,7.1h-9.4
		V14.2H748.1z M747.5,25c2.5,0,4-1.4,4-3.6c0-2.2-1.5-3.6-4.1-3.6h-3.8V25H747.5z M748,36.1c2.6,0,4.3-1.4,4.3-3.7
		c0-2.2-1.5-3.7-4.1-3.7h-4.5v7.4H748z"/>
	<path class="st0" d="M764.9,29.7l4.5-0.7c1-0.1,1.3-0.6,1.3-1.3c0-1.5-1-2.7-3.3-2.7c-2.2,0-3.4,1.4-3.6,3.2l-3.8-0.9
		c0.3-3,3.1-5.7,7.4-5.7c5.4,0,7.5,3.1,7.5,6.6v8.7c0,1.6,0.2,2.6,0.2,2.8h-3.9c0-0.1-0.2-0.8-0.2-2.2c-0.8,1.3-2.6,2.8-5.4,2.8
		c-3.7,0-5.9-2.5-5.9-5.3C759.6,31.9,761.9,30.1,764.9,29.7z M770.7,32.5v-0.8l-4.6,0.7c-1.3,0.2-2.3,0.9-2.3,2.4
		c0,1.2,0.9,2.3,2.6,2.3C768.6,37,770.7,35.9,770.7,32.5z"/>
	<path class="st0" d="M779.8,39.8V13.7h4.2v26.1H779.8z"/>
	<path class="st0" d="M791.4,13.3c1.5,0,2.7,1.2,2.7,2.7c0,1.5-1.2,2.7-2.7,2.7c-1.5,0-2.7-1.2-2.7-2.7
		C788.7,14.6,790,13.3,791.4,13.3z M789.4,39.8V22.2h4.1v17.5H789.4z"/>
	<path class="st0" d="M801,34c0.1,1.6,1.3,3,3.6,3c1.7,0,2.6-0.9,2.6-2c0-0.9-0.6-1.7-2.1-1.9l-2.6-0.6c-3.1-0.7-4.7-2.7-4.7-5.1
		c0-3.1,2.8-5.7,6.4-5.7c4.9,0,6.5,3.2,6.8,4.9l-3.5,1c-0.1-1-0.9-2.6-3.2-2.6c-1.5,0-2.5,0.9-2.5,2c0,0.9,0.7,1.6,1.8,1.8l2.7,0.5
		c3.3,0.7,5,2.7,5,5.3c0,2.7-2.2,5.6-6.6,5.6c-5.1,0-7-3.3-7.2-5.3L801,34z"/>
	<path class="st0" d="M830.8,34.8c-0.9,3.1-3.7,5.5-7.9,5.5c-4.8,0-9-3.5-9-9.4c0-5.5,4.1-9.2,8.5-9.2c5.4,0,8.6,3.6,8.6,9.1
		c0,0.7-0.1,1.3-0.1,1.3h-12.8c0.1,2.7,2.2,4.6,4.8,4.6c2.5,0,3.8-1.3,4.4-3.1L830.8,34.8z M826.8,29.1c-0.1-2.1-1.4-3.9-4.3-3.9
		c-2.6,0-4.1,2-4.3,3.9H826.8z"/>
	<path class="st0" d="M849.1,19.9v2.3h4.1v3.6h-4.1v13.9h-4.2V25.9h-3.1v-3.6h3.1v-2.4c0-3.9,2.5-6.3,6.1-6.3c1,0,1.9,0.2,2.2,0.4
		v3.6c-0.3-0.1-0.7-0.2-1.5-0.2C850.6,17.3,849.1,17.8,849.1,19.9z"/>
	<path class="st0" d="M871.5,34.8c-0.9,3.1-3.7,5.5-7.9,5.5c-4.8,0-9-3.5-9-9.4c0-5.5,4.1-9.2,8.5-9.2c5.4,0,8.6,3.6,8.6,9.1
		c0,0.7-0.1,1.3-0.1,1.3h-12.8c0.1,2.7,2.2,4.6,4.8,4.6c2.5,0,3.8-1.3,4.4-3.1L871.5,34.8z M867.5,29.1c-0.1-2.1-1.4-3.9-4.3-3.9
		c-2.6,0-4.1,2-4.3,3.9H867.5z"/>
	<path class="st0" d="M886,26.4c-0.5-0.1-0.9-0.1-1.4-0.1c-3.2,0-4.7,1.9-4.7,5.1v8.4h-4.2V22.2h4.1V25c0.8-1.9,2.8-3,5.1-3
		c0.5,0,0.9,0.1,1.1,0.1V26.4z"/>
	<path class="st0" d="M889.5,39.8V22.2h4v2.2c1-1.8,3.2-2.7,5.2-2.7c2.3,0,4.3,1,5.3,3.1c1.4-2.3,3.4-3.1,5.7-3.1
		c3.2,0,6.2,2,6.2,6.7v11.4h-4V29.1c0-2.1-1-3.6-3.4-3.6c-2.2,0-3.6,1.7-3.6,3.9v10.4h-4.1V29.1c0-2-1-3.6-3.4-3.6
		c-2.2,0-3.6,1.7-3.6,3.9v10.4H889.5z"/>
	<path class="st0" d="M925.1,29.7l4.5-0.7c1-0.1,1.3-0.6,1.3-1.3c0-1.5-1-2.7-3.3-2.7c-2.2,0-3.4,1.4-3.6,3.2l-3.8-0.9
		c0.3-3,3.1-5.7,7.4-5.7c5.4,0,7.5,3.1,7.5,6.6v8.7c0,1.6,0.2,2.6,0.2,2.8h-3.9c0-0.1-0.2-0.8-0.2-2.2c-0.8,1.3-2.6,2.8-5.4,2.8
		c-3.7,0-5.9-2.5-5.9-5.3C919.8,31.9,922.1,30.1,925.1,29.7z M930.9,32.5v-0.8l-4.6,0.7c-1.3,0.2-2.3,0.9-2.3,2.4
		c0,1.2,0.9,2.3,2.6,2.3C928.9,37,930.9,35.9,930.9,32.5z"/>
	<path class="st0" d="M944.2,39.8H940V22.2h4.1v2.3c1.2-2,3.2-2.8,5.2-2.8c4.3,0,6.3,3.1,6.3,6.9v11.1h-4.2V29.4
		c0-2.2-1-3.9-3.6-3.9c-2.4,0-3.6,1.8-3.6,4.1V39.8z"/>
	<path class="st0" d="M966,22.2h3.6v3.7H966v8.1c0,1.5,0.7,2.2,2.2,2.2c0.6,0,1.3-0.1,1.4-0.1v3.5c-0.3,0.1-1,0.4-2.6,0.4
		c-3.2,0-5.3-1.9-5.3-5.2v-8.8h-3.2v-3.7h0.9c1.9,0,2.7-1.2,2.7-2.7v-2.6h3.8V22.2z"/>
	<path class="st0" d="M989.2,34.8c-0.9,3.1-3.7,5.5-7.9,5.5c-4.8,0-9-3.5-9-9.4c0-5.5,4.1-9.2,8.5-9.2c5.4,0,8.6,3.6,8.6,9.1
		c0,0.7-0.1,1.3-0.1,1.3h-12.8c0.1,2.7,2.2,4.6,4.8,4.6c2.5,0,3.8-1.3,4.4-3.1L989.2,34.8z M985.3,29.1c-0.1-2.1-1.4-3.9-4.3-3.9
		c-2.6,0-4.1,2-4.3,3.9H985.3z"/>
</g>
</svg>
