<?xml version="1.0" encoding="utf-8"?>
<!-- Generator: Adobe Illustrator 24.0.3, SVG Export Plug-In . SVG Version: 6.00 Build 0)  -->
<svg version="1.1" id="Layer_1" xmlns="http://www.w3.org/2000/svg" xmlns:xlink="http://www.w3.org/1999/xlink" x="0px" y="0px"
	 viewBox="0 0 1005.2 408.9" style="enable-background:new 0 0 1005.2 408.9;" xml:space="preserve">
<style type="text/css">
	.st0{fill:#FF9900;}
	.st1{fill:none;stroke:#FF9900;stroke-width:5;stroke-miterlimit:10;}
</style>
<path class="st0" d="M241.9,140.2H98c-5.7,0-10.3-4.6-10.3-10.3v-20.6c0-5.7,4.6-10.3,10.3-10.3h143.9c5.7,0,10.3,4.6,10.3,10.3
	v20.6C252.2,135.6,247.6,140.2,241.9,140.2z M226.5,111.9c-4.3,0-7.7,3.5-7.7,7.7s3.5,7.7,7.7,7.7s7.7-3.5,7.7-7.7
	S230.8,111.9,226.5,111.9z M206,111.9c-4.3,0-7.7,3.5-7.7,7.7s3.5,7.7,7.7,7.7c4.3,0,7.7-3.5,7.7-7.7S210.2,111.9,206,111.9z
	 M241.9,191.6H98c-5.7,0-10.3-4.6-10.3-10.3v-20.6c0-5.7,4.6-10.3,10.3-10.3h143.9c5.7,0,10.3,4.6,10.3,10.3v20.6
	C252.2,187,247.6,191.6,241.9,191.6z M226.5,163.3c-4.3,0-7.7,3.5-7.7,7.7s3.5,7.7,7.7,7.7s7.7-3.5,7.7-7.7S230.8,163.3,226.5,163.3
	z M206,163.3c-4.3,0-7.7,3.5-7.7,7.7s3.5,7.7,7.7,7.7c4.3,0,7.7-3.5,7.7-7.7S210.2,163.3,206,163.3z M241.9,243H98
	c-5.7,0-10.3-4.6-10.3-10.3v-20.6c0-5.7,4.6-10.3,10.3-10.3h143.9c5.7,0,10.3,4.6,10.3,10.3v20.6C252.2,238.4,247.6,243,241.9,243z
	 M226.5,214.7c-4.3,0-7.7,3.5-7.7,7.7c0,4.3,3.5,7.7,7.7,7.7s7.7-3.5,7.7-7.7C234.2,218.2,230.8,214.7,226.5,214.7z M206,214.7
	c-4.3,0-7.7,3.5-7.7,7.7c0,4.3,3.5,7.7,7.7,7.7c4.3,0,7.7-3.5,7.7-7.7C213.7,218.2,210.2,214.7,206,214.7z"/>
<path class="st0" d="M1000.1,222.4h-77.9c-0.2,6.4-4.7,10.3-10.5,10.3h-19.5c-6,0-10.6-5.6-10.5-10.3h-76.9c-2.8,0-5.1,2.3-5.1,5.1
	v5.1c0,11.3,9.3,20.6,20.6,20.6h164.5c11.3,0,20.6-9.3,20.6-20.6v-5.1C1005.2,224.7,1002.9,222.4,1000.1,222.4z M984.7,104.2
	c0-8.5-6.9-15.4-15.4-15.4H835.6c-8.5,0-15.4,6.9-15.4,15.4v107.9h164.5V104.2z M964.1,191.6H840.8v-82.2h123.4V191.6z"/>
<path class="st0" d="M99.6,10.3v6.4c0,5.7-14.1,10.3-31.4,10.3s-31.4-4.6-31.4-10.3v-6.4C36.7,4.6,50.8,0,68.1,0S99.6,4.6,99.6,10.3
	z M99.6,24.7v14.4c0,5.7-14.1,10.3-31.4,10.3s-31.4-4.6-31.4-10.3V24.7c6.8,4.7,19.1,6.8,31.4,6.8S92.8,29.4,99.6,24.7z M99.6,47.2
	v14.4c0,5.7-14.1,10.3-31.4,10.3s-31.4-4.6-31.4-10.3V47.2c6.8,4.7,19.1,6.8,31.4,6.8S92.8,51.8,99.6,47.2z"/>
<path class="st0" d="M53.9,146.1v0.9h-18v-18h0.9c0.9,0,1.8,0.4,2.4,1l13.7,13.7C53.5,144.4,53.9,145.2,53.9,146.1z M34.8,151.4
	c-1.9,0-3.4-1.5-3.4-3.4V129H3.4c-1.9,0-3.4,1.5-3.4,3.4v65.1c0,1.9,1.5,3.4,3.4,3.4h47.2c1.9,0,3.4-1.5,3.4-3.4v-46H34.8z
	 M17.3,185.2c-0.3,0.3-0.8,0.3-1.1,0c0,0,0,0,0,0l-9.1-8.5c-0.3-0.3-0.3-0.8,0-1.1c0,0,0,0,0,0l9.1-8.5c0.3-0.3,0.8-0.3,1.1,0
	c0,0,0,0,0,0L20,170c0.3,0.3,0.3,0.8,0,1.1c0,0,0,0,0,0l-5.7,5l5.7,5c0.3,0.3,0.3,0.8,0.1,1.1c0,0,0,0,0,0L17.3,185.2L17.3,185.2z
	 M24.5,192.3l-3.9-1.1c-0.4-0.1-0.6-0.5-0.5-0.9l8.6-29.7c0.1-0.4,0.5-0.6,0.9-0.5l3.9,1.1c0.4,0.1,0.6,0.5,0.5,0.9c0,0,0,0,0,0
	l-8.6,29.7C25.3,192.2,24.9,192.4,24.5,192.3C24.5,192.3,24.5,192.3,24.5,192.3L24.5,192.3z M47.1,176.7l-9.1,8.5
	c-0.3,0.3-0.8,0.3-1.1,0c0,0,0,0,0,0l-2.7-2.9c-0.3-0.3-0.3-0.8,0-1.1c0,0,0,0,0,0l5.7-5l-5.7-5c-0.3-0.3-0.3-0.8-0.1-1.1
	c0,0,0,0,0,0l2.7-2.9c0.3-0.3,0.8-0.3,1.1,0c0,0,0,0,0,0l9.1,8.5C47.4,175.9,47.4,176.4,47.1,176.7
	C47.1,176.7,47.1,176.7,47.1,176.7L47.1,176.7z"/>
<path class="st0" d="M108.6,258H45.7c-2.5,0-4.5,1.8-4.5,4.1v11.6h6.7v-9h6.7v9h6.7v-9h31.4v42.7h15.7c2.5,0,4.5-1.8,4.5-4.1v-41.2
	C113,259.8,111,258,108.6,258z M106.3,300.6h-6.7v-7.9h6.7V300.6z M106.3,286h-6.7v-6.7h6.7V286z M106.3,272.6h-6.7v-7.9h6.7V272.6z
	 M41.2,302.9c2.5,0,4.5-2,4.5-4.5s-2-4.5-4.5-4.5c-2.5,0-4.5,2-4.5,4.5S38.7,302.9,41.2,302.9z M81.6,280.4H27.7
	c-2.5,0-4.5,2-4.5,4.5v40.4c0,2.5,2,4.5,4.5,4.5h53.9c2.5,0,4.5-2,4.5-4.5v-40.4C86.1,282.4,84.1,280.4,81.6,280.4z M79.4,314.1
	L65.2,300c-0.9-0.9-2.3-0.9-3.2,0l-14.1,14.1l-5.1-5.1c-0.9-0.9-2.3-0.9-3.2,0l-9.6,9.6v-31.4h49.4V314.1z"/>
<path class="st0" d="M511,123.2c0-2.2-1.8-4.1-4.1-4.1c-1.1,0-2.1,0.4-2.9,1.2l-9.2,9.2c-0.8,0.8-1.2,1.8-1.2,2.9
	c0,2.2,1.8,4.1,4.1,4.1h5.8c1.1,0,2.1-0.4,2.9-1.2l3.4-3.4c0.8-0.8,1.2-1.8,1.2-2.9V123.2z M536.3,81.3c-49.5,0-89.7,40.1-89.7,89.7
	s40.1,89.7,89.7,89.7c49.5,0,89.7-40.1,89.7-89.7S585.8,81.3,536.3,81.3z M599.6,205.9h-4.8c-1.7,0-3.4-0.7-4.7-1.9l-6.3-6.3
	c-2.2-2.2-5.1-3.4-8.2-3.4H569l-15.6-13.4c-3-2.6-6.8-3.9-10.7-3.9h-11.3c-3,0-5.9,0.8-8.5,2.4l-15.5,9.3c-5,3-8,8.3-8,14.1v8.6
	c0,5.2,2.4,10.1,6.6,13.2l8,6c3.1,2.4,8.9,4.3,12.8,4.3h7.3c3.2,0,5.8,2.6,5.8,5.8v2.6c-1.2,0.1-2.4,0.2-3.7,0.2
	c-39.9,0-72.3-32.4-72.3-72.3c0-39.2,31.4-71.1,70.3-72.2l-10.5,7.8c-0.7,0.5-1.2,1.4-1.2,2.3v7.2c0,1.6,1.3,2.9,2.9,2.9h5.8
	c1.6,0,2.9-1.3,2.9-2.9v-2.9l5.8-5.8h7.5c2.2,0,4.1,1.8,4.1,4.1c0,1.1-0.4,2.1-1.2,2.9l-9.7,9.7c-0.4,0.4-1,0.8-1.6,1l-14.5,4.8
	c-1.2,0.4-2,1.5-2,2.7c0,2.4-0.9,4.6-2.6,6.3l-7.3,7.3c-1.1,1.1-1.7,2.6-1.7,4.1v9.2c0,3.2,2.6,5.8,5.8,5.8h8c2.2,0,4.2-1.2,5.2-3.2
	l3.4-6.8c0.5-1,1.5-1.6,2.6-1.6h1.1c1.6,0,2.9,1.3,2.9,2.9s1.3,2.9,2.9,2.9h5.8c1.6,0,2.9-1.3,2.9-2.9V156c0-1.2,0.8-2.4,2-2.7
	l11.4-3.8c2.4-0.8,3.9-3,3.9-5.5v-1.6c0-3.2,2.6-5.8,5.8-5.8h13.3c2.2,0,4.1,1.8,4.1,4.1v3.4c0,2.2-1.8,4.1-4.1,4.1h-11.6
	c-1.1,0-2.1,0.4-2.9,1.2l-3.4,3.4c-0.8,0.8-1.2,1.8-1.2,2.9c0,2.2,1.8,4.1,4.1,4.1h5.8c1.1,0,2.1,0.4,2.9,1.2l3.4,3.4
	c0.8,0.8,1.2,1.8,1.2,2.9v3.1l-4.5,4.5c-1.7,1.7-1.7,4.3,0,6l11.5,11.8c1.1,1.1,2.6,1.7,4.1,1.7h7.3
	C603.3,198.3,601.6,202.2,599.6,205.9L599.6,205.9z"/>
<g>
	<path class="st0" d="M82.5,382c-0.3-1.6-1.6-3.9-5-3.9c-2.6,0-4.4,1.7-4.4,3.7c0,1.6,1,2.8,3,3.3l3.7,0.8c4.5,0.9,6.9,3.7,6.9,7.3
		c0,4-3.2,7.7-9,7.7c-6.5,0-9.5-4.2-9.9-7.8l4-1.2c0.3,2.7,2.2,5.1,5.8,5.1c3.1,0,4.6-1.5,4.6-3.5c0-1.7-1.2-3-3.4-3.5l-3.6-0.8
		c-3.9-0.8-6.5-3.3-6.5-7.2c0-4.3,3.9-7.8,8.7-7.8c6,0,8.4,3.7,8.9,6.5L82.5,382z"/>
	<path class="st0" d="M106.1,395.4c-0.9,3.1-3.7,5.5-7.9,5.5c-4.8,0-9-3.5-9-9.4c0-5.5,4.1-9.2,8.5-9.2c5.4,0,8.6,3.6,8.6,9.1
		c0,0.7-0.1,1.3-0.1,1.3H93.4c0.1,2.7,2.2,4.6,4.8,4.6c2.5,0,3.8-1.3,4.4-3.1L106.1,395.4z M102.1,389.7c-0.1-2.1-1.4-3.9-4.3-3.9
		c-2.6,0-4.1,2-4.3,3.9H102.1z"/>
	<path class="st0" d="M120.6,387c-0.5-0.1-0.9-0.1-1.4-0.1c-3.2,0-4.7,1.9-4.7,5.1v8.4h-4.2v-17.5h4.1v2.8c0.8-1.9,2.8-3,5.1-3
		c0.5,0,0.9,0.1,1.1,0.1V387z"/>
	<path class="st0" d="M133.6,400.4h-4.2l-7.1-17.5h4.6l4.6,12.5l4.5-12.5h4.4L133.6,400.4z"/>
	<path class="st0" d="M158.5,395.4c-0.9,3.1-3.7,5.5-7.9,5.5c-4.8,0-9-3.5-9-9.4c0-5.5,4.1-9.2,8.5-9.2c5.4,0,8.6,3.6,8.6,9.1
		c0,0.7-0.1,1.3-0.1,1.3h-12.8c0.1,2.7,2.2,4.6,4.8,4.6c2.5,0,3.8-1.3,4.4-3.1L158.5,395.4z M154.5,389.7c-0.1-2.1-1.4-3.9-4.3-3.9
		c-2.6,0-4.1,2-4.3,3.9H154.5z"/>
	<path class="st0" d="M168.8,400.9c-4.2,0-6.6-3.1-6.6-7v-11.1h4.2v10.3c0,2.2,1,4,3.5,4c2.4,0,3.7-1.6,3.7-3.9v-10.4h4.2v14.3
		c0,1.4,0.1,2.6,0.2,3.2h-4c-0.1-0.4-0.1-1.2-0.1-1.9C172.9,400,170.8,400.9,168.8,400.9z"/>
	<path class="st0" d="M193.4,387c-0.5-0.1-0.9-0.1-1.4-0.1c-3.2,0-4.7,1.9-4.7,5.1v8.4h-4.2v-17.5h4.1v2.8c0.8-1.9,2.8-3,5.1-3
		c0.5,0,0.9,0.1,1.1,0.1V387z"/>
	<path class="st0" d="M220,382.8l4.1,12.1l3.5-12.1h4.2l-5.6,17.5h-4.2l-4.4-12.6l-4.2,12.6h-4.3l-5.7-17.5h4.5l3.6,12.1l4.1-12.1
		H220z"/>
	<path class="st0" d="M250.1,395.4c-0.9,3.1-3.7,5.5-7.9,5.5c-4.8,0-9-3.5-9-9.4c0-5.5,4.1-9.2,8.5-9.2c5.4,0,8.6,3.6,8.6,9.1
		c0,0.7-0.1,1.3-0.1,1.3h-12.8c0.1,2.7,2.2,4.6,4.8,4.6c2.5,0,3.8-1.3,4.4-3.1L250.1,395.4z M246.1,389.7c-0.1-2.1-1.4-3.9-4.3-3.9
		c-2.6,0-4.1,2-4.3,3.9H246.1z"/>
	<path class="st0" d="M254.3,400.4v-26.1h4.1V385c0.8-1.4,2.8-2.6,5.5-2.6c5.3,0,8.1,4,8.1,9.1c0,5.3-3.1,9.3-8.2,9.3
		c-2.5,0-4.4-1.1-5.4-2.8v2.3H254.3z M263.1,386.1c-2.7,0-4.7,2-4.7,5.5c0,3.5,2.1,5.5,4.7,5.5c2.7,0,4.7-2.1,4.7-5.5
		C267.8,388.1,265.9,386.1,263.1,386.1z"/>
</g>
<g>
	<path class="st0" d="M473.7,400.4v-25.5h4.4v25.5H473.7z"/>
	<path class="st0" d="M488,400.4h-4.2v-17.5h4.1v2.3c1.2-2,3.2-2.8,5.2-2.8c4.3,0,6.3,3.1,6.3,6.9v11.1h-4.2V390
		c0-2.2-1-3.9-3.6-3.9c-2.4,0-3.6,1.8-3.6,4.1V400.4z"/>
	<path class="st0" d="M509.8,382.8h3.6v3.7h-3.6v8.1c0,1.5,0.7,2.2,2.2,2.2c0.6,0,1.3-0.1,1.4-0.1v3.5c-0.3,0.1-1,0.4-2.6,0.4
		c-3.2,0-5.3-1.9-5.3-5.2v-8.8h-3.2v-3.7h0.9c1.9,0,2.7-1.2,2.7-2.7v-2.6h3.8V382.8z"/>
	<path class="st0" d="M533.1,395.4c-0.9,3.1-3.7,5.5-7.9,5.5c-4.8,0-9-3.5-9-9.4c0-5.5,4.1-9.2,8.5-9.2c5.4,0,8.6,3.6,8.6,9.1
		c0,0.7-0.1,1.3-0.1,1.3h-12.8c0.1,2.7,2.2,4.6,4.8,4.6c2.5,0,3.8-1.3,4.4-3.1L533.1,395.4z M529.1,389.7c-0.1-2.1-1.4-3.9-4.3-3.9
		c-2.6,0-4.1,2-4.3,3.9H529.1z"/>
	<path class="st0" d="M547.5,387c-0.5-0.1-0.9-0.1-1.4-0.1c-3.2,0-4.7,1.9-4.7,5.1v8.4h-4.2v-17.5h4.1v2.8c0.8-1.9,2.8-3,5.1-3
		c0.5,0,0.9,0.1,1.1,0.1V387z"/>
	<path class="st0" d="M555.2,400.4H551v-17.5h4.1v2.3c1.2-2,3.2-2.8,5.2-2.8c4.3,0,6.3,3.1,6.3,6.9v11.1h-4.2V390
		c0-2.2-1-3.9-3.6-3.9c-2.4,0-3.6,1.8-3.6,4.1V400.4z"/>
	<path class="st0" d="M587.2,395.4c-0.9,3.1-3.7,5.5-7.9,5.5c-4.8,0-9-3.5-9-9.4c0-5.5,4.1-9.2,8.5-9.2c5.4,0,8.6,3.6,8.6,9.1
		c0,0.7-0.1,1.3-0.1,1.3h-12.8c0.1,2.7,2.2,4.6,4.8,4.6c2.5,0,3.8-1.3,4.4-3.1L587.2,395.4z M583.2,389.7c-0.1-2.1-1.4-3.9-4.3-3.9
		c-2.6,0-4.1,2-4.3,3.9H583.2z"/>
	<path class="st0" d="M596.7,382.8h3.6v3.7h-3.6v8.1c0,1.5,0.7,2.2,2.2,2.2c0.6,0,1.3-0.1,1.4-0.1v3.5c-0.3,0.1-1,0.4-2.6,0.4
		c-3.2,0-5.3-1.9-5.3-5.2v-8.8h-3.2v-3.7h0.9c1.9,0,2.7-1.2,2.7-2.7v-2.6h3.8V382.8z"/>
</g>
<g>
	<path class="st0" d="M854.2,384.6c0-8.3,6.2-13.3,12.9-13.3c6.5,0,10.3,3.8,11.5,8.3l-4.1,1.4c-0.8-3.1-3.1-5.6-7.4-5.6
		c-4.2,0-8.4,3.1-8.4,9.3c0,6,4.1,9.1,8.5,9.1c4.3,0,6.7-2.7,7.6-5.6l4,1.3c-1.2,4.3-5,8.5-11.6,8.5
		C860.2,397.9,854.2,392.9,854.2,384.6z"/>
	<path class="st0" d="M882.3,397.4v-26.1h4.2v26.1H882.3z"/>
	<path class="st0" d="M893.9,370.9c1.5,0,2.7,1.2,2.7,2.7c0,1.5-1.2,2.7-2.7,2.7c-1.5,0-2.7-1.2-2.7-2.7
		C891.2,372.2,892.4,370.9,893.9,370.9z M891.8,397.4v-17.5h4.1v17.5H891.8z"/>
	<path class="st0" d="M916.9,392.4c-0.9,3.1-3.7,5.5-7.9,5.5c-4.8,0-9-3.5-9-9.4c0-5.5,4.1-9.2,8.5-9.2c5.4,0,8.6,3.6,8.6,9.1
		c0,0.7-0.1,1.3-0.1,1.3h-12.8c0.1,2.7,2.2,4.6,4.8,4.6c2.5,0,3.8-1.3,4.4-3.1L916.9,392.4z M912.9,386.7c-0.1-2.1-1.4-3.9-4.3-3.9
		c-2.6,0-4.1,2-4.3,3.9H912.9z"/>
	<path class="st0" d="M925.3,397.4h-4.2v-17.5h4.1v2.3c1.2-2,3.2-2.8,5.2-2.8c4.3,0,6.3,3.1,6.3,6.9v11.1h-4.2V387
		c0-2.2-1-3.9-3.6-3.9c-2.4,0-3.6,1.8-3.6,4.1V397.4z"/>
	<path class="st0" d="M947.1,379.8h3.6v3.7h-3.6v8.1c0,1.5,0.7,2.2,2.2,2.2c0.6,0,1.3-0.1,1.4-0.1v3.5c-0.3,0.1-1,0.4-2.6,0.4
		c-3.2,0-5.3-1.9-5.3-5.2v-8.8h-3.2v-3.7h0.9c1.9,0,2.7-1.2,2.7-2.7v-2.6h3.8V379.8z"/>
</g>
<g>
	<g>
		<line class="st1" x1="313.1" y1="175.3" x2="393.2" y2="175.3"/>
		<g>
			<polygon class="st0" points="316.7,187.8 295.1,175.3 316.7,162.9 			"/>
		</g>
		<g>
			<polygon class="st0" points="389.5,187.8 411.1,175.3 389.5,162.9 			"/>
		</g>
	</g>
</g>
<g>
	<g>
		<line class="st1" x1="679.3" y1="175.3" x2="759.4" y2="175.3"/>
		<g>
			<polygon class="st0" points="682.9,187.8 661.3,175.3 682.9,162.9 			"/>
		</g>
		<g>
			<polygon class="st0" points="755.8,187.8 777.3,175.3 755.8,162.9 			"/>
		</g>
	</g>
</g>
</svg>
