<?xml version="1.0" encoding="utf-8"?>
<!-- Generator: Adobe Illustrator 24.1.0, SVG Export Plug-In . SVG Version: 6.00 Build 0)  -->
<svg version="1.1" id="Layer_2" xmlns="http://www.w3.org/2000/svg" xmlns:xlink="http://www.w3.org/1999/xlink" x="0px" y="0px"
	 viewBox="0 0 1005.2 314.2" style="enable-background:new 0 0 1005.2 314.2;" xml:space="preserve">
<style type="text/css">
	.st0{fill:#021B9F;}
	.st1{fill:#36ACAA;}
	.st2{fill:#FF9900;}
	.st3{fill:none;stroke:#FF9900;stroke-width:5;stroke-miterlimit:10;}
</style>
<g>
	<path class="st0" d="M388.7,99.7c1.3-2.2,2.9-3.8,4.8-4.9c1.9-1.1,3.6-1.7,5.1-1.7c2.2,0,4.2,0.9,5.9,2.8s2.6,4.8,2.6,8.6
		c0,3-0.6,5.7-1.7,8.1s-2.7,4.3-4.7,5.6s-4.3,2.1-7.2,2.1c-0.8,0-2.1-0.1-3.8-0.3c-0.2,0-0.6-0.1-1.1-0.1v10.2h-4.4V93.8h4.4V99.7z
		 M388.7,104.8v11.2c1.6,0.4,3,0.6,4.4,0.6c2.6,0,4.9-1,6.7-3.1c1.8-2.1,2.7-4.9,2.7-8.5c0-2.6-0.5-4.6-1.5-5.9c-1-1.3-2.1-2-3.4-2
		c-1.4,0-2.9,0.7-4.5,2.1S390,102.5,388.7,104.8z"/>
	<path d="M451.5,105c1.4,0.8,2.5,1.5,3.2,2.2s1.2,1.5,1.5,2.3s0.5,1.7,0.5,2.7c0,0.9-0.2,2.1-0.5,3.5l-0.6,2.7
		c-0.3,1.5-0.5,2.5-0.5,3.2c0,1,0.4,1.8,1.1,2.4s2.3,1,4.6,1h3.6v3.6h-3.7c-4.3,0-7-0.7-8.3-2.1c-1.2-1.4-1.8-2.9-1.8-4.7
		c0-0.9,0.1-1.9,0.4-3l0.4-1.9l0.4-2l0.3-1.2c0.1-0.6,0.2-1.1,0.2-1.7c0-1.5-0.5-2.7-1.5-3.7c-1-1-2.7-1.5-5.2-1.5h-2.1v-3.6h2.1
		c2.4,0,4.1-0.5,5.1-1.5c1-1,1.5-2.3,1.5-3.8c0-0.6-0.1-1.1-0.2-1.6l-0.3-1.2l-0.4-2l-0.4-1.9c-0.2-1.1-0.4-2.1-0.4-3
		c0-1.7,0.6-3.3,1.8-4.7c1.2-1.4,4-2.1,8.3-2.1h3.7V85h-3.6c-2.3,0-3.8,0.3-4.6,1c-0.8,0.7-1.1,1.5-1.1,2.5c0,0.7,0.2,1.8,0.5,3.2
		l0.6,2.7c0.3,1.4,0.5,2.6,0.5,3.5c0,1-0.2,1.9-0.5,2.7s-0.8,1.5-1.5,2.3S452.9,104.3,451.5,105z"/>
	<path class="st1" d="M464.3,176.8c-2.9,1-5.7,1.5-8.3,1.5c-2.6,0-5-0.6-7-1.8s-3.6-2.9-4.8-4.9s-1.7-4.4-1.7-7.1
		c0-4,1.3-7.3,3.9-9.9s5.7-3.9,9.4-3.9c2.7,0,5.6,0.5,8.6,1.5v4.2c-3-1.4-5.8-2.1-8.2-2.1c-1.6,0-3.1,0.4-4.5,1.2s-2.5,2-3.3,3.7
		s-1.1,3.4-1.1,5.2c0,2.4,0.7,4.6,2.2,6.8s3.8,3.2,6.9,3.2c1,0,1.9-0.1,2.8-0.2s2.6-0.6,5.1-1.5V176.8z"/>
	<path class="st1" d="M481.9,178.3c-3.7,0-6.7-1.3-9-3.9c-2.2-2.6-3.4-5.9-3.4-9.9s1.1-7.3,3.4-9.9c2.2-2.6,5.2-3.9,9-3.9
		c3.7,0,6.7,1.3,9,3.9s3.4,5.9,3.4,9.9s-1.1,7.3-3.4,9.9S485.6,178.3,481.9,178.3z M481.9,174.6c2.3,0,4.2-0.9,5.5-2.7
		s2.1-4.3,2.1-7.5c0-3.2-0.7-5.6-2.1-7.5s-3.2-2.7-5.5-2.7c-2.3,0-4.2,0.9-5.6,2.7c-1.4,1.8-2.1,4.3-2.1,7.5c0,3.2,0.7,5.7,2.1,7.5
		C477.7,173.7,479.5,174.6,481.9,174.6z"/>
	<path class="st1" d="M506.9,177.6v-34.2h-7.8v-3.6h12.2v34.2h8.2v3.6H506.9z"/>
	<path class="st1" d="M539.5,178.3c-3.7,0-6.7-1.3-9-3.9s-3.4-5.9-3.4-9.9s1.1-7.3,3.4-9.9s5.2-3.9,9-3.9c3.7,0,6.7,1.3,9,3.9
		s3.4,5.9,3.4,9.9s-1.1,7.3-3.4,9.9S543.2,178.3,539.5,178.3z M539.5,174.6c2.3,0,4.2-0.9,5.5-2.7s2.1-4.3,2.1-7.5
		c0-3.2-0.7-5.6-2.1-7.5s-3.2-2.7-5.5-2.7c-2.3,0-4.2,0.9-5.6,2.7s-2.1,4.3-2.1,7.5c0,3.2,0.7,5.7,2.1,7.5S537.1,174.6,539.5,174.6z
		"/>
	<path class="st1" d="M559.7,177.6v-26.2h4.4v5.7c1.4-2.2,2.9-3.8,4.7-4.8s3.7-1.6,5.9-1.6c1.6,0,3.2,0.2,4.7,0.7v9.4h-4.2v-6
		c-0.7-0.1-1.3-0.2-1.7-0.2c-1.6,0-3.2,0.6-4.8,1.9s-3.1,3.2-4.6,5.8v15.2H559.7z"/>
	<path d="M597.1,158.3c-1,0-1.9-0.4-2.7-1.1s-1.1-1.6-1.1-2.7c0-1.1,0.4-2,1.1-2.7s1.7-1.1,2.7-1.1s1.9,0.4,2.7,1.1s1.1,1.6,1.1,2.7
		c0,1-0.4,1.9-1.1,2.7S598.1,158.3,597.1,158.3z M597.1,178.7c-1,0-1.9-0.4-2.7-1.1s-1.1-1.6-1.1-2.7c0-1.1,0.4-2,1.1-2.7
		s1.7-1.1,2.7-1.1s1.9,0.4,2.7,1.1s1.1,1.6,1.1,2.7c0,1-0.4,1.9-1.1,2.7S598.1,178.7,597.1,178.7z"/>
	<path d="M646.2,177.6v-26.2h4.4v5.7c1.4-2.2,2.9-3.8,4.7-4.8s3.7-1.6,5.9-1.6c1.6,0,3.2,0.2,4.7,0.7v9.4h-4.2v-6
		c-0.7-0.1-1.3-0.2-1.7-0.2c-1.6,0-3.2,0.6-4.8,1.9s-3.1,3.2-4.6,5.8v15.2H646.2z"/>
	<path d="M694.5,175.8c-3.5,1.6-6.8,2.5-9.9,2.5c-2.4,0-4.5-0.6-6.3-1.8c-1.9-1.2-3.3-2.8-4.5-5s-1.7-4.5-1.7-7
		c0-2.4,0.5-4.7,1.6-6.9s2.5-3.9,4.5-5.1c1.9-1.2,4-1.8,6.4-1.8c3.1,0,5.6,1.1,7.5,3.3c1.9,2.2,2.8,5.6,2.8,10.2v0.9h-18
		c0,1.8,0.4,3.5,1.1,5c0.8,1.5,1.8,2.6,3,3.4c1.2,0.8,2.6,1.1,4.2,1.1c2.8,0,5.9-0.9,9.3-2.8V175.8z M677.1,161.9h13.1v-0.6
		c0-2.1-0.5-3.8-1.6-5.1s-2.4-1.9-4.2-1.9c-1.8,0-3.3,0.6-4.6,1.9S677.6,159.4,677.1,161.9z"/>
	<path d="M719,171.7c-1.3,2.2-2.9,3.8-4.8,4.9c-1.9,1.1-3.6,1.7-5.2,1.7c-2.2,0-4.2-0.9-5.9-2.8c-1.7-1.9-2.6-4.8-2.6-8.6
		c0-3,0.6-5.7,1.7-8.1c1.2-2.4,2.7-4.3,4.6-5.6c1.9-1.4,4.3-2.1,7.2-2.1c0.8,0,2.1,0.1,3.8,0.3c0.2,0,0.6,0.1,1.1,0.1v-11.6h4.4
		v37.8H719V171.7z M719,166.5v-11.2c-1.5-0.4-3-0.6-4.3-0.6c-2.7,0-4.9,1-6.7,3.1c-1.8,2.1-2.7,4.9-2.7,8.5c0,2.6,0.5,4.6,1.5,5.9
		c1,1.3,2.1,2,3.3,2c1.4,0,2.9-0.7,4.5-2.1C716.3,170.7,717.7,168.8,719,166.5z"/>
	<path d="M736.6,187.7v-2.9c1.1-0.3,2-0.7,2.6-1.3s1.1-1.3,1.4-2.1s0.5-1.9,0.5-3.1c-1.5,0-2.5-0.4-3.2-1.2s-1-1.7-1-2.6
		c0-1.1,0.4-2,1.1-2.7s1.7-1.1,2.7-1.1c1.3,0,2.4,0.6,3.4,1.7s1.4,2.7,1.4,4.7c0,1.7-0.4,3.3-1.1,4.9s-1.8,2.8-3.1,3.9
		S738.5,187.5,736.6,187.7z M740.7,158.3c-1,0-1.9-0.4-2.7-1.1s-1.1-1.6-1.1-2.7c0-1.1,0.4-2,1.1-2.7s1.7-1.1,2.7-1.1
		s1.9,0.4,2.7,1.1s1.1,1.6,1.1,2.7c0,1-0.4,1.9-1.1,2.7S741.8,158.3,740.7,158.3z"/>
	<path class="st1" d="M448.4,235.2v-20.4h-5.8v-3.6h5.8v-1.2c0-3.4,0.4-6,1.2-7.7s2-3,3.6-4.1c1.6-1.1,3.8-1.6,6.5-1.6
		c2,0,4.1,0.2,6.2,0.6v4.1c-2.3-0.8-4.3-1.1-6-1.1c-1.4,0-2.6,0.3-3.7,0.8s-1.9,1.4-2.5,2.5s-0.9,3.1-0.9,5.9v1.7h10.4v3.6h-10.4
		v20.4H448.4z"/>
	<path class="st1" d="M481.9,235.9c-3.7,0-6.7-1.3-9-3.9c-2.2-2.6-3.4-5.9-3.4-9.9s1.1-7.3,3.4-9.9c2.2-2.6,5.2-3.9,9-3.9
		c3.7,0,6.7,1.3,9,3.9s3.4,5.9,3.4,9.9s-1.1,7.3-3.4,9.9S485.6,235.9,481.9,235.9z M481.9,232.2c2.3,0,4.2-0.9,5.5-2.7
		s2.1-4.3,2.1-7.5c0-3.2-0.7-5.6-2.1-7.5s-3.2-2.7-5.5-2.7c-2.3,0-4.2,0.9-5.6,2.7c-1.4,1.8-2.1,4.3-2.1,7.5c0,3.2,0.7,5.7,2.1,7.5
		C477.7,231.3,479.5,232.2,481.9,232.2z"/>
	<path class="st1" d="M499.9,235.2V209h4.4v5.7c1.2-2,2.8-3.6,4.5-4.7s3.5-1.7,5.3-1.7c1.5,0,3,0.4,4.2,1.2s2.2,1.9,2.7,3.2
		s0.8,3.9,0.8,7.8v14.6h-4.4V220c0-2.5-0.1-4.2-0.4-5s-0.7-1.5-1.3-2s-1.4-0.8-2.1-0.8c-1.5,0-3.2,0.7-4.9,2.2s-3.2,3.3-4.3,5.5
		v15.3H499.9z"/>
	<path class="st1" d="M550.6,234.1c-2,0.9-3.5,1.4-4.5,1.5s-1.8,0.2-2.7,0.2c-1.8,0-3.5-0.4-5-1.1s-2.7-1.7-3.4-3.1
		s-1.2-3.5-1.2-6.4v-10.5h-6.5v-3.6h6.5v-10.5h4.4v10.5h11.6v3.6h-11.6v10.5c0,2.1,0.2,3.6,0.8,4.5s1.2,1.5,2,1.9s1.8,0.6,3,0.6
		c2.1,0,4.3-0.7,6.7-2V234.1z"/>
	<path class="st1" d="M559.2,222.2v-3.6h18.2v3.6H559.2z"/>
	<path class="st1" d="M592.4,235.2v-20.4h-5.8v-3.6h5.8v-1.2c0-3.4,0.4-6,1.2-7.7s2-3,3.6-4.1c1.6-1.1,3.8-1.6,6.5-1.6
		c2,0,4.1,0.2,6.2,0.6v4.1c-2.3-0.8-4.3-1.1-6-1.1c-1.4,0-2.6,0.3-3.7,0.8s-1.9,1.4-2.5,2.5s-0.9,3.1-0.9,5.9v1.7h10.4v3.6h-10.4
		v20.4H592.4z"/>
	<path class="st1" d="M632.3,229.3c-1.3,2.2-2.9,3.8-4.8,4.9c-1.9,1.1-3.6,1.7-5.1,1.7c-2.2,0-4.2-0.9-5.9-2.8s-2.6-4.8-2.6-8.6
		c0-3,0.6-5.7,1.7-8.1s2.7-4.3,4.6-5.6c1.9-1.4,4.3-2.1,7.2-2.1c0.8,0,2.1,0.1,3.7,0.3c0.2,0,0.6,0.1,1.1,0.1h4.4v18.5
		c0,3.2,0.3,5.7,1,7.7h-4.5C632.8,233.7,632.5,231.8,632.3,229.3z M632.3,224.1v-11.2c-1.5-0.4-3-0.6-4.3-0.6c-2.7,0-4.9,1-6.7,3.1
		c-1.8,2.1-2.7,4.9-2.7,8.5c0,2.6,0.5,4.6,1.5,5.9c1,1.3,2.1,2,3.3,2c1.4,0,2.9-0.7,4.5-2.1C629.6,228.3,631.1,226.4,632.3,224.1z"
		/>
	<path class="st1" d="M642,235.2V209h3.8v6c1.2-2.5,2.3-4.3,3.4-5.3s2.1-1.5,3.2-1.5c1.3,0,2.3,0.5,3.1,1.5s1.2,2.4,1.2,4.2v1.4
		c0.5-1.6,1.1-2.9,1.9-3.9s1.5-1.8,2.3-2.4s1.7-0.9,2.7-0.9c1.1,0,2.1,0.5,2.9,1.4s1.2,2.9,1.2,5.7v19.8h-3.8v-17.9
		c0-1.5,0-2.5-0.1-3s-0.3-0.9-0.6-1.2s-0.6-0.4-0.9-0.4c-0.8,0-1.7,0.6-2.6,1.9s-1.9,3.3-2.8,6.2v14.5h-3.6v-17.9
		c0-2.3-0.2-3.7-0.7-4.1c-0.5-0.4-0.9-0.6-1.2-0.6c-0.8,0-1.7,0.7-2.6,2.1s-1.8,3.2-2.6,5.3v15.1H642z"/>
	<path class="st1" d="M680.1,235.2v-22.5h-7.3V209h11.6v22.5h7.3v3.6H680.1z M679.4,199.5c0-1,0.3-1.7,1-2.2s1.3-0.7,1.9-0.7
		c0.6,0,1.2,0.2,1.9,0.7s1,1.2,1,2.2c0,1-0.3,1.7-1,2.2s-1.3,0.7-1.9,0.7c-0.6,0-1.2-0.2-1.9-0.7S679.4,200.5,679.4,199.5z"/>
	<path class="st1" d="M708.6,235.2V201h-7.8v-3.6h12.2v34.2h8.2v3.6H708.6z"/>
	<path class="st1" d="M740,234.1L727.9,209h4.8l9.6,19.7l8-19.7h4.4l-10.1,24.3c-2.1,5.1-4.2,8.5-6.1,10.2s-4.4,2.5-7.5,2.5
		c-1.3,0-2.5-0.1-3.6-0.4v-3.8c1.2,0.4,2.3,0.6,3.4,0.6c1.4,0,2.7-0.3,3.7-0.8c1.1-0.5,2.1-1.5,3-2.9c0.9-1.4,1.5-2.6,1.9-3.6
		L740,234.1z"/>
	<path d="M769.9,215.9c-1,0-1.9-0.4-2.7-1.1s-1.1-1.6-1.1-2.7c0-1.1,0.4-2,1.1-2.7s1.7-1.1,2.7-1.1s1.9,0.4,2.7,1.1s1.1,1.6,1.1,2.7
		c0,1-0.4,1.9-1.1,2.7S771,215.9,769.9,215.9z M769.9,236.3c-1,0-1.9-0.4-2.7-1.1s-1.1-1.6-1.1-2.7c0-1.1,0.4-2,1.1-2.7
		s1.7-1.1,2.7-1.1s1.9,0.4,2.7,1.1s1.1,1.6,1.1,2.7c0,1-0.4,1.9-1.1,2.7S771,236.3,769.9,236.3z"/>
	<path d="M818.4,235.2h-4.5l11.2-36.4h4.8l11.3,36.4h-5l-2.5-8h-12.8L818.4,235.2z M822,223.5h10.6l-4.4-13.8l-1-3.7l-0.9,3.7
		L822,223.5z"/>
	<path d="M847.8,235.2V209h4.4v5.7c1.4-2.2,2.9-3.8,4.7-4.8s3.7-1.6,5.9-1.6c1.6,0,3.2,0.2,4.7,0.7v9.4h-4.2v-6
		c-0.7-0.1-1.3-0.2-1.7-0.2c-1.6,0-3.2,0.6-4.8,1.9s-3.1,3.2-4.6,5.8v15.2H847.8z"/>
	<path d="M881.7,235.2v-22.5h-7.3V209h11.6v22.5h7.3v3.6H881.7z M881,199.5c0-1,0.3-1.7,1-2.2c0.7-0.5,1.3-0.7,1.9-0.7
		c0.6,0,1.2,0.2,1.9,0.7s1,1.2,1,2.2c0,1-0.3,1.7-1,2.2s-1.3,0.7-1.9,0.7c-0.6,0-1.2-0.2-1.9-0.7C881.3,201.2,881,200.5,881,199.5z"
		/>
	<path d="M920.4,229.3c-1.3,2.2-2.9,3.8-4.8,4.9c-1.9,1.1-3.6,1.7-5.1,1.7c-2.2,0-4.2-0.9-5.9-2.8c-1.7-1.9-2.6-4.8-2.6-8.6
		c0-3,0.6-5.7,1.7-8.1c1.2-2.4,2.7-4.3,4.6-5.6c1.9-1.4,4.3-2.1,7.2-2.1c0.8,0,2.1,0.1,3.7,0.3c0.2,0,0.6,0.1,1.1,0.1h4.4v18.5
		c0,3.2,0.3,5.7,1,7.7h-4.5C920.9,233.7,920.6,231.8,920.4,229.3z M920.4,224.1v-11.2c-1.5-0.4-3-0.6-4.3-0.6c-2.7,0-4.9,1-6.7,3.1
		c-1.8,2.1-2.7,4.9-2.7,8.5c0,2.6,0.5,4.6,1.5,5.9c1,1.3,2.1,2,3.3,2c1.4,0,2.9-0.7,4.5-2.1C917.6,228.3,919.1,226.4,920.4,224.1z"
		/>
	<path d="M939,235.2V201h-7.8v-3.6h12.2v34.2h8.2v3.6H939z"/>
	<path d="M967.1,245.3v-2.9c1.1-0.3,2-0.7,2.6-1.3s1.1-1.3,1.4-2.1s0.5-1.9,0.5-3.1c-1.5,0-2.5-0.4-3.2-1.2s-1-1.7-1-2.6
		c0-1.1,0.4-2,1.1-2.7s1.7-1.1,2.7-1.1c1.3,0,2.4,0.6,3.4,1.7s1.4,2.7,1.4,4.7c0,1.7-0.4,3.3-1.1,4.9s-1.8,2.8-3.1,3.9
		S968.9,245.1,967.1,245.3z M971.2,215.9c-1,0-1.9-0.4-2.7-1.1s-1.1-1.6-1.1-2.7c0-1.1,0.4-2,1.1-2.7s1.7-1.1,2.7-1.1
		s1.9,0.4,2.7,1.1s1.1,1.6,1.1,2.7c0,1-0.4,1.9-1.1,2.7S972.2,215.9,971.2,215.9z"/>
	<path d="M397,277.8c-1.5-0.8-2.5-1.5-3.2-2.2s-1.2-1.5-1.5-2.3s-0.5-1.7-0.5-2.7c0-0.9,0.1-2.1,0.4-3.5l0.6-2.7
		c0.3-1.5,0.5-2.5,0.5-3.2c0-1-0.4-1.8-1.1-2.4c-0.7-0.7-2.3-1-4.6-1H384v-3.6h3.7c4.3,0,7,0.7,8.3,2.1c1.2,1.4,1.9,2.9,1.9,4.7
		c0,0.9-0.1,1.9-0.4,3l-0.4,1.9l-0.4,2l-0.3,1.2c-0.1,0.6-0.2,1.2-0.2,1.7c0,1.4,0.5,2.7,1.5,3.7s2.7,1.5,5.2,1.5h2.1v3.6h-2.1
		c-2.4,0-4.2,0.5-5.1,1.5s-1.5,2.3-1.5,3.8c0,0.5,0.1,1.1,0.2,1.6l0.3,1.2l0.4,2l0.4,1.9c0.2,1.1,0.4,2.1,0.4,3
		c0,1.7-0.6,3.3-1.9,4.7s-4,2.1-8.3,2.1H384v-3.6h3.6c2.3,0,3.8-0.3,4.6-1s1.1-1.5,1.1-2.4c0-0.7-0.2-1.8-0.5-3.2l-0.6-2.7
		c-0.3-1.4-0.4-2.6-0.4-3.5c0-1,0.2-1.9,0.5-2.7s0.8-1.5,1.5-2.3S395.6,278.6,397,277.8z"/>
</g>
<g>
	<path class="st2" d="M42,24.9c-0.3-1.6-1.6-3.9-5-3.9c-2.6,0-4.4,1.7-4.4,3.7c0,1.6,1,2.8,3,3.3l3.7,0.8c4.5,0.9,6.9,3.7,6.9,7.3
		c0,4-3.2,7.7-9,7.7c-6.5,0-9.5-4.2-9.9-7.8l4-1.2c0.3,2.7,2.2,5.1,5.8,5.1c3.1,0,4.6-1.5,4.6-3.5c0-1.7-1.2-3-3.4-3.5l-3.6-0.8
		c-3.9-0.8-6.5-3.3-6.5-7.2c0-4.3,3.9-7.8,8.7-7.8c6,0,8.4,3.7,8.9,6.5L42,24.9z"/>
	<path class="st2" d="M65.6,38.2c-0.9,3.1-3.7,5.5-7.9,5.5c-4.8,0-9-3.5-9-9.4c0-5.5,4.1-9.2,8.5-9.2c5.4,0,8.6,3.6,8.6,9.1
		c0,0.7-0.1,1.3-0.1,1.3H52.9c0.1,2.7,2.2,4.6,4.8,4.6c2.5,0,3.8-1.3,4.4-3.1L65.6,38.2z M61.6,32.5c-0.1-2.1-1.4-3.9-4.3-3.9
		c-2.6,0-4.1,2-4.3,3.9H61.6z M58.8,23.5h-3.4l3.2-5.3h4.9L58.8,23.5z"/>
	<path class="st2" d="M69.8,43.2V17.2H74v26.1H69.8z"/>
	<path class="st2" d="M94.9,38.2c-0.9,3.1-3.7,5.5-7.9,5.5c-4.8,0-9-3.5-9-9.4c0-5.5,4.1-9.2,8.5-9.2c5.4,0,8.6,3.6,8.6,9.1
		c0,0.7-0.1,1.3-0.1,1.3H82.2c0.1,2.7,2.2,4.6,4.8,4.6c2.5,0,3.8-1.3,4.4-3.1L94.9,38.2z M90.9,32.5c-0.1-2.1-1.4-3.9-4.3-3.9
		c-2.6,0-4.1,2-4.3,3.9H90.9z"/>
	<path class="st2" d="M101.9,34.5c0,3.5,2.3,5.5,4.9,5.5c2.7,0,4-1.9,4.4-3.2l3.7,1.3c-0.8,2.7-3.5,5.7-8.1,5.7
		c-5.1,0-9.1-4-9.1-9.3c0-5.4,3.9-9.3,9-9.3c4.7,0,7.3,3,8,5.8l-3.7,1.4c-0.4-1.5-1.6-3.3-4.2-3.3C104.2,29,101.9,30.9,101.9,34.5z"
		/>
	<path class="st2" d="M123.9,25.7h3.6v3.7h-3.6v8.1c0,1.5,0.7,2.2,2.2,2.2c0.6,0,1.3-0.1,1.4-0.1v3.5c-0.3,0.1-1,0.4-2.6,0.4
		c-3.2,0-5.3-1.9-5.3-5.2v-8.8h-3.2v-3.7h0.9c1.9,0,2.7-1.2,2.7-2.7v-2.6h3.8V25.7z"/>
	<path class="st2" d="M147.2,38.2c-0.9,3.1-3.7,5.5-7.9,5.5c-4.8,0-9-3.5-9-9.4c0-5.5,4.1-9.2,8.5-9.2c5.4,0,8.6,3.6,8.6,9.1
		c0,0.7-0.1,1.3-0.1,1.3h-12.8c0.1,2.7,2.2,4.6,4.8,4.6c2.5,0,3.8-1.3,4.4-3.1L147.2,38.2z M143.2,32.5c-0.1-2.1-1.4-3.9-4.3-3.9
		c-2.6,0-4.1,2-4.3,3.9H143.2z"/>
	<path class="st2" d="M157.5,43.7c-4.2,0-6.6-3.1-6.6-7V25.7h4.2V36c0,2.2,1,4,3.5,4c2.4,0,3.7-1.6,3.7-3.9V25.7h4.2V40
		c0,1.4,0.1,2.6,0.2,3.2h-4c-0.1-0.4-0.1-1.2-0.1-1.9C161.6,42.9,159.5,43.7,157.5,43.7z"/>
	<path class="st2" d="M182,29.8c-0.5-0.1-0.9-0.1-1.4-0.1c-3.2,0-4.7,1.9-4.7,5.1v8.4h-4.2V25.7h4.1v2.8c0.8-1.9,2.8-3,5.1-3
		c0.5,0,0.9,0.1,1.1,0.1V29.8z"/>
</g>
<g>
	<path class="st2" d="M29.2,102.1V76.6h9c6.9,0,12.4,4.6,12.4,12.8c0,8.2-5.5,12.7-12.5,12.7H29.2z M38,98.1c4.4,0,8.1-2.8,8.1-8.7
		c0-6-3.6-8.9-8.1-8.9h-4.6v17.6H38z"/>
	<path class="st2" d="M70.4,97.1c-0.9,3.1-3.7,5.5-7.9,5.5c-4.8,0-9-3.5-9-9.4c0-5.5,4.1-9.2,8.5-9.2c5.4,0,8.6,3.6,8.6,9.1
		c0,0.7-0.1,1.3-0.1,1.3H57.7c0.1,2.7,2.2,4.6,4.8,4.6c2.5,0,3.8-1.3,4.4-3.1L70.4,97.1z M66.4,91.4c-0.1-2.1-1.4-3.9-4.3-3.9
		c-2.6,0-4.1,2-4.3,3.9H66.4z M63.6,82.3h-3.4l3.2-5.3h4.9L63.6,82.3z"/>
	<path class="st2" d="M77.4,93.3c0,3.5,2.3,5.5,4.9,5.5c2.7,0,4-1.9,4.4-3.2l3.7,1.3c-0.8,2.7-3.5,5.7-8.1,5.7c-5.1,0-9.1-4-9.1-9.3
		c0-5.4,3.9-9.3,9-9.3c4.7,0,7.3,3,8,5.8l-3.7,1.4c-0.4-1.5-1.6-3.3-4.2-3.3C79.7,87.9,77.4,89.8,77.4,93.3z"/>
	<path class="st2" d="M94.1,102.1V76h4.2v26.1H94.1z"/>
	<path class="st2" d="M107.8,92l4.5-0.7c1-0.1,1.3-0.6,1.3-1.3c0-1.5-1-2.7-3.3-2.7c-2.2,0-3.4,1.4-3.6,3.2l-3.8-0.9
		c0.3-3,3.1-5.7,7.4-5.7c5.4,0,7.5,3.1,7.5,6.6v8.7c0,1.6,0.2,2.6,0.2,2.8H114c0-0.1-0.2-0.8-0.2-2.2c-0.8,1.3-2.6,2.8-5.4,2.8
		c-3.7,0-5.9-2.5-5.9-5.3C102.5,94.2,104.8,92.5,107.8,92z M113.6,94.8V94l-4.6,0.7c-1.3,0.2-2.3,0.9-2.3,2.4c0,1.2,0.9,2.3,2.6,2.3
		C111.6,99.3,113.6,98.2,113.6,94.8z"/>
	<path class="st2" d="M133,88.7c-0.5-0.1-0.9-0.1-1.4-0.1c-3.2,0-4.7,1.9-4.7,5.1v8.4h-4.2V84.5h4.1v2.8c0.8-1.9,2.8-3,5.1-3
		c0.5,0,0.9,0.1,1.1,0.1V88.7z"/>
	<path class="st2" d="M140.7,92l4.5-0.7c1-0.1,1.3-0.6,1.3-1.3c0-1.5-1-2.7-3.3-2.7c-2.2,0-3.4,1.4-3.6,3.2l-3.8-0.9
		c0.3-3,3.1-5.7,7.4-5.7c5.4,0,7.5,3.1,7.5,6.6v8.7c0,1.6,0.2,2.6,0.2,2.8h-3.9c0-0.1-0.2-0.8-0.2-2.2c-0.8,1.3-2.6,2.8-5.4,2.8
		c-3.7,0-5.9-2.5-5.9-5.3C135.4,94.2,137.7,92.5,140.7,92z M146.5,94.8V94l-4.6,0.7c-1.3,0.2-2.3,0.9-2.3,2.4c0,1.2,0.9,2.3,2.6,2.3
		C144.5,99.3,146.5,98.2,146.5,94.8z"/>
	<path class="st2" d="M160.9,84.5h3.6v3.7h-3.6v8.1c0,1.5,0.7,2.2,2.2,2.2c0.6,0,1.3-0.1,1.4-0.1v3.5c-0.3,0.1-1,0.4-2.6,0.4
		c-3.2,0-5.3-1.9-5.3-5.2v-8.8h-3.2v-3.7h0.9c1.9,0,2.7-1.2,2.7-2.7v-2.6h3.8V84.5z"/>
	<path class="st2" d="M170.8,75.7c1.5,0,2.7,1.2,2.7,2.7s-1.2,2.7-2.7,2.7c-1.5,0-2.7-1.2-2.7-2.7S169.4,75.7,170.8,75.7z
		 M168.8,102.1V84.5h4.1v17.5H168.8z"/>
	<path class="st2" d="M195.1,93.3c0,5.4-3.9,9.3-9.1,9.3c-5.2,0-9.1-3.9-9.1-9.3c0-5.4,3.9-9.3,9.1-9.3
		C191.3,84,195.1,87.9,195.1,93.3z M190.9,93.3c0-3.6-2.3-5.5-4.9-5.5c-2.6,0-4.9,1.9-4.9,5.5c0,3.6,2.3,5.6,4.9,5.6
		C188.6,98.9,190.9,97,190.9,93.3z"/>
	<path class="st2" d="M203.4,102.1h-4.2V84.5h4.1v2.3c1.2-2,3.2-2.8,5.2-2.8c4.3,0,6.3,3.1,6.3,6.9v11.1h-4.2V91.7
		c0-2.2-1-3.9-3.6-3.9c-2.4,0-3.6,1.8-3.6,4.1V102.1z"/>
	<path class="st2" d="M221.9,96.3c0.1,1.6,1.3,3,3.6,3c1.7,0,2.6-0.9,2.6-2c0-0.9-0.6-1.7-2.1-1.9l-2.6-0.6
		c-3.1-0.7-4.7-2.7-4.7-5.1c0-3.1,2.8-5.7,6.4-5.7c4.9,0,6.5,3.2,6.8,4.9l-3.5,1c-0.1-1-0.9-2.6-3.2-2.6c-1.5,0-2.5,0.9-2.5,2
		c0,0.9,0.7,1.6,1.8,1.8l2.7,0.5c3.3,0.7,5,2.7,5,5.3c0,2.7-2.2,5.6-6.6,5.6c-5.1,0-7-3.3-7.2-5.3L221.9,96.3z"/>
</g>
<g>
	<path class="st2" d="M589.5,89.3c0-8.3,6.2-13.3,12.9-13.3c6.5,0,10.3,3.8,11.5,8.3l-4.1,1.4c-0.8-3.1-3.1-5.6-7.4-5.6
		c-4.2,0-8.4,3.1-8.4,9.3c0,6,4.1,9.1,8.5,9.1c4.3,0,6.7-2.7,7.6-5.6l4,1.3c-1.2,4.3-5,8.5-11.6,8.5
		C595.5,102.6,589.5,97.6,589.5,89.3z"/>
	<path class="st2" d="M617.6,102.1V76h4.2v26.1H617.6z"/>
	<path class="st2" d="M642.7,97.1c-0.9,3.1-3.7,5.5-7.9,5.5c-4.8,0-9-3.5-9-9.4c0-5.5,4.1-9.2,8.5-9.2c5.4,0,8.6,3.6,8.6,9.1
		c0,0.7-0.1,1.3-0.1,1.3H630c0.1,2.7,2.2,4.6,4.8,4.6c2.5,0,3.8-1.3,4.4-3.1L642.7,97.1z M638.7,91.4c-0.1-2.1-1.4-3.9-4.3-3.9
		c-2.6,0-4.1,2-4.3,3.9H638.7z M635.9,82.3h-3.4l3.2-5.3h4.9L635.9,82.3z"/>
	<path class="st2" d="M649,96.3c0.1,1.6,1.3,3,3.6,3c1.7,0,2.6-0.9,2.6-2c0-0.9-0.6-1.7-2.1-1.9l-2.6-0.6c-3.1-0.7-4.7-2.7-4.7-5.1
		c0-3.1,2.8-5.7,6.4-5.7c4.9,0,6.5,3.2,6.8,4.9l-3.5,1c-0.1-1-0.9-2.6-3.2-2.6c-1.5,0-2.5,0.9-2.5,2c0,0.9,0.7,1.6,1.8,1.8l2.7,0.5
		c3.3,0.7,5,2.7,5,5.3c0,2.7-2.2,5.6-6.6,5.6c-5.1,0-7-3.3-7.2-5.3L649,96.3z"/>
</g>
<g>
	<path class="st2" d="M880.3,76.6h4.6l-9.6,25.5h-4.4l-9.5-25.5h4.7l7.1,19.9L880.3,76.6z"/>
	<path class="st2" d="M890,92l4.5-0.7c1-0.1,1.3-0.6,1.3-1.3c0-1.5-1-2.7-3.3-2.7c-2.2,0-3.4,1.4-3.6,3.2l-3.8-0.9
		c0.3-3,3.1-5.7,7.4-5.7c5.4,0,7.5,3.1,7.5,6.6v8.7c0,1.6,0.2,2.6,0.2,2.8h-3.9c0-0.1-0.2-0.8-0.2-2.2c-0.8,1.3-2.6,2.8-5.4,2.8
		c-3.7,0-5.9-2.5-5.9-5.3C884.7,94.2,887,92.5,890,92z M895.8,94.8V94l-4.6,0.7c-1.3,0.2-2.3,0.9-2.3,2.4c0,1.2,0.9,2.3,2.6,2.3
		C893.8,99.3,895.8,98.2,895.8,94.8z"/>
	<path class="st2" d="M905,102.1V76h4.2v26.1H905z"/>
	<path class="st2" d="M930.1,97.1c-0.9,3.1-3.7,5.5-7.9,5.5c-4.8,0-9-3.5-9-9.4c0-5.5,4.1-9.2,8.5-9.2c5.4,0,8.6,3.6,8.6,9.1
		c0,0.7-0.1,1.3-0.1,1.3h-12.8c0.1,2.7,2.2,4.6,4.8,4.6c2.5,0,3.8-1.3,4.4-3.1L930.1,97.1z M926.1,91.4c-0.1-2.1-1.4-3.9-4.3-3.9
		c-2.6,0-4.1,2-4.3,3.9H926.1z"/>
	<path class="st2" d="M940.4,102.6c-4.2,0-6.6-3.1-6.6-7V84.5h4.2v10.3c0,2.2,1,4,3.5,4c2.4,0,3.7-1.6,3.7-3.9V84.5h4.2v14.3
		c0,1.4,0.1,2.6,0.2,3.2h-4c-0.1-0.4-0.1-1.2-0.1-1.9C944.5,101.7,942.4,102.6,940.4,102.6z"/>
	<path class="st2" d="M964.9,88.7c-0.5-0.1-0.9-0.1-1.4-0.1c-3.2,0-4.7,1.9-4.7,5.1v8.4h-4.2V84.5h4.1v2.8c0.8-1.9,2.8-3,5.1-3
		c0.5,0,0.9,0.1,1.1,0.1V88.7z"/>
	<path class="st2" d="M970.6,96.3c0.1,1.6,1.3,3,3.6,3c1.7,0,2.6-0.9,2.6-2c0-0.9-0.6-1.7-2.1-1.9l-2.6-0.6
		c-3.1-0.7-4.7-2.7-4.7-5.1c0-3.1,2.8-5.7,6.4-5.7c4.9,0,6.5,3.2,6.8,4.9l-3.5,1c-0.1-1-0.9-2.6-3.2-2.6c-1.5,0-2.5,0.9-2.5,2
		c0,0.9,0.7,1.6,1.8,1.8l2.7,0.5c3.3,0.7,5,2.7,5,5.3c0,2.7-2.2,5.6-6.6,5.6c-5.1,0-7-3.3-7.2-5.3L970.6,96.3z"/>
</g>
<g>
	<g>
		<line class="st3" x1="200.1" y1="33.3" x2="349.5" y2="80.3"/>
		<g>
			<polygon class="st2" points="342.3,91.1 366.6,85.7 349.8,67.3 			"/>
		</g>
	</g>
</g>
<g>
	<g>
		<line class="st3" x1="254.2" y1="95.7" x2="401.2" y2="155.4"/>
		<g>
			<polygon class="st2" points="393.1,165.6 417.8,162.2 402.5,142.5 			"/>
		</g>
	</g>
</g>
<g>
	<g>
		<line class="st3" x1="254.2" y1="96.3" x2="402.7" y2="204.6"/>
		<g>
			<polygon class="st2" points="392.4,212.5 417.2,215.1 407.1,192.3 			"/>
		</g>
	</g>
</g>
<g>
	<g>
		<line class="st3" x1="613.7" y1="113.8" x2="562.1" y2="129.3"/>
		<g>
			<polygon class="st2" points="562,116.4 544.9,134.5 569.2,140.2 			"/>
		</g>
	</g>
</g>
<g>
	<g>
		<line class="st3" x1="613.7" y1="114.4" x2="613.7" y2="167.2"/>
		<g>
			<polygon class="st2" points="601.3,163.5 613.7,185.1 626.2,163.5 			"/>
		</g>
	</g>
</g>
<g>
	<g>
		<line class="st3" x1="917.9" y1="113.2" x2="789.8" y2="151.7"/>
		<g>
			<polygon class="st2" points="789.7,138.7 772.6,156.9 796.9,162.6 			"/>
		</g>
	</g>
</g>
<g>
	<g>
		<line class="st3" x1="917.9" y1="113.8" x2="917.9" y2="160.1"/>
		<g>
			<polygon class="st2" points="905.5,156.5 917.9,178.1 930.4,156.5 			"/>
		</g>
	</g>
</g>
</svg>
