<?xml version="1.0" encoding="utf-8"?>
<!-- Generator: Adobe Illustrator 23.0.1, SVG Export Plug-In . SVG Version: 6.00 Build 0)  -->
<svg version="1.1" id="Layer_1" xmlns="http://www.w3.org/2000/svg" xmlns:xlink="http://www.w3.org/1999/xlink" x="0px" y="0px"
	 viewBox="0 0 75.5 23.39" style="enable-background:new 0 0 75.5 23.39;" xml:space="preserve">
<g>
	<g>
		<path d="M13.72,0H8.16L5.93,4.23h4.09L13.72,0z M12.02,18.01c-0.49,0.92-1.47,1.83-3.31,1.83c-2.1,0-3.83-1.24-4.06-4.19h12.22
			v-0.43c0-5.54-2.75-9.7-8.39-9.7C3.31,5.54,0,9.37,0,14.44s3.14,8.91,8.65,8.91c4.06,0,6.85-2.13,8.02-5.34H12.02z M8.48,8.88
			c2.29,0,3.7,1.61,3.77,3.77H4.72C4.91,10.48,6.29,8.88,8.48,8.88 M34.23,11.69c-0.46-3.7-3.5-6.16-7.73-6.16
			c-5.34,0-8.65,3.7-8.65,8.91c0,5.34,3.08,8.91,8.61,8.91c4.39,0,7.24-2.49,7.89-6.16h-4.46c-0.39,1.34-1.24,2.62-3.34,2.62
			c-2.39,0-4-1.64-4-5.34c0-3.54,1.54-5.44,3.9-5.44c1.97,0,2.98,1.31,3.24,2.65H34.23z M48.15,20.11c-1.74,0-2.82-0.75-2.82-2.16
			c0-0.52,0.2-0.98,0.52-1.31c0.46-0.46,1.34-0.75,2.59-1.08l1.02-0.26c1.18-0.3,2.03-0.52,2.42-0.69v2.06
			c0,0.82-0.06,1.11-0.16,1.41C51.2,19.56,49.62,20.11,48.15,20.11 M45.76,11.2c0.06-0.79,0.3-1.28,0.79-1.7
			c0.56-0.46,1.34-0.69,2.33-0.69c1.87,0,2.85,0.75,2.85,2c0,0.92-0.36,1.34-1.57,1.51l-0.75,0.1c-3.6,0.52-8.61,1.21-8.61,5.67
			c0,3.28,2.82,5.31,6.42,5.31c2.95,0,4.26-1.05,5.04-1.8h0.03l0.1,1.34h4.16v-0.1c-0.3-0.52-0.39-1.11-0.39-2.23v-7.89
			c0-1.61-0.13-2.62-0.39-3.44C54.86,6.49,51.92,5.54,49,5.54c-4.09,0-7.17,1.74-7.4,5.6L45.76,11.2z M70.91,22.93h4.59V0h-4.59
			V22.93z"/>
	</g>
</g>
</svg>
